<svg width="140" height="133" viewBox="0 0 140 133" fill="none" xmlns="http://www.w3.org/2000/svg">
<path d="M72.7649 0.953217H42.2575C39.8202 0.953217 37.8032 2.97902 37.8032 5.42687V24.8409C37.8032 27.2887 39.8202 29.3145 42.2575 29.3145H72.6809C75.1181 29.3145 77.1351 27.2887 77.1351 24.8409V5.42687C77.2192 2.97902 75.2022 0.953217 72.7649 0.953217ZM64.1085 18.1726H51.25C49.5692 18.1726 43.9383 13.1925 43.9383 10.7446C43.9383 8.29677 45.9553 6.27096 48.3926 6.27096H66.7979C69.2351 6.27096 71.2522 8.29677 71.2522 10.7446C71.1681 13.1925 65.7894 18.1726 64.1085 18.1726Z" fill="#E23B37"/>
<path d="M77.8072 42.5667C77.8072 44.0016 76.8827 45.0989 75.7902 45.0989H12.0019C10.9093 45.0989 9.98486 44.0016 9.98486 42.5667C9.98486 41.1317 10.9093 40.0344 12.0019 40.0344H75.7902C76.8827 40.1188 77.8072 41.2161 77.8072 42.5667Z" fill="#E23B37"/>
<path d="M66.8821 59.1952C66.8821 60.6301 65.9576 61.7274 64.8651 61.7274H12.0864C10.9938 61.7274 10.0693 60.6301 10.0693 59.1952C10.0693 57.7602 10.9938 56.6629 12.0864 56.6629H64.8651C65.9576 56.6629 66.8821 57.7602 66.8821 59.1952Z" fill="#E23B37"/>
<path d="M56.1242 75.7392C56.1242 77.1742 55.4519 78.2715 54.6955 78.2715H11.4136C10.6572 78.2715 9.98486 77.1742 9.98486 75.7392C9.98486 74.3043 10.6572 73.207 11.4136 73.207H54.6115C55.4519 73.207 56.1242 74.3043 56.1242 75.7392Z" fill="#E23B37"/>
<path d="M58.2253 108.827C58.2253 113.639 54.3593 117.606 49.4849 117.606H18.7253C13.9349 117.606 9.98486 113.723 9.98486 108.827C9.98486 104.016 13.8508 100.049 18.7253 100.049H49.4849C54.2753 100.049 58.2253 103.932 58.2253 108.827Z" fill="#E23B37"/>
<path d="M109.492 18.8478V56.5785C110.248 56.4941 111.004 56.4941 111.761 56.4941C112.769 56.4941 113.778 56.5785 114.786 56.6629V18.8478C114.786 14.7118 111.425 11.4199 107.391 11.4199H81.2534V16.7376H107.391C108.483 16.822 109.492 17.7505 109.492 18.8478Z" fill="#E23B37"/>
<path d="M111.677 119.8C110.92 119.8 110.164 119.8 109.407 119.716V125.203C109.407 126.384 108.483 127.313 107.306 127.313H7.80004C6.62345 127.313 5.69898 126.384 5.69898 125.203V18.8478C5.69898 17.6661 6.62345 16.7376 7.80004 16.7376H34.0213V11.4199H7.80004C3.68196 11.4199 0.404297 14.7962 0.404297 18.8478V125.203C0.404297 129.339 3.766 132.631 7.80004 132.631H107.39C111.509 132.631 114.786 129.339 114.786 125.203V119.632C113.778 119.8 112.769 119.8 111.677 119.8Z" fill="#E23B37"/>
<path d="M111.677 60.0392C96.2128 60.0392 83.6064 72.6161 83.6064 88.2317C83.6064 103.763 96.1288 116.424 111.677 116.424C127.14 116.424 139.747 103.847 139.747 88.2317C139.747 72.6161 127.225 60.0392 111.677 60.0392ZM130.586 80.8038L107.811 103.763C107.727 103.847 107.643 103.932 107.559 104.016C107.559 104.016 107.559 104.101 107.475 104.101C106.466 105.113 104.869 105.113 103.861 104.101L92.8511 93.043C91.8426 92.0301 91.8426 90.4263 92.8511 89.4134C93.8596 88.4005 95.4564 88.4005 96.465 89.4134L105.71 98.6984L126.972 77.343C127.981 76.3301 129.578 76.3301 130.586 77.343C131.595 78.1871 131.595 79.7909 130.586 80.8038Z" fill="#E23B37"/>
</svg>
