<svg width="170" height="126" viewBox="0 0 170 126" fill="none" xmlns="http://www.w3.org/2000/svg">
<path d="M128.834 124.993C123.707 124.993 118.781 122.982 115.162 119.363C111.543 115.744 109.432 110.817 109.432 105.69C109.432 103.377 111.342 101.467 113.654 101.467C115.966 101.467 117.876 103.377 117.876 105.69C117.876 108.605 118.982 111.32 121.093 113.431C123.104 115.442 125.919 116.648 128.734 116.648C134.766 116.648 139.591 111.722 139.591 105.79C139.591 103.478 141.501 101.568 143.814 101.568C146.126 101.568 148.036 103.478 148.036 105.79C148.237 116.246 139.591 124.993 128.834 124.993C128.935 124.993 128.834 124.993 128.834 124.993Z" fill="#E23B37"/>
<path d="M40.1654 125.094C35.0382 125.094 30.1122 123.083 26.493 119.463C22.8739 115.844 20.7627 110.918 20.7627 105.79C20.7627 103.478 22.6728 101.568 24.985 101.568C27.2973 101.568 29.2074 103.478 29.2074 105.79C29.2074 108.706 30.3132 111.42 32.4244 113.532C34.435 115.542 37.2499 116.749 40.0648 116.749C46.0967 116.749 50.9223 111.823 50.9223 105.891C50.9223 103.579 52.8324 101.668 55.1446 101.668C57.4568 101.668 59.3669 103.579 59.3669 105.891C59.568 116.347 50.9223 125.094 40.1654 125.094C40.2659 125.094 40.1654 125.094 40.1654 125.094Z" fill="#E23B37"/>
<path d="M55.1447 107.298C52.8325 107.298 50.9224 105.388 50.9224 103.076C50.9224 100.763 52.8325 98.8532 55.1447 98.8532L100.183 98.7527C102.495 98.7527 104.405 100.663 104.405 102.975C104.405 105.288 102.495 107.198 100.183 107.198L55.1447 107.298Z" fill="#E23B37"/>
<path d="M14.8312 107.399C10.8099 107.399 6.88917 104.684 4.07428 99.7581C1.86258 96.0382 0.555664 91.514 0.555664 87.8946C0.555664 87.593 0.555664 87.1909 0.656196 86.8893L5.28066 68.2898C5.88386 65.9774 8.09556 64.6704 10.4078 65.1731C12.72 65.7763 14.0269 67.9882 13.5243 70.3005L9.10088 88.2968C9.20141 90.1065 10.0057 92.9215 11.5136 95.435C13.0216 97.9484 14.4291 98.8532 15.0323 98.8532H25.2865C27.5987 98.8532 29.5089 100.763 29.5089 103.076C29.5089 105.388 27.5987 107.298 25.2865 107.298L14.8312 107.399Z" fill="#E23B37"/>
<path d="M144.015 107.198C141.703 107.198 139.793 105.288 139.793 102.975C139.793 100.663 141.703 98.7527 144.015 98.7527H154.973C157.386 96.2393 160.402 84.5769 161.206 77.8409L127.729 65.1731C127.025 64.8715 126.422 64.4694 126.02 63.9667L105.913 40.1392H81.3835C79.0712 40.1392 77.1611 38.229 77.1611 35.9167C77.1611 33.6043 79.0712 31.6941 81.3835 31.6941H107.924C109.13 31.6941 110.337 32.1968 111.141 33.2022L131.75 57.6328L167.137 71.0043C168.746 71.6075 169.852 73.2161 169.852 74.9253C169.852 78.1425 168.746 85.4817 166.735 92.2178C163.719 102.573 160.301 107.198 155.576 107.198H144.015Z" fill="#E23B37"/>
<path d="M9.40261 73.5177C8.09569 73.5177 6.88931 72.9145 5.98452 71.8086C4.57708 69.8984 4.97921 67.2844 6.78878 65.8769L21.9691 54.5161L32.0223 41.1446C33.1281 39.3349 38.2553 31.7946 48.409 31.7946H81.3835V40.2398H48.409C42.2766 40.2398 39.3611 45.4677 39.2606 45.4677C39.1601 45.6688 39.0595 45.8699 38.8585 46.071L28.3026 60.1462C28.1015 60.4478 27.8 60.7495 27.4984 60.9505L11.8154 72.7134C11.1117 73.2161 10.2069 73.5177 9.40261 73.5177Z" fill="#E23B37"/>
<path d="M66.5047 47.8806C64.5946 47.8806 62.785 46.3726 62.785 44.4624C62.785 35.1124 55.1446 27.572 45.8956 27.572C43.9855 27.572 42.4775 26.064 42.4775 24.1538C42.4775 22.2435 43.9855 20.7355 45.8956 20.7355C55.2451 20.7355 62.785 13.0946 62.785 3.84516C62.785 1.93494 64.293 0.42688 66.2031 0.42688C68.1132 0.42688 69.9228 1.93494 69.9228 3.84516C69.9228 13.1952 77.5632 20.7355 86.8121 20.7355C88.7222 20.7355 90.2302 22.2435 90.2302 24.1538C90.2302 26.064 88.7222 27.572 86.8121 27.572C77.4627 27.572 69.9228 35.2129 69.9228 44.4624C69.9228 46.3726 68.4148 47.8806 66.5047 47.8806ZM58.1605 24.0532C61.4781 26.064 64.293 28.879 66.3036 32.2973C68.3142 28.879 71.1291 26.064 74.4467 24.0532C71.1291 22.0425 68.3142 19.2274 66.3036 15.8091C64.3935 19.2274 61.5786 22.0425 58.1605 24.0532Z" fill="#E23B37"/>
</svg>
