<svg width="133" height="132" viewBox="0 0 133 132" fill="none" xmlns="http://www.w3.org/2000/svg">
<path d="M58.8204 30.2468C58.4778 31.871 58.1353 34.179 57.6214 36.4016C57.022 38.9661 58.3922 41.7871 60.8757 42.129C61.5608 42.2145 62.5028 41.5306 63.1023 40.8468C72.3512 30.8452 81.5145 20.7581 90.7634 10.7565C93.3326 7.93549 96.1586 5.37097 99.2416 3.06291C103.78 -0.441929 108.747 -0.698379 113.971 2.0371C120.309 5.37097 124.762 10.5 127.588 17.0823C129.472 21.5274 128.958 25.4597 125.875 29.05C122.707 32.8113 119.452 36.5726 116.112 40.2484C110.803 45.9758 105.408 51.7032 99.9267 57.2597C97.1863 59.9952 94.0177 62.2177 91.2773 64.9532C89.9927 66.2355 88.5368 68.2016 88.5368 69.9113C88.5368 72.0484 91.6198 73.3306 94.6172 72.9887C108.747 71.1935 119.11 77.0064 126.303 88.8887C128.701 92.9064 130.5 97.4371 132.212 101.797C133.754 105.729 131.527 110.089 127.417 111.029C125.961 111.371 123.82 110.602 122.45 109.576C119.195 107.097 116.198 104.276 113.115 101.626C111.06 99.8306 108.919 99.3177 106.435 100.429C105.408 100.856 104.294 101.113 103.267 101.455C98.9847 102.908 95.7305 107.097 95.8161 111.456C95.8161 112.482 96.5012 113.594 97.1007 114.448C99.5842 117.611 102.153 120.689 104.722 123.766C105.921 125.305 107.206 127.1 105.75 128.81C104.637 130.006 102.753 131.203 101.211 131.289C89.3932 131.716 81.2576 125.476 75.1773 116.244C71.0666 109.918 69.0113 102.908 71.5805 95.2145C72.0087 94.0177 71.1523 91.9661 70.2103 90.8548C68.5831 88.8032 66.5278 87.179 64.7294 85.2984C63.5305 84.0161 62.5884 83.8452 61.2182 85.0419C53.4251 91.9661 45.4608 98.8048 37.6677 105.729C36.8969 106.413 36.2975 107.524 36.0406 108.55C34.8416 112.482 32.7007 115.987 29.4464 118.381C24.7363 121.8 19.7693 124.963 14.7166 127.955C13.5177 128.639 11.548 128.211 9.92089 128.126C9.23578 128.04 8.55067 127.527 7.95121 127.185C1.27142 123.339 0.671951 121.373 3.75493 114.277C5.29642 110.602 7.00918 106.926 8.46504 103.25C9.57833 100.429 11.548 99.2322 14.631 98.8903C16.8576 98.6339 19.5124 97.6935 21.0539 96.1548C29.3608 87.8629 37.4108 79.229 45.5464 70.7661C46.4884 69.7403 47.0023 68.8855 45.889 67.6032C44.1762 65.6371 42.4634 63.671 41.0076 61.4484C39.0379 58.4564 36.4688 58.2855 33.3001 58.8839C25.2501 60.5935 17.7996 58.7984 11.548 53.4984C8.97887 51.3613 6.92355 48.3694 5.29642 45.3774C3.32674 41.7016 1.78525 37.7694 0.586314 33.7516C-0.0131542 31.7 0.24376 29.1355 0.843228 26.9984C1.69961 24.0919 4.18312 23.4081 6.58099 25.2032C9.4927 27.3403 12.3188 29.6484 14.8879 32.2129C16.515 33.8371 17.9709 34.2645 20.1118 33.4097C21.8246 32.7258 23.7087 32.4694 25.5927 32.2984C28.6757 31.9565 30.9879 30.6742 31.9299 27.6823C32.9576 24.6048 33.4714 21.5274 30.731 18.8774C28.4188 16.6548 26.3634 14.2613 24.3081 11.8677C20.797 7.93549 21.9102 4.00323 27.0485 3.06291C29.789 2.55001 32.8719 2.63549 35.6124 3.23388C47.3448 6.05484 55.823 12.6371 58.7347 24.8613C58.5634 26.4 58.5634 27.9387 58.8204 30.2468ZM69.6108 73.1597C70.6384 71.0226 71.3235 69.4839 72.0087 68.0306C73.6358 64.7823 75.4342 64.1839 78.9454 65.1242C80.0587 65.3806 81.8571 64.9532 82.6278 64.1839C86.6528 60.5081 90.5065 56.6613 94.2746 52.729C102.068 44.4371 109.946 36.2306 117.483 27.7677C122.707 21.8694 122.621 20.6726 117.654 14.4323C117.226 13.9194 116.797 13.4065 116.369 12.979C108.662 5.28549 105.322 5.88388 99.156 12.4661C87.7661 24.5194 76.4618 36.6581 65.2432 48.8823C64.815 49.3952 64.6438 50.6774 64.9007 51.2758C66.8704 55.6355 64.9863 59.2258 60.1049 60.0806C57.7927 60.5081 57.1932 61.6194 58.906 63.329C62.1603 66.5774 65.6714 69.5694 69.6108 73.1597ZM70.4672 81.4516C72.1799 83.0758 73.5501 84.6145 75.0916 85.8968C78.8597 88.8887 79.7161 92.5645 78.1746 97.0952C77.4895 99.0613 76.89 101.369 77.3182 103.335C79.4592 112.739 84.5975 119.834 94.6172 123.424C92.8188 120.945 91.3629 118.894 89.8214 116.842C88.023 114.448 87.6805 111.969 88.7938 109.234C90.164 105.558 91.2773 101.797 92.8188 98.2064C93.3326 97.0952 94.6172 95.8984 95.9017 95.5564C98.8134 94.6161 101.982 94.5306 104.894 93.5048C109.518 91.9661 113.458 92.5645 117.054 95.8984C119.195 97.8645 121.593 99.4887 123.82 101.198C124.077 100.942 124.419 100.771 124.676 100.515C122.621 96.9242 120.994 92.9919 118.51 89.7435C112.259 81.3661 104.037 77.6903 93.5039 80.4258C90.5065 81.1952 88.2799 80.4258 86.3102 78.0322C85.2826 76.8355 84.1693 75.7242 82.9704 74.6984C80.6581 72.7323 77.6608 72.7323 77.0613 74.8694C76.0337 78.2032 74.064 80.3403 70.4672 81.4516ZM48.2012 60.5935C48.4581 60.5081 48.715 60.5081 48.8863 60.4226C48.715 56.4903 51.798 55.8064 54.3672 54.6097C55.2235 54.1823 56.4225 53.8403 56.6794 53.071C57.5358 51.0194 55.9086 47.0871 54.0246 45.6339C52.9113 44.779 51.8837 43.9242 50.856 42.9839C48.8863 41.1887 48.6294 39.2226 49.9996 36.7435C51.798 33.5806 52.3118 30.0758 51.4555 26.4855C49.7427 18.7065 42.7204 11.8677 34.8416 10.5C34.1565 10.4145 33.3858 10.4145 31.9299 10.329C35.698 13.5774 38.4384 16.5694 39.2092 20.8435C39.9799 24.7758 38.4384 28.2806 37.5821 32.0419C36.7257 35.7177 34.6704 37.3419 31.1592 37.9403C27.5624 38.6242 24.1368 39.65 20.6257 40.5903C16.7719 41.7016 13.0895 42.129 9.74961 38.2823C11.2911 44.3516 14.2884 48.3694 19.5124 50.7629C24.6507 52.9855 29.789 52.5581 35.1842 51.7887C41.7783 50.9339 40.9219 50.1645 44.2618 55.4645C45.3751 57.2597 46.9166 58.8839 48.2012 60.5935ZM60.9613 75.2113C60.6188 74.4419 60.5331 74.3564 60.5331 74.271C60.1049 73.8435 59.7624 73.5016 59.3342 73.1597C55.3948 69.5694 55.9943 70.0823 52.4831 73.1597C42.3778 82.221 33.0432 91.9661 24.4794 102.481C23.4517 103.763 21.4821 104.703 19.8549 104.874C16.0868 105.387 13.689 107.097 12.4044 110.687C11.6337 112.653 10.5204 114.534 9.92089 116.585C9.57833 117.697 9.57833 119.577 10.2634 120.176C10.9485 120.86 12.9182 120.86 13.8602 120.347C16.8576 118.637 19.6837 116.671 22.5097 114.705C25.5927 112.482 27.8193 109.661 29.1039 105.9C29.789 103.848 31.0735 101.797 32.7007 100.344C40.7507 92.9919 49.0576 85.8968 57.1932 78.6306C58.4778 77.5193 59.7624 76.3226 60.9613 75.2113Z" fill="#E23B37"/>
<path d="M111.83 20.1597C111.402 20.7581 110.803 22.0403 109.861 22.9806C100.783 32.4693 91.6196 41.8726 82.4563 51.2758C81.1717 52.6435 79.3733 53.5839 77.5749 54.3532C75.6909 55.1226 73.6356 52.8145 74.1494 50.5919C74.3207 49.7371 74.8345 48.8822 75.5196 48.1984C85.1111 38.2823 94.7882 28.4516 104.38 18.621C105.236 17.7661 106.264 17.0823 107.291 16.5694C109.604 15.5435 111.83 17.0823 111.83 20.1597Z" fill="#E23B37"/>
</svg>
