<svg width="89" height="142" viewBox="0 0 89 142" fill="none" xmlns="http://www.w3.org/2000/svg">
<path d="M45.2417 43.4716C34.736 43.4716 26.2832 30.4049 26.2832 19.637C26.2832 9.2321 34.736 0.641975 45.2417 0.641975C55.7474 0.641975 64.2002 9.11111 64.2002 19.637C64.2002 30.4049 55.7474 43.4716 45.2417 43.4716ZM45.2417 7.90123C38.7209 7.90123 33.5285 13.2247 33.5285 19.758C33.5285 26.8963 39.3247 36.3333 45.3625 36.3333V39.963V36.3333C51.2794 36.3333 57.0757 26.7753 57.0757 19.758C56.9549 13.1037 51.7625 7.90123 45.2417 7.90123Z" fill="#E23B37"/>
<path d="M32.3209 141.593C28.819 141.593 25.6794 140.383 23.6265 138.326C19.8831 134.454 16.3813 112.677 14.5699 100.094C14.3284 98.521 15.1737 97.0691 16.502 96.3432C16.8643 96.2222 18.0718 95.6173 20.9699 94.8914L23.6265 54.2395C23.6265 53.3926 23.9888 52.6667 24.5926 52.0617C24.8341 51.6988 31.7171 44.5605 45.7246 44.5605C59.7322 44.5605 66.6152 51.6988 66.8567 52.0617C67.4605 52.6667 67.702 53.3926 67.8228 54.2395L70.6001 94.8914C73.4982 95.6173 74.7058 96.1012 75.068 96.3432C76.3964 97.0691 77.2416 98.521 77.0001 100.094C75.3096 112.677 71.9284 134.454 68.0643 138.447C66.0114 140.504 62.8718 141.714 59.3699 141.714C55.7473 141.714 52.8492 140.504 51.4001 138.326C50.3133 136.753 50.0718 134.696 50.7963 132.881C55.0228 121.751 55.385 113.765 55.2643 110.499C53.8152 109.894 51.0379 108.926 46.4492 108.926C41.4982 108.926 38.1171 110.015 36.3058 110.741C36.185 114.128 36.668 122.114 40.8945 133.002C41.619 134.938 41.3775 136.874 40.2907 138.447C38.8416 140.383 35.9435 141.593 32.3209 141.593ZM28.9397 133.365C29.5435 133.97 30.9926 134.333 32.4416 134.333C33.0454 134.333 33.5284 134.212 33.8907 134.212C27.9737 118.363 29.4228 108.079 29.4228 107.595C29.5435 106.627 30.1473 105.659 30.9926 105.175C31.5963 104.812 36.7888 101.425 46.5699 101.425C56.7133 101.425 60.9397 105.054 61.302 105.417C61.9058 106.022 62.268 106.748 62.3888 107.595C62.5096 108.079 63.9586 118.242 58.0416 134.212C58.4039 134.333 58.8869 134.333 59.4907 134.333C60.9397 134.333 62.268 133.97 62.9926 133.365C64.6831 130.825 67.5813 115.822 69.6341 102.03C67.4605 101.546 63.7171 100.699 57.5586 100.094C55.6265 99.8519 54.2982 98.279 54.419 96.3432C54.5397 94.4074 56.1096 92.9556 58.0416 92.9556H63.5963L61.0605 56.2963C59.2492 54.8444 54.2982 51.8198 46.0869 51.8198C37.7548 51.8198 32.9246 54.8444 30.9926 56.2963L28.5775 92.9556H34.1322C36.0643 92.9556 37.6341 94.4074 37.7548 96.3432C37.8756 98.279 36.4265 99.8519 34.6152 100.094C28.4567 100.82 24.7133 101.546 22.5397 102.151C24.2303 115.822 27.1284 130.946 28.9397 133.365Z" fill="#E23B37"/>
<path d="M4.42658 92.4716C3.33978 92.4716 2.25299 91.9876 1.52846 91.0197C0.562423 89.6889 0.562421 87.9951 1.64921 86.6642C16.2605 68.0321 76.1549 35.6074 78.6907 34.2765C80.3813 33.3086 82.5549 34.0346 83.5209 35.7284C84.4869 37.4222 83.7624 39.6 82.0718 40.5679C81.5888 40.8099 37.6341 64.5234 16.1398 82.4296C38.4794 78.921 73.3775 80.0099 86.5398 85.4543C88.3511 86.1802 89.1964 88.358 88.4718 90.1728C87.7473 91.9877 85.5737 92.8346 83.7624 92.1086C70.1171 86.4222 23.5058 85.5753 5.75488 92.2296C5.39261 92.4716 4.90959 92.4716 4.42658 92.4716Z" fill="#E23B37"/>
</svg>
