<svg width="99" height="148" viewBox="0 0 99 148" fill="none" xmlns="http://www.w3.org/2000/svg">
<path d="M58.0533 147.198H51.2256V131.879L52.6143 130.835C52.73 130.719 61.4092 123.988 61.4092 116.561V102.867H68.2369V116.561C68.2369 125.38 61.0621 132.575 58.0533 135.244V147.198Z" fill="#E23B37"/>
<path d="M0.307129 147.198V89.2889C0.307129 81.0494 3.31593 77.684 8.17631 73.158L25.3034 59.3482L29.5851 64.6864L12.5738 78.2642C8.17631 82.3259 7.01908 83.9506 7.01908 89.2889V147.198H0.307129Z" fill="#E23B37"/>
<path d="M30.858 126.773V119.926C35.4869 119.926 41.0416 118.185 41.0416 109.714V98.1086L50.4152 88.7086C53.8869 84.1827 51.9196 77.5679 49.0266 75.0148C47.6379 73.7383 47.175 74.3185 46.8278 74.6667L19.7486 101.822L14.8882 96.9481L42.0832 69.6765C45.4391 66.3111 49.9523 66.4272 53.6555 69.7926C59.3259 74.8988 61.5247 85.5753 55.6228 93.0025L55.3913 93.2346L47.8693 100.778V109.598C47.8693 122.247 38.7272 126.773 30.858 126.773Z" fill="#E23B37"/>
<path d="M88.7196 106.232H44.5133V99.3852H88.7196C90.5712 99.3852 92.0756 97.8765 92.0756 96.0198V10.8395C92.0756 8.98271 90.5712 7.47407 88.7196 7.47407H34.3296C32.4781 7.47407 30.9737 8.98271 30.9737 10.8395V85.8074H24.146V10.8395C24.146 5.15308 28.7749 0.627159 34.3296 0.627159H88.7196C94.39 0.627159 98.9032 5.26913 98.9032 10.8395V96.0198C98.9032 101.706 94.2743 106.232 88.7196 106.232Z" fill="#E23B37"/>
<path d="M85.1321 85.8074H53.0768V78.9605H78.3044V21.5161H43.4717V76.6395H36.644V14.7852H85.1321V85.8074Z" fill="#E23B37"/>
<path d="M71.8238 89.0568H49.9521V95.9037H71.8238V89.0568Z" fill="#E23B37"/>
</svg>
