<svg width="155" height="146" viewBox="0 0 155 146" fill="none" xmlns="http://www.w3.org/2000/svg">
<path d="M119.431 77.5871C115.611 77.5871 111.973 75.9516 109.244 72.9532C106.516 69.9548 104.969 65.957 104.969 61.6866C104.969 59.7785 106.334 58.143 108.153 58.143C109.881 58.143 111.336 59.6876 111.336 61.5957C111.336 63.9581 112.155 66.2296 113.701 67.9559C115.247 69.6822 117.248 70.5909 119.431 70.5909C123.888 70.5909 127.527 66.5021 127.527 61.5957C127.527 59.6876 128.891 58.0521 130.71 58.0521C132.438 58.0521 133.894 59.5968 133.894 61.5048C133.803 70.4091 127.345 77.5871 119.431 77.5871Z" fill="#E23B37"/>
<path d="M53.3963 77.678C49.5761 77.678 45.9378 76.0425 43.2091 73.0441C40.4804 70.0457 38.9341 66.0478 38.9341 61.7774C38.9341 59.8693 40.2984 58.2339 42.1176 58.2339C43.8458 58.2339 45.3011 59.7785 45.3011 61.6866C45.3011 64.0489 46.1197 66.3204 47.666 68.0468C49.2123 69.7731 51.2133 70.6817 53.3963 70.6817C57.8532 70.6817 61.4915 66.593 61.4915 61.6866C61.4915 59.7785 62.8559 58.143 64.6751 58.143C66.4032 58.143 67.8586 59.6876 67.8586 61.5957C67.8586 70.5 61.4006 77.678 53.3963 77.678Z" fill="#E23B37"/>
<path d="M64.4931 63.0495C62.7649 63.0495 61.3096 61.5048 61.3096 59.5968C61.3096 57.6887 62.6739 56.0532 64.4931 56.0532L98.0564 55.9624C99.7846 55.9624 101.24 57.507 101.24 59.4151C101.24 61.3231 99.8755 62.9586 98.0564 62.9586L64.4931 63.0495Z" fill="#E23B37"/>
<path d="M34.5683 63.0495C31.5667 63.0495 28.6561 60.778 26.564 56.6892C24.9268 53.6 23.9263 49.8747 23.9263 46.8763C23.9263 46.6038 23.9263 46.3312 24.0172 46.0586L27.4736 30.7032C27.9284 28.7952 29.5656 27.7048 31.2938 28.1591C33.022 28.6134 34.0225 30.5215 33.5678 32.4296L30.2023 47.3306C30.2933 48.7844 30.839 51.1468 31.9305 53.2366C33.022 55.3263 34.1135 56.0532 34.4773 56.0532H42.1178C43.8459 56.0532 45.3013 57.5978 45.3013 59.5059C45.3013 61.414 43.9369 63.0495 42.1178 63.0495H34.5683Z" fill="#E23B37"/>
<path d="M130.619 62.9586C128.891 62.9586 127.436 61.414 127.436 59.5059C127.436 57.5979 128.8 55.9624 130.619 55.9624H138.806C140.534 53.9634 142.899 44.2414 143.444 38.6989L118.522 28.25C117.976 28.0683 117.613 27.7048 117.249 27.2505L102.332 7.62473H84.0492C82.321 7.62473 80.8657 6.08011 80.8657 4.17204C80.8657 2.26398 82.2301 0.628494 84.0492 0.628494H103.787C104.697 0.628494 105.606 1.08279 106.243 1.90054L121.615 22.0715L147.992 33.1565C149.175 33.7016 149.993 34.9737 149.993 36.4274C149.993 39.0624 149.175 45.15 147.719 50.6925C145.536 59.2333 142.899 63.0495 139.351 63.0495L130.619 62.9586Z" fill="#E23B37"/>
<path d="M30.4752 35.1554C29.4747 35.1554 28.5651 34.7011 27.9284 33.7925C26.8369 32.2479 27.2008 30.0672 28.5651 28.886L39.8438 19.4366L47.3024 8.44248C48.121 6.98872 51.9412 0.71936 59.4907 0.71936H84.0492V7.7156H59.4907C54.9428 7.7156 52.7598 11.986 52.7598 12.0769C52.6689 12.2586 52.5779 12.3495 52.4869 12.5312L44.5736 24.0704C44.3917 24.343 44.2098 24.5247 43.9369 24.7973L32.2944 34.4285C31.7486 34.8828 31.1119 35.1554 30.4752 35.1554Z" fill="#E23B37"/>
<path d="M30.1114 145.46C28.9289 145.46 27.7465 144.733 27.0188 143.552C26.0183 141.644 26.564 139.281 28.2013 138.1L36.9332 132.285L16.9226 96.6678L5.64383 102.937C3.91564 103.937 1.73266 103.119 0.914044 101.211C0.00446963 99.3027 0.73213 96.8495 2.55128 95.9409L16.7406 88.036C18.3779 87.1274 20.3789 87.7635 21.3795 89.4898L45.0284 131.558C45.5742 132.467 45.6651 133.557 45.4832 134.556C45.3013 135.556 44.6646 136.465 43.846 137.01L32.0215 144.915C31.3848 145.278 30.7481 145.46 30.1114 145.46Z" fill="#E23B37"/>
<path d="M65.6759 100.756C63.6748 100.756 62.1285 99.0301 62.1285 96.8495C62.1285 94.6688 63.7658 92.9425 65.6759 92.9425H94.0546C97.3291 92.9425 99.9668 90.0349 99.9668 86.4005C99.9668 82.7661 97.3291 79.8586 94.0546 79.8586H57.8535C54.3062 79.8586 50.7589 80.9489 47.7573 82.857L24.9269 97.6672C23.1987 98.7575 21.0158 98.1215 20.0152 96.2134C19.0147 94.3054 19.5605 91.943 21.2886 90.8527L44.119 75.9516C48.303 73.2258 53.0328 71.8629 57.8535 71.8629H94.0546C101.24 71.8629 107.062 78.314 107.062 86.3097C107.062 94.3054 101.24 100.756 94.0546 100.756H65.6759Z" fill="#E23B37"/>
<path d="M41.0264 132.285C39.8439 132.285 38.6615 131.558 37.9338 130.377C36.9333 128.469 37.479 126.106 39.1163 124.925L47.5753 119.292C50.304 117.475 53.4875 116.475 56.671 116.475H93.8726C96.6014 116.475 99.2391 115.839 101.695 114.749L143.444 92.4882C146.628 91.0344 148.083 87.1274 146.81 83.8565C146.173 82.221 145.082 80.9489 143.626 80.3129C142.171 79.6769 140.534 79.6769 139.078 80.3129L97.7838 100.393C95.9647 101.302 93.8726 100.393 93.054 98.3941C92.2354 96.3952 93.054 94.0328 94.8732 93.2151L136.259 73.0441C139.533 71.4995 143.081 71.4995 146.264 73.0441C149.448 74.4979 151.994 77.3145 153.359 80.8581C156.088 88.2178 152.904 96.6678 146.264 99.757L104.788 121.927C101.24 123.562 97.6929 124.38 93.9636 124.38H56.853C54.9429 124.38 53.0328 124.925 51.3955 126.106L42.9365 131.74C42.2998 132.103 41.6631 132.285 41.0264 132.285Z" fill="#E23B37"/>
</svg>
