<svg width="72" height="72" viewBox="0 0 72 72" fill="none" xmlns="http://www.w3.org/2000/svg">
<path d="M43.2725 65.5792C42.6788 65.7271 42.0735 65.8585 41.4727 65.9692C39.9021 66.2612 38.8637 67.7718 39.1542 69.3438C39.2977 70.1172 39.7369 70.7614 40.3333 71.1819C40.9479 71.6145 41.7301 71.8098 42.5271 71.6615C43.2427 71.5288 43.9637 71.3726 44.6714 71.196C46.2223 70.81 47.1672 69.2387 46.7803 67.6885C46.3943 66.137 44.8244 65.1928 43.2725 65.5792Z" fill="#D92A2A"/>
<path d="M64.6769 26.7829C64.8797 27.3939 65.2668 27.8927 65.7557 28.2374C66.4806 28.748 67.4292 28.9198 68.3345 28.6205C69.8522 28.1165 70.6745 26.48 70.1724 24.9631C69.9437 24.2715 69.6898 23.5779 69.4195 22.9024C68.8257 21.4182 67.1421 20.6955 65.6571 21.2892C64.1736 21.8826 63.4507 23.5667 64.0448 25.0514C64.272 25.6191 64.4849 26.2019 64.6769 26.7829Z" fill="#D92A2A"/>
<path d="M52.6782 61.4466C52.1676 61.7837 51.6406 62.11 51.1097 62.4156C49.7247 63.2146 49.2503 64.985 50.0489 66.3694C50.2657 66.746 50.5545 67.0538 50.8871 67.2891C51.78 67.9173 52.9927 68.0114 54.0022 67.4298C54.6334 67.0658 55.261 66.6785 55.8691 66.2764C57.2023 65.3956 57.5693 63.5998 56.688 62.266C55.8069 60.9317 54.0118 60.5652 52.6782 61.4466Z" fill="#D92A2A"/>
<path d="M71.9721 34.8669C71.9091 33.2694 70.5635 32.0259 68.9655 32.0883C67.3695 32.1513 66.1251 33.4974 66.1878 35.0943C66.2118 35.7049 66.218 36.3246 66.2039 36.9345C66.1815 37.9364 66.6715 38.8294 67.433 39.3662C67.8866 39.6856 68.4371 39.8789 69.0341 39.8925C70.6316 39.928 71.9556 38.6609 71.991 37.0625C72.0069 36.3337 72.0009 35.5953 71.9721 34.8669Z" fill="#D92A2A"/>
<path d="M64.2051 53.8322C62.924 52.8711 61.1117 53.132 60.1522 54.4107C59.7848 54.9004 59.3979 55.3841 59.0017 55.8498C57.9662 57.0663 58.1125 58.8936 59.329 59.9298C59.3983 59.9886 59.4684 60.0426 59.5412 60.0934C60.7506 60.946 62.4314 60.7501 63.4093 59.6026C63.8824 59.047 64.3436 58.4692 64.7827 57.8843C65.7423 56.6056 65.4826 54.792 64.2051 53.8322Z" fill="#D92A2A"/>
<path d="M68.4595 43.3692C66.9342 42.8909 65.3099 43.74 64.8319 45.2653C64.649 45.848 64.4462 46.4335 64.2274 47.0069C63.7468 48.2692 64.2073 49.6582 65.2628 50.4025C65.4564 50.5385 65.6697 50.6538 65.9014 50.7414C67.3948 51.3113 69.0671 50.562 69.6364 49.068C69.8962 48.3862 70.1374 47.6896 70.3554 46.9969C70.8329 45.4713 69.9845 43.8474 68.4595 43.3692Z" fill="#D92A2A"/>
<path d="M30.6447 65.9952C28.0569 65.5305 25.5745 64.7393 23.2206 63.6358C23.1927 63.6213 23.1678 63.6047 23.1385 63.5914C22.5838 63.3303 22.0301 63.0506 21.4933 62.7584C21.4914 62.7563 21.488 62.7549 21.4851 62.7536C20.5003 62.2113 19.5392 61.6113 18.6054 60.9539C4.98979 51.3627 1.71605 32.4824 11.3079 18.8669C13.3936 15.9074 15.9176 13.4383 18.7316 11.4813C18.7662 11.4572 18.8009 11.4332 18.8352 11.4089C28.751 4.57664 42.2151 4.11619 52.7441 11.137L50.4827 14.4044C49.8541 15.3138 50.2408 15.9765 51.3414 15.8775L61.1643 14.9981C62.2663 14.899 62.9253 13.9458 62.629 12.8816L59.9912 3.37762C59.6959 2.31217 58.9398 2.18464 58.3105 3.09392L56.0439 6.36906C48.317 1.18218 39.0494 -0.795656 29.8508 0.799426C28.9244 0.95977 28.0109 1.15602 27.11 1.38446C27.103 1.3857 27.0975 1.38648 27.0919 1.38771C27.0571 1.39623 27.0218 1.40753 26.9879 1.41697C19.0558 3.45392 12.1352 8.08022 7.19685 14.6809C7.15521 14.7303 7.11234 14.7786 7.07303 14.8323C6.90882 15.0535 6.74584 15.2798 6.58627 15.506C6.32532 15.8769 6.06809 16.257 5.82201 16.6371C5.79121 16.6829 5.76768 16.7295 5.74075 16.7758C1.6656 23.0906 -0.300007 30.3912 0.0370866 37.8237C0.0378605 37.8482 0.0364675 37.8728 0.0370866 37.8978C0.0697435 38.6239 0.127319 39.36 0.205479 40.0846C0.209658 40.1314 0.220027 40.1756 0.227921 40.2224C0.308712 40.951 0.410088 41.6814 0.537155 42.4116C1.82857 49.862 5.34314 56.5663 10.6096 61.7829C10.6218 61.7951 10.6345 61.8084 10.6469 61.8211C10.6512 61.8259 10.656 61.8284 10.6602 61.8329C12.0751 63.2285 13.6142 64.5193 15.2713 65.6864C19.608 68.7422 24.4371 70.7622 29.6232 71.6928C31.1967 71.9756 32.6999 70.9281 32.9822 69.3553C33.2643 67.7814 32.2178 66.277 30.6447 65.9952Z" fill="#D92A2A"/>
<path d="M34.2236 12.8767C32.9293 12.8767 31.8809 13.9261 31.8809 15.2186V38.55L53.2193 49.5808C53.5627 49.7586 53.9305 49.8423 54.2923 49.8423C55.1399 49.8423 55.9585 49.3808 56.3746 48.5755C56.9682 47.4262 56.519 46.0142 55.3697 45.4206L36.5638 35.6982V15.2186C36.5636 13.9261 35.5165 12.8767 34.2236 12.8767Z" fill="#D92A2A"/>
</svg>
