<svg width="112" height="112" viewBox="0 0 112 112" fill="none" xmlns="http://www.w3.org/2000/svg">
<mask id="path-1-inside-1" fill="white">
<path d="M104.16 50.6106L101.259 39.0092C102.052 38.8408 102.647 38.1373 102.647 37.2945V35.4239C102.647 31.3626 99.3429 28.0586 95.2818 28.0586H82.0711V24.2003C82.0711 22.2018 80.4453 20.576 78.4468 20.576H11.1064C9.10787 20.576 7.48212 22.2018 7.48212 24.2003V56C7.48212 56.9684 8.26722 57.7537 9.23584 57.7537C10.2043 57.7537 10.9896 56.9686 10.9896 56V24.2003C10.9896 24.1358 11.0418 24.0835 11.1064 24.0835H78.4466C78.5111 24.0835 78.5634 24.1358 78.5634 24.2003V56.0004C78.5634 56.9688 79.3485 57.7541 80.3171 57.7541C81.2855 57.7541 82.0708 56.9691 82.0708 56.0004V54.0124H102.758C102.76 54.0124 102.761 54.0129 102.762 54.0129C102.764 54.0129 102.766 54.0126 102.767 54.0126C105.313 54.0144 107.474 55.6852 108.217 57.9875H102.764C101.795 57.9875 101.01 58.7726 101.01 59.7413V63.4823C101.01 66.5122 103.475 68.9771 106.505 68.9771H108.492V76.6931H103.907C102.401 72.3437 98.266 69.2107 93.4108 69.2107C88.5557 69.2107 84.4209 72.3437 82.9148 76.6931H82.0704V63.4821C82.0704 62.5137 81.2853 61.7284 80.3167 61.7284C79.3483 61.7284 78.563 62.5135 78.563 63.4821V76.6926H42.1787C40.6724 72.3432 36.5378 69.2103 31.6827 69.2103C26.8275 69.2103 22.6927 72.3432 21.1866 76.6926H11.1064C11.0418 76.6926 10.9896 76.6404 10.9896 76.5758V72.7177H18.5887C19.5571 72.7177 20.3424 71.9326 20.3424 70.964C20.3424 69.9954 19.5573 69.2103 18.5887 69.2103H1.75372C0.785313 69.2103 0 69.9954 0 70.964C0 71.9326 0.785094 72.7177 1.75372 72.7177H7.48234V76.5758C7.48234 78.5743 9.10809 80.2001 11.1066 80.2001H20.5793C20.5789 80.239 20.5763 80.2777 20.5763 80.3169C20.5763 86.441 25.5588 91.4233 31.6827 91.4233C37.8066 91.4233 42.789 86.441 42.789 80.3169C42.789 80.2775 42.7864 80.239 42.786 80.2001H82.3075C82.3071 80.239 82.3045 80.2777 82.3045 80.3169C82.3045 86.441 87.2869 91.4233 93.4108 91.4233C99.5348 91.4233 104.517 86.441 104.517 80.3169C104.517 80.2775 104.515 80.239 104.514 80.2001H110.246C111.214 80.2001 112 79.415 112 78.4464V59.7408C112 55.1226 108.593 51.2855 104.16 50.6106ZM82.0711 31.5658H95.2818C97.4092 31.5658 99.1399 33.2966 99.1399 35.4239V35.5407H82.0711V31.5658ZM82.0711 50.5052V39.048H97.6537L100.518 50.5052H82.0711ZM31.6827 87.9165C27.4925 87.9165 24.0835 84.5077 24.0835 80.3173C24.0835 76.127 27.4925 72.7182 31.6827 72.7182C35.8728 72.7182 39.2818 76.127 39.2818 80.3173C39.2818 84.5077 35.8728 87.9165 31.6827 87.9165ZM93.4113 87.9165C89.2211 87.9165 85.8121 84.5077 85.8121 80.3173C85.8121 76.127 89.2211 72.7182 93.4113 72.7182C97.6014 72.7182 101.01 76.127 101.01 80.3173C101.01 84.5077 97.6014 87.9165 93.4113 87.9165ZM108.493 65.4697H106.505C105.409 65.4697 104.518 64.5781 104.518 63.4821V61.4946H108.493V65.4697H108.493Z"/>
</mask>
<path d="M104.16 50.6106L101.259 39.0092C102.052 38.8408 102.647 38.1373 102.647 37.2945V35.4239C102.647 31.3626 99.3429 28.0586 95.2818 28.0586H82.0711V24.2003C82.0711 22.2018 80.4453 20.576 78.4468 20.576H11.1064C9.10787 20.576 7.48212 22.2018 7.48212 24.2003V56C7.48212 56.9684 8.26722 57.7537 9.23584 57.7537C10.2043 57.7537 10.9896 56.9686 10.9896 56V24.2003C10.9896 24.1358 11.0418 24.0835 11.1064 24.0835H78.4466C78.5111 24.0835 78.5634 24.1358 78.5634 24.2003V56.0004C78.5634 56.9688 79.3485 57.7541 80.3171 57.7541C81.2855 57.7541 82.0708 56.9691 82.0708 56.0004V54.0124H102.758C102.76 54.0124 102.761 54.0129 102.762 54.0129C102.764 54.0129 102.766 54.0126 102.767 54.0126C105.313 54.0144 107.474 55.6852 108.217 57.9875H102.764C101.795 57.9875 101.01 58.7726 101.01 59.7413V63.4823C101.01 66.5122 103.475 68.9771 106.505 68.9771H108.492V76.6931H103.907C102.401 72.3437 98.266 69.2107 93.4108 69.2107C88.5557 69.2107 84.4209 72.3437 82.9148 76.6931H82.0704V63.4821C82.0704 62.5137 81.2853 61.7284 80.3167 61.7284C79.3483 61.7284 78.563 62.5135 78.563 63.4821V76.6926H42.1787C40.6724 72.3432 36.5378 69.2103 31.6827 69.2103C26.8275 69.2103 22.6927 72.3432 21.1866 76.6926H11.1064C11.0418 76.6926 10.9896 76.6404 10.9896 76.5758V72.7177H18.5887C19.5571 72.7177 20.3424 71.9326 20.3424 70.964C20.3424 69.9954 19.5573 69.2103 18.5887 69.2103H1.75372C0.785313 69.2103 0 69.9954 0 70.964C0 71.9326 0.785094 72.7177 1.75372 72.7177H7.48234V76.5758C7.48234 78.5743 9.10809 80.2001 11.1066 80.2001H20.5793C20.5789 80.239 20.5763 80.2777 20.5763 80.3169C20.5763 86.441 25.5588 91.4233 31.6827 91.4233C37.8066 91.4233 42.789 86.441 42.789 80.3169C42.789 80.2775 42.7864 80.239 42.786 80.2001H82.3075C82.3071 80.239 82.3045 80.2777 82.3045 80.3169C82.3045 86.441 87.2869 91.4233 93.4108 91.4233C99.5348 91.4233 104.517 86.441 104.517 80.3169C104.517 80.2775 104.515 80.239 104.514 80.2001H110.246C111.214 80.2001 112 79.415 112 78.4464V59.7408C112 55.1226 108.593 51.2855 104.16 50.6106ZM82.0711 31.5658H95.2818C97.4092 31.5658 99.1399 33.2966 99.1399 35.4239V35.5407H82.0711V31.5658ZM82.0711 50.5052V39.048H97.6537L100.518 50.5052H82.0711ZM31.6827 87.9165C27.4925 87.9165 24.0835 84.5077 24.0835 80.3173C24.0835 76.127 27.4925 72.7182 31.6827 72.7182C35.8728 72.7182 39.2818 76.127 39.2818 80.3173C39.2818 84.5077 35.8728 87.9165 31.6827 87.9165ZM93.4113 87.9165C89.2211 87.9165 85.8121 84.5077 85.8121 80.3173C85.8121 76.127 89.2211 72.7182 93.4113 72.7182C97.6014 72.7182 101.01 76.127 101.01 80.3173C101.01 84.5077 97.6014 87.9165 93.4113 87.9165ZM108.493 65.4697H106.505C105.409 65.4697 104.518 64.5781 104.518 63.4821V61.4946H108.493V65.4697H108.493Z" fill="#D92A2A"/>
<path d="M104.16 50.6106L88.6373 54.4913L91.2208 64.8253L101.752 66.4284L104.16 50.6106ZM101.259 39.0092L97.9347 23.3584L81.7153 26.8037L85.7369 42.8899L101.259 39.0092ZM82.0711 28.0586H66.0711V44.0586H82.0711V28.0586ZM82.0708 54.0124V38.0124H66.0708V54.0124H82.0708ZM102.767 54.0126L102.778 38.0126H102.767V54.0126ZM108.217 57.9875V73.9875H130.188L123.445 53.077L108.217 57.9875ZM108.492 68.9771H124.492V52.9771H108.492V68.9771ZM108.492 76.6931V92.6931H124.492V76.6931H108.492ZM103.907 76.6931L88.7879 81.9292L92.5158 92.6931H103.907V76.6931ZM82.9148 76.6931V92.6931H94.3065L98.034 81.9285L82.9148 76.6931ZM82.0704 76.6931H66.0704V92.6931H82.0704V76.6931ZM78.563 76.6926V92.6926H94.563V76.6926H78.563ZM42.1787 76.6926L27.0597 81.9287L30.7876 92.6926H42.1787V76.6926ZM21.1866 76.6926V92.6926H32.5783L36.3058 81.9281L21.1866 76.6926ZM10.9896 72.7177V56.7177H-5.01044V72.7177H10.9896ZM7.48234 72.7177H23.4823V56.7177H7.48234V72.7177ZM20.5793 80.2001L36.5783 80.3798L36.7601 64.2001H20.5793V80.2001ZM42.786 80.2001V64.2001H26.6052L26.787 80.3798L42.786 80.2001ZM82.3075 80.2001L98.3065 80.3798L98.4883 64.2001H82.3075V80.2001ZM104.514 80.2001V64.2001H88.3334L88.5152 80.3798L104.514 80.2001ZM112 59.7408L95.9998 59.7401V59.7408H112ZM82.0711 31.5658V15.5658H66.0711V31.5658H82.0711ZM99.1399 35.5407V51.5407H115.14V35.5407H99.1399ZM82.0711 35.5407H66.0711V51.5407H82.0711V35.5407ZM82.0711 50.5052H66.0711V66.5052H82.0711V50.5052ZM82.0711 39.048V23.048H66.0711V39.048H82.0711ZM97.6537 39.048L113.176 35.1674L110.146 23.048H97.6537V39.048ZM100.518 50.5052V66.5052H121.01L116.04 46.6246L100.518 50.5052ZM104.518 61.4946V45.4946H88.5177V61.4946H104.518ZM108.493 61.4946H124.493V45.4946H108.493V61.4946ZM108.493 65.4697H92.4926V81.4697H108.493V65.4697ZM119.682 46.73L116.781 35.1286L85.7369 42.8899L88.6373 54.4913L119.682 46.73ZM104.584 54.6601C112.604 52.9565 118.647 45.8585 118.647 37.2945H86.6471C86.6471 30.4161 91.5007 24.7251 97.9347 23.3584L104.584 54.6601ZM118.647 37.2945V35.4239H86.6471V37.2945H118.647ZM118.647 35.4239C118.647 22.5258 108.179 12.0586 95.2818 12.0586V44.0586C90.5067 44.0586 86.6471 40.1995 86.6471 35.4239H118.647ZM95.2818 12.0586H82.0711V44.0586H95.2818V12.0586ZM98.0711 28.0586V24.2003H66.0711V28.0586H98.0711ZM98.0711 24.2003C98.0711 13.3653 89.2819 4.57605 78.4468 4.57605V36.576C71.6087 36.576 66.0711 31.0383 66.0711 24.2003H98.0711ZM78.4468 4.57605H11.1064V36.576H78.4468V4.57605ZM11.1064 4.57605C0.271319 4.57605 -8.51788 13.3652 -8.51788 24.2003H23.4821C23.4821 31.0384 17.9444 36.576 11.1064 36.576V4.57605ZM-8.51788 24.2003V56H23.4821V24.2003H-8.51788ZM-8.51788 56C-8.51788 65.8037 -0.570627 73.7537 9.23584 73.7537V41.7537C17.1051 41.7537 23.4821 48.1331 23.4821 56H-8.51788ZM9.23584 73.7537C19.0395 73.7537 26.9896 65.8065 26.9896 56H-5.01044C-5.01044 48.1308 1.36899 41.7537 9.23584 41.7537V73.7537ZM26.9896 56V24.2003H-5.01044V56H26.9896ZM26.9896 24.2003C26.9896 32.9725 19.8783 40.0835 11.1064 40.0835V8.08349C2.20544 8.08349 -5.01044 15.2991 -5.01044 24.2003H26.9896ZM11.1064 40.0835H78.4466V8.08349H11.1064V40.0835ZM78.4466 40.0835C69.6746 40.0835 62.5634 32.9723 62.5634 24.2003H94.5634C94.5634 15.2992 87.3477 8.08349 78.4466 8.08349V40.0835ZM62.5634 24.2003V56.0004H94.5634V24.2003H62.5634ZM62.5634 56.0004C62.5634 65.8041 70.5106 73.7541 80.3171 73.7541V41.7541C88.1864 41.7541 94.5634 48.1336 94.5634 56.0004H62.5634ZM80.3171 73.7541C90.1208 73.7541 98.0708 65.8069 98.0708 56.0004H66.0708C66.0708 48.1312 72.4503 41.7541 80.3171 41.7541V73.7541ZM98.0708 56.0004V54.0124H66.0708V56.0004H98.0708ZM82.0708 70.0124H102.758V38.0124H82.0708V70.0124ZM102.758 70.0124C102.591 70.0124 102.43 70.0098 102.275 70.0051C102.121 70.0005 101.973 69.9938 101.833 69.9856C101.553 69.9694 101.305 69.9477 101.099 69.9262C100.996 69.9154 100.903 69.9047 100.822 69.8948C100.741 69.8849 100.67 69.8757 100.613 69.8679C100.556 69.8601 100.508 69.8534 100.476 69.8488C100.46 69.8464 100.446 69.8444 100.436 69.843C100.427 69.8416 100.419 69.8405 100.416 69.84C100.415 69.8399 100.414 69.8398 100.414 69.8397C100.414 69.8396 100.413 69.8396 100.413 69.8396C100.413 69.8395 100.414 69.8397 100.415 69.8399C100.418 69.8403 100.426 69.8414 100.435 69.8428C100.445 69.8442 100.458 69.8462 100.475 69.8486C100.491 69.851 100.512 69.8539 100.535 69.8572C100.581 69.8636 100.643 69.8721 100.716 69.8816C100.79 69.8911 100.878 69.9019 100.979 69.9132C101.079 69.9244 101.193 69.9363 101.319 69.9477C101.446 69.9591 101.584 69.9702 101.735 69.9798C102.036 69.9992 102.381 70.0129 102.762 70.0129V38.0129C103.144 38.0129 103.489 38.0265 103.789 38.0459C103.939 38.0555 104.078 38.0666 104.204 38.078C104.33 38.0893 104.444 38.1012 104.544 38.1124C104.644 38.1236 104.732 38.1345 104.806 38.1439C104.879 38.1534 104.941 38.1618 104.987 38.1683C105.01 38.1716 105.03 38.1745 105.046 38.1768C105.063 38.1792 105.076 38.1812 105.086 38.1826C105.095 38.184 105.103 38.185 105.105 38.1854C105.106 38.1856 105.108 38.1858 105.107 38.1857C105.107 38.1857 105.107 38.1857 105.106 38.1856C105.106 38.1855 105.105 38.1854 105.104 38.1853C105.101 38.1848 105.094 38.1837 105.084 38.1823C105.074 38.1808 105.06 38.1788 105.044 38.1764C105.011 38.1717 104.964 38.165 104.906 38.1572C104.849 38.1494 104.778 38.1402 104.697 38.1302C104.615 38.1203 104.522 38.1096 104.419 38.0988C104.212 38.0773 103.965 38.0555 103.684 38.0392C103.544 38.0311 103.396 38.0244 103.241 38.0197C103.086 38.015 102.925 38.0124 102.758 38.0124V70.0124ZM102.762 70.0129C102.93 70.0129 103.083 70.0102 103.217 70.0064C103.35 70.0026 103.467 69.9977 103.562 69.9929C103.609 69.9906 103.652 69.9882 103.689 69.9861C103.726 69.9839 103.758 69.9819 103.784 69.9803C103.81 69.9786 103.831 69.9772 103.846 69.9762C103.853 69.9757 103.859 69.9753 103.864 69.975C103.868 69.9747 103.872 69.9744 103.873 69.9743C103.874 69.9743 103.874 69.9743 103.874 69.9743C103.874 69.9742 103.875 69.9742 103.875 69.9742C103.875 69.9742 103.874 69.9742 103.874 69.9743C103.873 69.9744 103.869 69.9746 103.865 69.9749C103.857 69.9754 103.841 69.9765 103.821 69.9779C103.8 69.9792 103.772 69.981 103.739 69.9831C103.706 69.9851 103.666 69.9874 103.62 69.9899C103.575 69.9923 103.522 69.9949 103.463 69.9975C103.405 70 103.34 70.0025 103.269 70.0048C103.127 70.0092 102.958 70.0126 102.767 70.0126V38.0126C102.576 38.0126 102.407 38.0161 102.265 38.0205C102.193 38.0228 102.128 38.0253 102.069 38.0279C102.011 38.0304 101.958 38.033 101.912 38.0355C101.866 38.038 101.826 38.0403 101.792 38.0423C101.759 38.0444 101.731 38.0462 101.71 38.0475C101.69 38.0489 101.673 38.05 101.665 38.0506C101.661 38.0509 101.658 38.0511 101.656 38.0512C101.656 38.0512 101.655 38.0513 101.655 38.0513C101.655 38.0513 101.655 38.0513 101.655 38.0513C101.655 38.0513 101.656 38.0513 101.656 38.0512C101.656 38.0512 101.656 38.0512 101.657 38.0512C101.658 38.0511 101.661 38.0509 101.666 38.0506C101.67 38.0503 101.676 38.0498 101.683 38.0494C101.698 38.0484 101.719 38.047 101.745 38.0453C101.77 38.0437 101.802 38.0417 101.839 38.0396C101.876 38.0374 101.919 38.0351 101.966 38.0327C102.06 38.028 102.176 38.0231 102.309 38.0193C102.443 38.0155 102.595 38.0129 102.762 38.0129V70.0129ZM102.756 70.0126C98.1394 70.0095 94.3077 66.9879 92.9889 62.8981L123.445 53.077C120.641 44.3825 112.486 38.0193 102.778 38.0126L102.756 70.0126ZM108.217 41.9876H102.764V73.9875H108.217V41.9876ZM102.764 41.9876C92.9601 41.9876 85.01 49.9348 85.01 59.7413H117.01C117.01 67.6105 110.631 73.9875 102.764 73.9875V41.9876ZM85.01 59.7413V63.4823H117.01V59.7413H85.01ZM85.01 63.4823C85.01 75.3488 94.6383 84.9771 106.505 84.9771V52.9771C112.311 52.9771 117.01 57.6757 117.01 63.4823H85.01ZM106.505 84.9771H108.492V52.9771H106.505V84.9771ZM92.4923 68.9771V76.6931H124.492V68.9771H92.4923ZM108.492 60.6931H103.907V92.6931H108.492V60.6931ZM119.026 71.457C115.366 60.888 105.318 53.2107 93.4108 53.2107V85.2107C91.2142 85.2107 89.4356 83.7993 88.7879 81.9292L119.026 71.457ZM93.4108 53.2107C81.5044 53.2107 71.4557 60.8876 67.7956 71.4577L98.034 81.9285C97.386 83.7997 95.6069 85.2107 93.4108 85.2107V53.2107ZM82.9148 60.6931H82.0704V92.6931H82.9148V60.6931ZM98.0704 76.6931V63.4821H66.0704V76.6931H98.0704ZM98.0704 63.4821C98.0704 53.6785 90.1232 45.7284 80.3167 45.7284V77.7284C72.4475 77.7284 66.0704 71.349 66.0704 63.4821H98.0704ZM80.3167 45.7284C70.513 45.7284 62.563 53.6756 62.563 63.4821H94.563C94.563 71.3513 88.1835 77.7284 80.3167 77.7284V45.7284ZM62.563 63.4821V76.6926H94.563V63.4821H62.563ZM78.563 60.6926H42.1787V92.6926H78.563V60.6926ZM57.2977 71.4566C53.6374 60.8876 43.5896 53.2103 31.6827 53.2103V85.2103C29.486 85.2103 27.7074 83.7989 27.0597 81.9287L57.2977 71.4566ZM31.6827 53.2103C19.7762 53.2103 9.72753 60.8872 6.06739 71.4572L36.3058 81.9281C35.6578 83.7993 33.8788 85.2103 31.6827 85.2103V53.2103ZM21.1866 60.6926H11.1064V92.6926H21.1866V60.6926ZM11.1064 60.6926C19.8788 60.6926 26.9896 67.8043 26.9896 76.5758H-5.01044C-5.01044 85.4765 2.20484 92.6926 11.1064 92.6926V60.6926ZM26.9896 76.5758V72.7177H-5.01044V76.5758H26.9896ZM10.9896 88.7177H18.5887V56.7177H10.9896V88.7177ZM18.5887 88.7177C28.3924 88.7177 36.3424 80.7705 36.3424 70.964H4.34244C4.34244 63.0948 10.7219 56.7177 18.5887 56.7177V88.7177ZM36.3424 70.964C36.3424 61.1588 28.3939 53.2103 18.5887 53.2103V85.2103C10.7208 85.2103 4.34244 78.832 4.34244 70.964H36.3424ZM18.5887 53.2103H1.75372V85.2103H18.5887V53.2103ZM1.75372 53.2103C-8.04994 53.2103 -16 61.1575 -16 70.964H16C16 78.8333 9.62056 85.2103 1.75372 85.2103V53.2103ZM-16 70.964C-16 80.7692 -8.05146 88.7177 1.75372 88.7177V56.7177C9.62164 56.7177 16 63.0961 16 70.964H-16ZM1.75372 88.7177H7.48234V56.7177H1.75372V88.7177ZM-8.51766 72.7177V76.5758H23.4823V72.7177H-8.51766ZM-8.51766 76.5758C-8.51766 87.4109 0.271523 96.2001 11.1066 96.2001V64.2001C17.9447 64.2001 23.4823 69.7378 23.4823 76.5758H-8.51766ZM11.1066 96.2001H20.5793V64.2001H11.1066V96.2001ZM4.58035 80.0203C4.58189 79.8839 4.58498 79.777 4.58669 79.723C4.58757 79.6952 4.58832 79.6744 4.58857 79.6673C4.58871 79.6636 4.58879 79.6612 4.58874 79.6627C4.58861 79.6664 4.58879 79.6614 4.58861 79.6663C4.58854 79.668 4.58845 79.6707 4.58834 79.6737C4.5877 79.6912 4.58468 79.7725 4.58209 79.8724C4.57937 79.977 4.57628 80.1311 4.57628 80.3169H36.5763C36.5763 80.4011 36.5756 80.4762 36.5746 80.5402C36.5737 80.6042 36.5724 80.6592 36.5713 80.7028C36.5702 80.746 36.5691 80.7811 36.5683 80.8038C36.5676 80.8258 36.567 80.8418 36.567 80.8431C36.567 80.8431 36.5669 80.8447 36.5671 80.8395C36.5672 80.8361 36.5675 80.8289 36.5678 80.8204C36.5684 80.8036 36.5695 80.773 36.5707 80.7355C36.5719 80.6975 36.5733 80.6473 36.5747 80.5886C36.5761 80.5297 36.5774 80.4593 36.5783 80.3798L4.58035 80.0203ZM4.57628 80.3169C4.57628 95.2778 16.7224 107.423 31.6827 107.423V75.4233C34.3951 75.4233 36.5763 77.6042 36.5763 80.3169H4.57628ZM31.6827 107.423C46.6429 107.423 58.789 95.2778 58.789 80.3169H26.789C26.789 77.6043 28.9702 75.4233 31.6827 75.4233V107.423ZM58.789 80.3169C58.789 80.1319 58.786 79.9782 58.7832 79.873C58.7806 79.7726 58.7776 79.6911 58.777 79.6731C58.7768 79.6701 58.7767 79.6674 58.7767 79.6656C58.7766 79.6647 58.7766 79.6639 58.7766 79.6633C58.7766 79.6627 58.7766 79.6623 58.7766 79.662C58.7765 79.6605 58.7766 79.6628 58.7767 79.6665C58.777 79.6735 58.7777 79.6945 58.7786 79.7223C58.7803 79.7766 58.7834 79.8837 58.785 80.0203L26.787 80.3798C26.7879 80.4593 26.7892 80.5298 26.7906 80.5889C26.792 80.6477 26.7935 80.698 26.7947 80.7361C26.7959 80.7737 26.7969 80.8043 26.7975 80.8211C26.7979 80.8296 26.7981 80.8368 26.7982 80.8401C26.7984 80.8451 26.7984 80.8437 26.7984 80.8435C26.7983 80.8421 26.7977 80.8258 26.797 80.8037C26.7962 80.7807 26.7951 80.7454 26.794 80.702C26.7928 80.6582 26.7916 80.6032 26.7907 80.5393C26.7897 80.4753 26.789 80.4006 26.789 80.3169H58.789ZM42.786 96.2001H82.3075V64.2001H42.786V96.2001ZM66.3085 80.0203C66.3101 79.8838 66.3132 79.7768 66.3149 79.7227C66.3158 79.6949 66.3165 79.6741 66.3168 79.667C66.3169 79.6633 66.317 79.6609 66.3169 79.6624C66.3168 79.6659 66.317 79.6611 66.3168 79.6659C66.3167 79.6677 66.3166 79.6703 66.3165 79.6734C66.3159 79.6909 66.3129 79.7722 66.3103 79.8722C66.3076 79.9768 66.3045 80.131 66.3045 80.3169H98.3045C98.3045 80.4011 98.3038 80.4763 98.3028 80.5404C98.3019 80.6044 98.3006 80.6594 98.2995 80.703C98.2984 80.7463 98.2973 80.7814 98.2965 80.8042C98.2958 80.8261 98.2952 80.8422 98.2951 80.8435C98.2951 80.8435 98.2951 80.845 98.2953 80.8398C98.2954 80.8365 98.2957 80.8292 98.296 80.8207C98.2966 80.8039 98.2977 80.7733 98.2989 80.7358C98.3001 80.6977 98.3015 80.6475 98.3029 80.5887C98.3043 80.5298 98.3056 80.4594 98.3065 80.3798L66.3085 80.0203ZM66.3045 80.3169C66.3045 95.2778 78.4506 107.423 93.4108 107.423V75.4233C96.1233 75.4233 98.3045 77.6042 98.3045 80.3169H66.3045ZM93.4108 107.423C108.371 107.423 120.517 95.2778 120.517 80.3169H88.5172C88.5172 77.6042 90.6984 75.4233 93.4108 75.4233V107.423ZM120.517 80.3169C120.517 80.1317 120.514 79.9778 120.511 79.8725C120.509 79.772 120.506 79.6904 120.505 79.6725C120.505 79.6694 120.505 79.6667 120.505 79.6649C120.504 79.6527 120.505 79.6722 120.505 79.6613C120.505 79.6598 120.505 79.6622 120.505 79.6659C120.505 79.6729 120.506 79.6939 120.507 79.7218C120.508 79.7762 120.512 79.8835 120.513 80.0203L88.5152 80.3798C88.5161 80.4595 88.5174 80.53 88.5188 80.5892C88.5202 80.6481 88.5217 80.6984 88.5229 80.7366C88.5241 80.7743 88.5252 80.8049 88.5258 80.8217C88.5261 80.8302 88.5263 80.8374 88.5265 80.8408C88.5266 80.8458 88.5266 80.8443 88.5266 80.8442C88.5265 80.8427 88.5259 80.8265 88.5252 80.8043C88.5244 80.7813 88.5233 80.746 88.5222 80.7025C88.521 80.6587 88.5198 80.6035 88.5189 80.5396C88.5179 80.4755 88.5172 80.4007 88.5172 80.3169H120.517ZM104.514 96.2001H110.246V64.2001H104.514V96.2001ZM110.246 96.2001C120.05 96.2001 128 88.2528 128 78.4464H95.9998C95.9998 70.5772 102.379 64.2001 110.246 64.2001V96.2001ZM128 78.4464V59.7408H95.9998V78.4464H128ZM128 59.7416C128 47.0855 118.687 36.6379 106.568 34.7929L101.752 66.4284C98.4977 65.9331 95.9996 63.1597 95.9998 59.7401L128 59.7416ZM82.0711 47.5658H95.2818V15.5658H82.0711V47.5658ZM95.2818 47.5658C88.5726 47.5658 83.1399 42.1331 83.1399 35.4239H115.14C115.14 24.46 106.246 15.5658 95.2818 15.5658V47.5658ZM83.1399 35.4239V35.5407H115.14V35.4239H83.1399ZM99.1399 19.5407H82.0711V51.5407H99.1399V19.5407ZM98.0711 35.5407V31.5658H66.0711V35.5407H98.0711ZM98.0711 50.5052V39.048H66.0711V50.5052H98.0711ZM82.0711 55.048H97.6537V23.048H82.0711V55.048ZM82.1314 42.9285L84.9958 54.3858L116.04 46.6246L113.176 35.1674L82.1314 42.9285ZM100.518 34.5052H82.0711V66.5052H100.518V34.5052ZM31.6827 71.9165C36.3287 71.9165 40.0835 75.6708 40.0835 80.3173H8.0835C8.0835 93.3446 18.6563 103.916 31.6827 103.916V71.9165ZM40.0835 80.3173C40.0835 84.9638 36.3288 88.7182 31.6827 88.7182V56.7182C18.6562 56.7182 8.0835 67.2901 8.0835 80.3173H40.0835ZM31.6827 88.7182C27.0365 88.7182 23.2818 84.9638 23.2818 80.3173H55.2818C55.2818 67.2901 44.7091 56.7182 31.6827 56.7182V88.7182ZM23.2818 80.3173C23.2818 75.6708 27.0366 71.9165 31.6827 71.9165V103.916C44.709 103.916 55.2818 93.3446 55.2818 80.3173H23.2818ZM93.4113 71.9165C98.0574 71.9165 101.812 75.6708 101.812 80.3173H69.8121C69.8121 93.3446 80.3849 103.916 93.4113 103.916V71.9165ZM101.812 80.3173C101.812 84.9638 98.0574 88.7182 93.4113 88.7182V56.7182C80.3849 56.7182 69.8121 67.2901 69.8121 80.3173H101.812ZM93.4113 88.7182C88.7652 88.7182 85.0104 84.9638 85.0104 80.3173H117.01C117.01 67.2901 106.438 56.7182 93.4113 56.7182V88.7182ZM85.0104 80.3173C85.0104 75.6708 88.7652 71.9165 93.4113 71.9165V103.916C106.438 103.916 117.01 93.3446 117.01 80.3173H85.0104ZM108.493 49.4697H106.505V81.4697H108.493V49.4697ZM106.505 49.4697C114.246 49.4697 120.518 55.7415 120.518 63.4821H88.5177C88.5177 73.4146 96.5727 81.4697 106.505 81.4697V49.4697ZM120.518 63.4821V61.4946H88.5177V63.4821H120.518ZM104.518 77.4946H108.493V45.4946H104.518V77.4946ZM92.4926 61.4946V65.4697H124.493V61.4946H92.4926ZM108.493 81.4697H108.493V49.4697H108.493V81.4697Z" fill="#D92A2A" mask="url(#path-1-inside-1)"/>
<path d="M31.6828 76.6931C29.6843 76.6931 28.0586 78.3189 28.0586 80.3174C28.0586 82.3159 29.6843 83.9416 31.6828 83.9416C33.6813 83.9416 35.3071 82.3159 35.3071 80.3174C35.3071 78.3189 33.6813 76.6931 31.6828 76.6931Z" fill="#D92A2A" stroke="#D92A2A" stroke-width="16"/>
<path d="M93.4114 76.6931C91.4129 76.6931 89.7871 78.3189 89.7871 80.3174C89.7871 82.3159 91.4129 83.9416 93.4114 83.9416C95.4099 83.9416 97.0356 82.3159 97.0356 80.3174C97.0356 78.3189 95.4099 76.6931 93.4114 76.6931Z" fill="#D92A2A" stroke="#D92A2A" stroke-width="16"/>
<mask id="path-5-inside-2" fill="white">
<path d="M72.8351 69.2109H46.6473C45.6789 69.2109 44.8936 69.996 44.8936 70.9647C44.8936 71.9333 45.6786 72.7184 46.6473 72.7184H72.8351C73.8035 72.7184 74.5888 71.9333 74.5888 70.9647C74.5888 69.996 73.8038 69.2109 72.8351 69.2109Z"/>
</mask>
<path d="M72.8351 69.2109H46.6473C45.6789 69.2109 44.8936 69.996 44.8936 70.9647C44.8936 71.9333 45.6786 72.7184 46.6473 72.7184H72.8351C73.8035 72.7184 74.5888 71.9333 74.5888 70.9647C74.5888 69.996 73.8038 69.2109 72.8351 69.2109Z" fill="#D92A2A"/>
<path d="M72.8351 53.2109H46.6473V85.2109H72.8351V53.2109ZM46.6473 53.2109C36.8436 53.2109 28.8936 61.1582 28.8936 70.9647H60.8936C60.8936 78.8339 54.5141 85.2109 46.6473 85.2109V53.2109ZM28.8936 70.9647C28.8936 80.7698 36.8421 88.7184 46.6473 88.7184V56.7184C54.5152 56.7184 60.8936 63.0967 60.8936 70.9647H28.8936ZM46.6473 88.7184H72.8351V56.7184H46.6473V88.7184ZM72.8351 88.7184C82.6388 88.7184 90.5888 80.7711 90.5888 70.9647H58.5888C58.5888 63.0954 64.9683 56.7184 72.8351 56.7184V88.7184ZM90.5888 70.9647C90.5888 61.1595 82.6403 53.2109 72.8351 53.2109V85.2109C64.9672 85.2109 58.5888 78.8326 58.5888 70.9647H90.5888Z" fill="#D92A2A" mask="url(#path-5-inside-2)"/>
<mask id="path-7-inside-3" fill="white">
<path d="M27.9417 61.7286H5.49493C4.52652 61.7286 3.74121 62.5137 3.74121 63.4824C3.74121 64.451 4.5263 65.2361 5.49493 65.2361H27.9417C28.9101 65.2361 29.6955 64.451 29.6955 63.4824C29.6955 62.5137 28.9101 61.7286 27.9417 61.7286Z"/>
</mask>
<path d="M27.9417 61.7286H5.49493C4.52652 61.7286 3.74121 62.5137 3.74121 63.4824C3.74121 64.451 4.5263 65.2361 5.49493 65.2361H27.9417C28.9101 65.2361 29.6955 64.451 29.6955 63.4824C29.6955 62.5137 28.9101 61.7286 27.9417 61.7286Z" fill="#D92A2A"/>
<path d="M27.9417 45.7286H5.49493V77.7286H27.9417V45.7286ZM5.49493 45.7286C-4.30872 45.7286 -12.2588 53.6759 -12.2588 63.4824H19.7412C19.7412 71.3516 13.3618 77.7286 5.49493 77.7286V45.7286ZM-12.2588 63.4824C-12.2588 73.2875 -4.31024 81.2361 5.49493 81.2361V49.2361C13.3628 49.2361 19.7412 55.6144 19.7412 63.4824H-12.2588ZM5.49493 81.2361H27.9417V49.2361H5.49493V81.2361ZM27.9417 81.2361C37.7454 81.2361 45.6955 73.2888 45.6955 63.4824H13.6955C13.6955 55.6131 20.0749 49.2361 27.9417 49.2361V81.2361ZM45.6955 63.4824C45.6955 53.6759 37.7454 45.7286 27.9417 45.7286V77.7286C20.0749 77.7286 13.6955 71.3516 13.6955 63.4824H45.6955Z" fill="#D92A2A" mask="url(#path-7-inside-3)"/>
<mask id="path-9-inside-4" fill="white">
<path d="M60.9813 37.9247C60.2966 37.2401 59.1861 37.2401 58.5014 37.925L42.9062 53.5199L34.7935 45.4071C34.1085 44.7222 32.9982 44.7222 32.3135 45.4071C31.6286 46.092 31.6286 47.2022 32.3135 47.8871L41.6664 57.2399C42.0087 57.5825 42.4576 57.7536 42.9062 57.7536C43.3549 57.7536 43.804 57.5825 44.1461 57.2399L60.9811 40.4049C61.666 39.7198 61.666 38.6096 60.9813 37.9247Z"/>
</mask>
<path d="M60.9813 37.9247C60.2966 37.2401 59.1861 37.2401 58.5014 37.925L42.9062 53.5199L34.7935 45.4071C34.1085 44.7222 32.9982 44.7222 32.3135 45.4071C31.6286 46.092 31.6286 47.2022 32.3135 47.8871L41.6664 57.2399C42.0087 57.5825 42.4576 57.7536 42.9062 57.7536C43.3549 57.7536 43.804 57.5825 44.1461 57.2399L60.9811 40.4049C61.666 39.7198 61.666 38.6096 60.9813 37.9247Z" fill="#D92A2A"/>
<path d="M60.9813 37.9247L72.2969 26.6128L72.295 26.611L60.9813 37.9247ZM58.5014 37.925L69.815 49.2388L69.8169 49.2369L58.5014 37.925ZM42.9062 53.5199L31.5925 64.8336L42.9062 76.1472L54.2199 64.8337L42.9062 53.5199ZM34.7935 45.4071L46.1072 34.0934L46.1072 34.0934L34.7935 45.4071ZM32.3135 45.4071L43.6272 56.7208L43.629 56.719L32.3135 45.4071ZM32.3135 47.8871L43.6272 36.5733V36.5733L32.3135 47.8871ZM41.6664 57.2399L52.9837 45.9298L52.9801 45.9262L41.6664 57.2399ZM44.1461 57.2399L32.8324 45.9262L32.8252 45.9335L44.1461 57.2399ZM60.9811 40.4049L72.2948 51.7186L72.2966 51.7168L60.9811 40.4049ZM72.295 26.611C65.3616 19.6776 54.119 19.6777 47.1859 26.6131L69.8169 49.2369C64.2531 54.8024 55.2317 54.8025 49.6676 49.2385L72.295 26.611ZM47.1877 26.6112L31.5926 42.2061L54.2199 64.8337L69.815 49.2388L47.1877 26.6112ZM54.2199 42.2062L46.1072 34.0934L23.4797 56.7208L31.5925 64.8336L54.2199 42.2062ZM46.1072 34.0934C39.1749 27.1611 27.9325 27.1585 20.998 34.0952L43.629 56.719C38.0639 62.2859 29.0422 62.2833 23.4797 56.7208L46.1072 34.0934ZM20.9998 34.0934C14.0665 41.0267 14.0665 52.2675 20.9998 59.2008L43.6272 36.5733C49.1907 42.1368 49.1907 51.1573 43.6272 56.7208L20.9998 34.0934ZM20.9998 59.2008L30.3527 68.5536L52.9801 45.9262L43.6272 36.5733L20.9998 59.2008ZM30.349 68.55C33.8164 72.0196 38.3912 73.7536 42.9062 73.7536V41.7536C46.524 41.7536 50.2011 43.1454 52.9837 45.9298L30.349 68.55ZM42.9062 73.7536C47.4182 73.7536 51.9964 72.0215 55.467 68.5464L32.8252 45.9335C35.6116 43.1435 39.2915 41.7536 42.9062 41.7536V73.7536ZM55.4598 68.5536L72.2948 51.7186L49.6674 29.0912L32.8324 45.9262L55.4598 68.5536ZM72.2966 51.7168C79.2262 44.7851 79.2288 33.547 72.2969 26.6128L49.6658 49.2366C44.1032 43.6723 44.1058 34.6546 49.6656 29.093L72.2966 51.7168Z" fill="#D92A2A" mask="url(#path-9-inside-4)"/>
</svg>
