<svg width="86" height="86" viewBox="0 0 86 86" fill="none" xmlns="http://www.w3.org/2000/svg">
<g clip-path="url(#clip0)">
<path d="M22.7809 71.8679H22.7815H46.1605C47.5112 71.8658 48.855 71.6886 50.1598 71.3404L22.7809 71.8679ZM22.7809 71.8679C19.4454 71.8754 16.1982 70.7932 13.5345 68.7855L13.5339 68.7851M22.7809 71.8679L13.5339 68.7851M62.2789 63.4164C62.3465 63.1725 62.3963 62.9245 62.4286 62.6744L79.6185 58.0648C79.6191 58.0647 79.6197 58.0645 79.6202 58.0644C79.7407 58.0339 79.8641 58.0047 79.978 57.9857C81.2695 57.8213 82.4829 58.6383 82.8168 59.8965L82.8168 59.8966C82.8751 60.1159 82.9042 60.3418 82.9023 60.5679V60.5704C82.9042 61.7462 82.1165 62.7761 80.9813 63.0825L50.1601 71.3403L62.038 63.3496M62.2789 63.4164L62.038 63.3496M62.2789 63.4164C62.279 63.4161 62.279 63.4159 62.2791 63.4156L62.038 63.3496M62.2789 63.4164C61.5724 65.994 59.2306 67.7813 56.5585 67.7828M62.038 63.3496C61.3615 65.819 59.118 67.5314 56.5581 67.5328M56.5585 67.7828L56.5581 67.5328M56.5585 67.7828C56.5584 67.7828 56.5583 67.7828 56.5583 67.7828L56.5581 67.5328M56.5585 67.7828C56.0364 67.7835 55.5164 67.7168 55.0122 67.5841L55.0111 67.5838L42.9116 64.3379C42.3206 64.1955 41.8539 63.7433 41.6916 63.1585L41.6915 63.1584C41.5289 62.5715 41.6981 61.9431 42.1319 61.5166L42.1321 61.5165C42.566 61.0907 43.1961 60.9336 43.7786 61.1052L55.8774 64.3496L56.5581 67.5328M13.5339 68.7851L13.0646 68.4332V57.2924L13.5341 56.9399L13.5345 56.9396M13.5339 68.7851L13.5345 56.9396M13.5345 56.9396C16.1982 54.9319 19.4454 53.849 22.7808 53.8579H22.7815M13.5345 56.9396L22.7815 53.8579M22.7815 53.8579H35.5252H35.5254M22.7815 53.8579H35.5254M35.5254 53.8579C36.3732 53.8572 37.2184 53.967 38.0393 54.1839C38.0395 54.1839 38.0397 54.184 38.0399 54.184L57.2162 59.3246C57.2164 59.3247 57.2166 59.3247 57.2169 59.3248C58.2512 59.61 59.008 60.4966 59.126 61.5632L59.1281 61.5814M35.5254 53.8579L59.1281 61.5814M59.1281 61.5814L59.1327 61.599M59.1281 61.5814L59.1327 61.599M59.1327 61.599C59.1435 61.6405 59.156 61.6821 59.1704 61.7236C59.1604 61.7691 59.1523 61.8151 59.1461 61.8618L59.1439 61.8788M59.1327 61.599L59.1439 61.8788M59.1439 61.8788L59.144 61.8959M59.1439 61.8788L59.144 61.8959M59.144 61.8959C59.1452 62.104 59.1171 62.311 59.0599 62.5102L59.0598 62.5102M59.144 61.8959L59.0598 62.5102M59.0598 62.5102L59.0588 62.5141M59.0598 62.5102L59.0588 62.5141M59.0588 62.5141C58.7531 63.6462 57.7276 64.4332 56.5549 64.4351L56.5533 64.4351M59.0588 62.5141L56.5533 64.4351M56.5533 64.4351C56.3253 64.437 56.0988 64.408 55.8783 64.3498L56.5533 64.4351ZM86.0497 59.0249L86.0492 59.023C85.4456 56.8232 83.6391 55.1689 81.409 54.7516V22.5334H84.0067C84.9311 22.5334 85.6806 21.7839 85.6806 20.8595V6.62111C85.6806 5.69595 84.931 4.94727 84.0067 4.94727H21.3576C20.4333 4.94727 19.6838 5.69595 19.6838 6.62111V20.8595C19.6838 21.7839 20.4333 22.5334 21.3576 22.5334H23.9553V50.5102H22.7821C19.3517 50.5021 15.9886 51.4434 13.0646 53.2258V46.4887C13.0646 45.5635 12.315 44.8149 11.3907 44.8149H1.42384C0.49954 44.8149 -0.25 45.5635 -0.25 46.4887V79.2371C-0.25 80.1615 0.499459 80.9109 1.42384 80.9109H11.3907C12.3151 80.9109 13.0646 80.1615 13.0646 79.2371V72.5004C15.9891 74.2816 19.3516 75.223 22.782 75.2156H46.1609H46.1613C47.8028 75.2127 49.4366 74.9972 51.0224 74.5745L51.0227 74.5744L81.8501 66.3164L81.8512 66.3161C85.0171 65.4533 86.8929 62.1967 86.0497 59.0249ZM58.0863 56.0914L58.085 56.0911L35.5252 50.7602V50.5102H35.5248H27.303V22.5334H78.0614V55.0159L61.9285 59.3421C61.1906 57.7488 59.7869 56.5575 58.0863 56.0914ZM23.0315 8.29495H82.3329V19.1857H23.0315V8.29495ZM9.7169 77.5632H3.09769V48.1625H9.7169V77.5632Z" fill="#D92A2A" stroke="#D92A2A" stroke-width="0.5"/>
<path d="M59.8019 27.4788H45.5635C45.0533 27.4788 44.6396 27.0651 44.6396 26.5549C44.6396 26.0442 45.0532 25.6311 45.5635 25.6311H59.8019C60.3123 25.6311 60.7258 26.0442 60.7258 26.5549C60.7258 27.0651 60.3121 27.4788 59.8019 27.4788Z" fill="#D92A2A" stroke="#D92A2A"/>
</g>
<defs>
<clipPath id="clip0">
<rect width="86" height="86" fill="white"/>
</clipPath>
</defs>
</svg>
