<svg width="83" height="83" viewBox="0 0 83 83" fill="none" xmlns="http://www.w3.org/2000/svg">
<g clip-path="url(#clip0)">
<path d="M81.3439 24.0666L64.4484 7.17116C63.3787 6.10146 61.9567 5.51245 60.444 5.51245C58.9313 5.51245 57.5093 6.10146 56.4399 7.17116L52.4695 11.1413C51.8585 11.7523 51.423 12.471 51.1498 13.2355L32.5728 9.90963C32.5715 9.90931 32.5699 9.90931 32.5687 9.909C24.2158 8.25091 16.0604 13.6814 14.3759 22.0352L13.5191 26.2855C12.5728 30.979 15.6217 35.5671 20.3153 36.5134C25.0092 37.4591 29.5972 34.4107 30.5436 29.7172L31.0673 27.1181L39.3979 27.8465L61.153 49.6016L65.0958 53.5445C65.8943 54.3429 65.8939 55.6421 65.0958 56.4406C64.2977 57.2387 62.9985 57.239 62.2001 56.4406L51.6384 45.8789C50.9027 45.1432 49.7096 45.1432 48.9743 45.8789C48.2387 46.6145 48.2387 47.8073 48.9743 48.5429L59.536 59.1046C59.9228 59.4914 60.1357 60.0057 60.1357 60.5526C60.1357 61.0996 59.9228 61.6136 59.536 62.0004C58.7373 62.7988 57.4384 62.7985 56.6403 62.0004L46.0786 51.4387C45.3429 50.703 44.1498 50.703 43.4145 51.4387C42.6789 52.1743 42.6789 53.3671 43.4145 54.1027L53.9762 64.6644C54.7746 65.4625 54.7746 66.7617 53.9762 67.5602C53.5894 67.947 53.0751 68.1599 52.5285 68.1599C51.9815 68.1599 51.4673 67.947 51.0804 67.5602L40.5188 56.9985C39.7831 56.2628 38.59 56.2628 37.8547 56.9985C37.1191 57.7341 37.1191 58.9269 37.8547 59.6625L48.4164 70.2242C49.2148 71.0227 49.2145 72.3219 48.4164 73.1203C47.6183 73.9184 46.3191 73.9187 45.5206 73.1203L8.15078 35.7511L3.21578 30.8161C2.48014 30.0804 1.28705 30.0804 0.551727 30.8161C-0.183909 31.5517 -0.183909 32.7445 0.551727 33.4801L5.48673 38.4151L10.8572 43.7856L7.89678 46.7461C6.92755 47.7153 6.39348 49.0041 6.39348 50.3752C6.39348 51.7464 6.92724 53.0352 7.89678 54.0044L8.86287 54.9705C9.71028 55.8179 10.802 56.3322 11.979 56.4484C12.0952 57.6255 12.6095 58.7172 13.4569 59.5643L14.423 60.5307C15.293 61.4007 16.4004 61.8914 17.5385 62.0048C17.6538 63.1831 18.1687 64.2764 19.017 65.1244L19.9831 66.0905C20.8305 66.9379 21.9222 67.4522 23.0993 67.5683C23.2155 68.7454 23.7297 69.8371 24.5772 70.6845L25.5432 71.6506C26.5439 72.6512 27.8582 73.1514 29.1724 73.1514C30.4867 73.1514 31.801 72.6512 32.8016 71.6506L35.7621 68.6902L42.8563 75.7844C43.9549 76.8829 45.4151 77.4876 46.9684 77.4876C48.5216 77.4876 49.9822 76.8826 51.0804 75.7844C52.121 74.7439 52.7118 73.3771 52.7718 71.9159C54.2334 71.8559 55.5998 71.265 56.6406 70.2245C57.7131 69.152 58.2717 67.7614 58.3297 66.3536C59.7373 66.2955 61.1282 65.7369 62.2004 64.6647C63.2729 63.5922 63.8315 62.2016 63.8896 60.7938C65.2974 60.7357 66.6883 60.1771 67.7605 59.1046C70.028 56.8371 70.028 53.1479 67.7605 50.8804L65.1498 48.2698L74.7018 38.7178L81.3442 32.0754C83.5517 29.8672 83.5517 26.2745 81.3439 24.0666ZM10.5608 51.3401C10.0286 50.8079 10.0286 49.9423 10.5608 49.4101L13.337 46.634L16.233 49.53L13.4569 52.3062C12.925 52.8384 12.0588 52.838 11.5269 52.3062L10.5608 51.3401ZM16.121 56.9002C15.5888 56.368 15.5888 55.5024 16.121 54.9705L18.8971 52.1944L21.7932 55.0905L19.0173 57.8666C18.4852 58.3985 17.6189 58.3988 17.0874 57.8666L16.121 56.9002ZM21.6808 62.4603C21.423 62.2026 21.2811 61.8597 21.2811 61.4955C21.2811 61.1313 21.423 60.7884 21.6808 60.5307L24.4569 57.7545L27.3527 60.6503L24.5765 63.4264C24.0447 63.9583 23.1787 63.9583 22.6469 63.4264L21.6808 62.4603ZM30.137 68.9866C29.6051 69.5187 28.7388 69.5184 28.207 68.9866L27.2409 68.0205C26.7087 67.4883 26.7087 66.6227 27.2409 66.0905L30.017 63.3143L32.9131 66.2104L30.137 68.9866ZM62.4852 45.6054L41.5772 24.6974C41.2638 24.384 40.8506 24.1913 40.4092 24.153L29.7175 23.2183C29.6619 23.2132 29.6067 23.211 29.552 23.211C28.6638 23.211 27.8855 23.8374 27.7068 24.7228L26.85 28.973C26.3144 31.6299 23.7184 33.3555 21.0597 32.8201C19.7728 32.5608 18.6635 31.8154 17.937 30.7219C17.2104 29.6283 16.953 28.3172 17.2126 27.0299L18.0695 22.78C19.3461 16.4475 25.5338 12.3325 31.8688 13.6107C31.882 13.6132 31.8955 13.6161 31.909 13.6183L50.2155 16.8958L52.4695 19.1498L70.7053 37.3856L62.4852 45.6054ZM78.6795 29.411L73.369 34.7216L55.1332 16.4858C54.7753 16.1278 54.5781 15.6519 54.5781 15.1454C54.5781 14.639 54.7753 14.1633 55.1332 13.8051L59.1037 9.83459C59.4616 9.47666 59.9376 9.27948 60.4437 9.27948C60.9498 9.27948 61.4258 9.47666 61.7841 9.83459L78.6795 26.73C79.0374 27.088 79.2346 27.5639 79.2346 28.0704C79.2346 28.5768 79.0374 29.0531 78.6795 29.411Z" fill="#D92A2A"/>
<path d="M74.1192 30.7025C75.1596 30.7025 76.003 29.8591 76.003 28.8186C76.003 27.7782 75.1596 26.9348 74.1192 26.9348C73.0788 26.9348 72.2354 27.7782 72.2354 28.8186C72.2354 29.8591 73.0788 30.7025 74.1192 30.7025Z" fill="#D92A2A"/>
</g>
<defs>
<clipPath id="clip0">
<rect width="83" height="83" fill="white"/>
</clipPath>
</defs>
</svg>
