<svg width="79" height="77" viewBox="0 0 79 77" fill="none" xmlns="http://www.w3.org/2000/svg">
<g clip-path="url(#clip0)">
<path d="M53.8057 40.6826V41.0844L54.198 41.1709C56.8405 41.7536 58.7431 43.8811 58.7431 46.3424C58.7431 46.8751 58.2918 47.3352 57.7002 47.3352C57.1086 47.3352 56.6572 46.8751 56.6572 46.3424C56.6572 44.4194 54.8238 42.9999 52.7627 42.9999C50.7016 42.9999 48.8682 44.4194 48.8682 46.3424C48.8682 48.2653 50.7016 49.6848 52.7627 49.6848C56.1111 49.6848 58.7431 52.1239 58.7431 55.0128C58.7431 57.4742 56.8405 59.6016 54.198 60.1844L53.8057 60.2709V60.6727V61.3175C53.8057 61.8502 53.3543 62.3103 52.7627 62.3103C52.1711 62.3103 51.7197 61.8502 51.7197 61.3175V60.6727V60.2709L51.3274 60.1844C48.6849 59.6016 46.7822 57.4742 46.7822 55.0128C46.7822 54.4801 47.2336 54.0201 47.8252 54.0201C48.4168 54.0201 48.8682 54.4801 48.8682 55.0128C48.8682 56.9358 50.7016 58.3554 52.7627 58.3554C54.8238 58.3554 56.6572 56.9358 56.6572 55.0128C56.6572 53.0898 54.8238 51.6703 52.7627 51.6703C49.4142 51.6703 46.7822 49.2312 46.7822 46.3424C46.7822 43.8811 48.6849 41.7536 51.3274 41.1709L51.7197 41.0844V40.6826V39.9062C51.7197 39.3735 52.1711 38.9135 52.7627 38.9135C53.3543 38.9135 53.8057 39.3735 53.8057 39.9062V40.6826Z" fill="#D92A2A" stroke="#D92A2A"/>
<path d="M61.2394 33.7279L61.2394 33.7279C64.5138 35.2508 67.2818 37.6215 69.2456 40.582C71.2627 43.6228 72.3281 47.1466 72.3281 50.7736C72.3281 53.8617 71.5403 56.9269 70.0501 59.6363L70.4882 59.8772L70.0501 59.6363C69.8667 59.9697 69.5076 60.1692 69.1246 60.1692C68.9574 60.1692 68.788 60.1306 68.6301 60.0493L68.6301 60.0493C68.12 59.7868 67.9418 59.1891 68.202 58.7159L68.202 58.7159C69.5367 56.2889 70.2421 53.5431 70.2421 50.7736C70.2421 44.2969 66.3435 38.3113 60.324 35.5119C59.8016 35.2689 59.5991 34.6779 59.8388 34.1956L59.8388 34.1956C60.0831 33.7037 60.7084 33.4809 61.2394 33.7279Z" fill="#D92A2A" stroke="#D92A2A"/>
<path d="M55.084 33.8532H55.0848L55.1733 33.8533H55.1733H55.1734H55.1734H55.1734H55.1734H55.1734H55.1734H55.1734H55.1735H55.1735H55.1735H55.1735H55.1735H55.1735H55.1735H55.1736H55.1736H55.1736H55.1736H55.1736H55.1736H55.1736H55.1737H55.1737H55.1737H55.1737H55.1737H55.1737H55.1737H55.1738H55.1738H55.1738H55.1738H55.1738H55.1738H55.1738H55.1739H55.1739H55.1739H55.1739H55.1739H55.1739H55.1739H55.174H55.174H55.174H55.174H55.174H55.174H55.174H55.1741H55.1741H55.1741H55.1741H55.1741H55.1741H55.1741H55.1742H55.1742H55.1742H55.1742H55.1742H55.1742H55.1742H55.1743H55.1743H55.1743H55.1743H55.1743H55.1743H55.1743H55.1744H55.1744H55.1744H55.1744H55.1744H55.1744H55.1744H55.1745H55.1745H55.1745H55.1745H55.1745H55.1745H55.1745H55.1746H55.1746H55.1746H55.1746H55.1746H55.1746H55.1746H55.1747H55.1747H55.1747H55.1747H55.1747H55.1747H55.1747H55.1748H55.1748H55.1748H55.1748H55.1748H55.1748H55.1748H55.1749H55.1749H55.1749H55.1749H55.1749H55.1749H55.1749H55.175H55.175H55.175H55.175H55.175H55.175H55.175H55.1751H55.1751H55.1751H55.1751H55.1751H55.1751H55.1751H55.1752H55.1752H55.1752H55.1752H55.1752H55.1752H55.1752H55.1753H55.1753H55.1753H55.1753H55.1753H55.1753H55.1753H55.1754H55.1754H55.1754H55.1754H55.1754H55.1754H55.1754H55.1755H55.1755H55.1755H55.1755H55.1755H55.1755H55.1755H55.1756H55.1756H55.1756H55.1756H55.1756H55.1756H55.1756H55.1757H55.1757H55.1757H55.1757H55.1757H55.1757H55.1757H55.1758H55.1758H55.1758H55.1758H55.1758H55.1758H55.1758H55.1759H55.1759H55.1759H55.1759H55.1759H55.1759H55.1759H55.176H55.176H55.176H55.176H55.176H55.176H55.176H55.1761H55.1761H55.1761H55.1761H55.1761H55.1761H55.1761H55.1761H55.1762H55.1762H55.1762H55.1762H55.1762H55.1762H55.1762H55.1763H55.1763H55.1763H55.1763H55.1763H55.1763H55.1763H55.1764H55.1764H55.1764H55.1764H55.1764H55.1764H55.1764H55.1765H55.1765H55.1765H55.1765H55.1765H55.1765H55.1765H55.1766H55.1766H55.1766H55.1766H55.1766H55.1766H55.1766H55.1767H55.1767H55.1767H55.1767H55.1767H55.1767H55.1767H55.1768H55.1768H55.1768H55.1768H55.1768H55.1768H55.1768H55.1769H55.1769H55.1769H55.1769H55.1769H55.1769H55.1769H55.177H55.177H55.177H55.177H55.177H55.177H55.177H55.1771H55.1771H55.1771H55.1771H55.1771H55.1771H55.1771H55.1772H55.1772H55.1772H55.1772H55.1772H55.1772H55.1772H55.1773H55.1773H55.1773H55.1773H55.1773H55.1773H55.1773H55.1774H55.1774H55.1774H55.1774H55.1774H55.1774H55.1774H55.1775H55.1775H55.1775H55.1775H55.1775H55.1775H55.1775H55.1776H55.1776H55.1776H55.1776H55.1776H55.1776H55.1776H55.1777H55.1777H55.1777H55.1777H55.1777H55.1777H55.1777H55.1778H55.1778H55.1778H55.1778H55.1778H55.1778H55.1778H55.1779H55.1779H55.1779H55.1779H55.1779H55.1779H55.1779H55.178H55.178H55.178H55.178H55.178H55.178H55.178H55.1781H55.1781H55.1781H55.1781H55.1781H55.1781H55.1781H55.1782H55.1782H55.1782H55.1782H55.1782H55.1782H55.1783H55.1783H55.1783H55.1783H55.1783H55.1783H55.1783H55.1784H55.1784H55.1784H55.1784H55.1784H55.1784H55.1784H55.1785H55.1785H55.1785H55.1785H55.1785H55.1785H55.1785H55.1786H55.1786H55.1786H55.1786H55.1786H55.1786H55.1786H55.1787H55.1787H55.1787H55.1787H55.1787H55.1787H55.1787H55.1788H55.1788H55.1788H55.1788H55.1788H55.1788H55.1788H55.1789H55.1789H55.1789H55.1789H55.1789H55.1789H55.1789H55.179H55.179H55.179H55.179H55.179H55.179H55.1791H55.1791H55.1791H55.1791H55.1791H55.1791H55.1791H55.1792H55.1792H55.1792H55.1792H55.1792H55.1792H55.1792H55.1793H55.1793H55.1793H55.1793H55.1793H55.1793H55.1793H55.1794H55.1794H55.1794H55.1794H55.1794H55.1794H55.1795H55.1795H55.1795H55.1795H55.1795H55.1795H55.1795H55.1796H55.1796H55.1796H55.1796H55.1796H55.1796H55.1796H55.1797H55.1797H55.1797H55.1797H55.1797H55.1797H55.1797H55.1798H55.1798H55.1798H55.1798H55.1798H55.1798H55.1799H55.1799H55.1799H55.1799H55.1799H55.1799H55.1799H55.18H55.18H55.18H55.18H55.18H55.18H55.18H55.1801H55.1801H55.1801H55.1801H55.1801H55.1801H55.1802H55.1802H55.1802H55.1802H55.1802H55.1802H55.1802H55.1803H55.1803H55.1803H55.1803H55.1803H55.1803H55.1804H55.1804H55.1804H55.1804H55.1804H55.1804H55.1804H55.1805H55.1805H55.1805H55.1805H55.1805H55.1805H55.1806H55.1806H55.1806H55.1806H55.1806H55.1806H55.1806H55.1807H55.1807H55.1807H55.1807H55.1807H55.1807C55.77 33.8533 56.2209 33.3966 56.2236 32.8653L55.084 33.8532ZM55.084 33.8532C54.4923 33.8532 54.041 33.3933 54.041 32.8604C54.041 32.3276 54.4923 31.8677 55.084 31.8677M55.084 33.8532V31.8677M55.084 31.8677L55.1863 31.8678C55.7774 31.8709 56.226 32.3325 56.2236 32.8652L55.084 31.8677Z" fill="#D92A2A" stroke="#D92A2A"/>
<path d="M37.337 42.8313L37.337 42.8313C36.0023 45.2583 35.2969 48.0041 35.2969 50.7736C35.2969 57.2501 39.1955 63.2357 45.2149 66.0353L45.4257 65.5819L45.2149 66.0353C45.737 66.2781 45.9396 66.8692 45.7003 67.3516C45.525 67.7041 45.1548 67.9204 44.7562 67.9204C44.6026 67.9204 44.4471 67.8881 44.2997 67.8195L44.2996 67.8194C41.0252 66.2964 38.2572 63.9256 36.2935 60.9652C34.2764 57.9242 33.2109 54.4006 33.2109 50.7736C33.2109 47.6855 33.9987 44.6204 35.489 41.9109L35.489 41.9108C35.7546 41.4277 36.39 41.2307 36.9088 41.4978L36.9089 41.4978C37.419 41.7604 37.5972 42.3581 37.337 42.8313Z" fill="#D92A2A" stroke="#D92A2A"/>
<path d="M50.454 67.6939V67.6939H50.4557C51.0473 67.6939 51.4986 68.154 51.4986 68.6867C51.4986 69.2192 51.0476 69.6791 50.4563 69.6795C50.4561 69.6795 50.4559 69.6795 50.4557 69.6795L50.3546 69.6792C50.3544 69.6792 50.3543 69.6792 50.3542 69.6792C49.7627 69.6763 49.3138 69.2144 49.3164 68.6818L49.3164 68.6817C49.3189 68.1491 49.7682 67.6926 50.3655 67.6936L50.454 67.6939Z" fill="#D92A2A" stroke="#D92A2A"/>
<path d="M59.3172 26.5159L59.4132 26.7373L59.6462 26.7999C70.5164 29.7183 78.5 39.3696 78.5 50.7734C78.5 64.4746 66.9726 75.6504 52.7696 75.6504C45.3575 75.6504 38.6716 72.6039 33.9731 67.7418L33.8256 67.5893H33.6135H15.4297C11.7765 67.5893 8.83202 64.7172 8.83202 61.2226C8.83202 59.2143 9.80232 57.4161 11.3241 56.2448L11.8388 55.8486L11.3241 55.4524C9.80232 54.2811 8.83202 52.483 8.83202 50.4747C8.83202 48.4664 9.80232 46.6682 11.3241 45.4969L11.8388 45.1007L11.3241 44.7045C9.80232 43.5332 8.83202 41.735 8.83202 39.7268C8.83202 37.7185 9.80232 35.9203 11.3241 34.749L11.8388 34.3528L11.3241 33.9566C9.80232 32.7853 8.83202 30.9871 8.83202 28.9789C8.83202 25.4842 11.7765 22.6121 15.4297 22.6121H19.4537H20.4228L19.8612 21.8224C19.1327 20.7979 18.707 19.5616 18.707 18.231C18.707 16.9004 19.1329 15.664 19.8612 14.6395L20.4226 13.8498H19.4537H7.09764C3.44449 13.8498 0.5 10.9777 0.5 7.48305C0.5 3.9884 3.44449 1.11633 7.09764 1.11633H44.9003C48.5535 1.11633 51.4979 3.9884 51.4979 7.48305C51.4979 8.81363 51.0721 10.05 50.3437 11.0745L49.7823 11.8642H50.7512H63.1073C66.7605 11.8642 69.7049 14.7363 69.7049 18.231C69.7049 21.7256 66.7605 24.5977 63.1073 24.5977H59.0903H58.1242L58.6822 25.3864C58.93 25.7368 59.1431 26.1146 59.3172 26.5159ZM54.9423 25.9859L55.195 25.0348C54.5966 24.7544 53.9292 24.5977 53.2323 24.5977H15.4297C12.9572 24.5977 10.9179 26.5472 10.9179 28.9789C10.9179 31.4105 12.9572 33.36 15.4297 33.36H34.2079H34.4105L34.556 33.219C39.2165 28.699 45.6594 25.8964 52.7696 25.8964C53.5009 25.8964 54.2252 25.9277 54.9423 25.9859ZM31.9705 36.1467L32.5749 35.3456H31.5714H15.4297C12.9571 35.3456 10.9179 37.2951 10.9179 39.7268C10.9179 42.1585 12.9571 44.108 15.4297 44.108H27.6055H27.9758L28.0838 43.7537C28.9263 40.9893 30.2532 38.423 31.9705 36.1467ZM27.3897 46.6783L27.4904 46.0935H26.897H15.4297C12.9571 46.0935 10.9179 48.0429 10.9179 50.4747C10.9179 52.9064 12.9571 54.8559 15.4297 54.8559H26.8018H27.3805L27.2965 54.2833C27.1282 53.1359 27.0392 51.9644 27.0392 50.7734C27.0392 49.3788 27.1604 48.0112 27.3897 46.6783ZM27.9136 57.2078L27.812 56.8414H27.4318H15.4297C12.9571 56.8414 10.9179 58.7908 10.9179 61.2226C10.9179 63.6544 12.9571 65.6038 15.4297 65.6038H31.1338H32.1019L31.5415 64.8143C29.9154 62.5235 28.6763 59.9587 27.9136 57.2078ZM67.619 18.231C67.619 15.7993 65.5799 13.8498 63.1073 13.8498H25.3046C22.8321 13.8498 20.7929 15.7993 20.7929 18.231C20.7929 20.6626 22.8321 22.6121 25.3046 22.6121H53.2323H63.1073C65.5799 22.6121 67.619 20.6626 67.619 18.231ZM2.58593 7.48305C2.58593 9.91467 4.62505 11.8642 7.09764 11.8642H44.9003C47.3729 11.8642 49.412 9.91467 49.412 7.48305C49.412 5.05143 47.3729 3.10186 44.9003 3.10186H7.09764C4.62505 3.10186 2.58593 5.05143 2.58593 7.48305ZM29.1251 50.7734C29.1251 63.4116 39.7473 73.6648 52.7696 73.6648C65.7919 73.6648 76.4141 63.4116 76.4141 50.7734C76.4141 38.1351 65.7919 27.8819 52.7696 27.8819C39.7473 27.8819 29.1251 38.1351 29.1251 50.7734Z" fill="#D92A2A" stroke="#D92A2A"/>
</g>
<defs>
<clipPath id="clip0">
<rect width="79" height="76.4297" fill="white" transform="translate(0 0.168701)"/>
</clipPath>
</defs>
</svg>
