<svg width="89" height="89" viewBox="0 0 89 89" fill="none" xmlns="http://www.w3.org/2000/svg">
<g clip-path="url(#clip0)">
<path d="M20.1426 88.4859C20.8175 89.1649 21.9163 89.1724 22.6 88.5002L31.0418 80.1999C32.4759 78.7685 32.912 76.6493 32.2813 74.8071L34.0972 73.0594C35.0748 72.1169 36.3621 71.5974 37.7227 71.5974H60.8701C64.9767 71.5974 68.858 70.0235 71.8005 67.1655C71.9216 67.048 70.8814 68.2709 87.592 48.3377C90.0705 45.4112 89.6997 41.0166 86.7647 38.5402C83.8481 36.0869 79.4789 36.4393 76.9936 39.3156L66.719 49.8553C65.4216 48.2617 63.4432 47.2683 61.3055 47.2683H41.8892C39.1263 46.1146 36.1947 45.5307 33.1699 45.5307C24.7853 45.5307 17.4641 49.3956 13.5351 56.6421C11.8798 56.3291 10.1341 56.8288 8.87816 58.0823L0.594963 66.3738C-0.0813001 67.0507 -0.0826607 68.146 0.592241 68.825L20.1426 88.4859ZM33.1692 49.0059C35.8361 49.0059 38.4147 49.5416 40.8346 50.5982C41.0551 50.6946 41.2925 50.7442 41.5327 50.7442H61.3055C63.1935 50.7442 64.7882 52.2808 64.7882 54.2194C64.7882 56.1362 63.2262 57.6953 61.3055 57.6953H47.0993C46.1379 57.6953 45.3583 58.4734 45.3583 59.4329C45.3583 60.393 46.1379 61.1705 47.0993 61.1705H61.3055C65.1461 61.1705 68.2702 58.0524 68.2702 54.2194C68.2702 53.9138 68.2485 53.611 68.209 53.3108C78.1482 43.1141 79.5497 41.6813 79.6095 41.61C80.8505 40.1481 83.0534 39.9627 84.5189 41.1958C85.9857 42.4337 86.1715 44.631 84.9271 46.101L69.3098 64.7346C67.0293 66.9197 64.0351 68.1222 60.8701 68.1222H37.7227C35.4545 68.1222 33.3073 68.988 31.6786 70.5585L30.1988 71.9838L16.5579 58.3702C19.746 52.401 25.7283 49.0059 33.1692 49.0059ZM11.3424 60.5383C11.9166 59.9652 12.7983 59.862 13.4984 60.2938C13.7998 60.4772 12.9344 59.6909 28.5796 75.2838C29.2756 75.9784 29.2382 77.0852 28.5891 77.733L21.3924 84.8091L4.28379 67.6035L11.3424 60.5383Z" fill="#D92A2A"/>
<g clip-path="url(#clip1)">
<path d="M70.2221 32.2717V31.3371H72.2321V33.2062H71.2271C70.6594 33.2062 70.2221 32.7734 70.2221 32.2717ZM69.9459 24.3789L68.2177 17.8547C68.6959 17.6588 69.0409 17.206 69.0409 16.6643V15.5495C69.0409 12.9775 66.8287 10.9099 64.14 10.9099H56.048V8.86043C56.048 7.51786 54.8957 6.45044 53.5094 6.45044H10.9868C9.60061 6.45044 8.44828 7.51786 8.44828 8.86043V27.8125C8.44828 28.5411 9.06975 29.1077 9.80567 29.1077C10.5414 29.1077 11.1631 28.5413 11.1631 27.8125V9.04081H53.3331V27.8127C53.3331 28.5414 53.9545 29.1079 54.6905 29.1079C55.4262 29.1079 56.0479 28.5415 56.0479 27.8127V26.8779H68.8522C68.8557 26.8781 68.8596 26.8782 68.8637 26.8782C68.8666 26.8782 68.8693 26.8781 68.8717 26.8781C70.24 26.8809 71.411 27.6533 71.9359 28.747H68.8645C68.1288 28.747 67.5071 29.3134 67.5071 30.0422V32.2718C67.5071 34.2291 69.1893 35.7966 71.2269 35.7966H72.2319V39.8952H69.7585C68.7219 37.2871 66.061 35.4358 62.9586 35.4358C59.8562 35.4358 57.1951 37.2871 56.1587 39.8952H56.0476V32.2717C56.0476 31.5431 55.4261 30.9765 54.6902 30.9765C53.9545 30.9765 53.3328 31.5429 53.3328 32.2717V39.8949H30.7798C29.7432 37.2869 27.0822 35.4356 23.9799 35.4356C20.8775 35.4356 18.2164 37.2868 17.18 39.8949H11.1631V38.026H15.7116C16.4474 38.026 17.069 37.4596 17.069 36.7308C17.069 36.002 16.4475 35.4356 15.7116 35.4356H5.08103C4.34529 35.4356 3.72363 36.002 3.72363 36.7308C3.72363 37.4596 4.34513 38.026 5.08103 38.026H8.44841V40.0753C8.44841 41.4179 9.60075 42.4853 10.987 42.4853H16.7191C16.8207 46.2029 20.052 49.1741 23.9799 49.1741C27.9078 49.1741 31.1391 46.2029 31.2406 42.4853H55.6979C55.7994 46.2029 59.0307 49.1741 62.9586 49.1741C66.8865 49.1741 70.1178 46.2029 70.2193 42.4853H73.5893C74.3251 42.4853 74.9467 41.9189 74.9467 41.1901V30.042C74.9469 27.2072 72.7754 24.8613 69.9459 24.3789ZM56.048 13.5002H64.14C65.2928 13.5002 66.2203 14.3344 66.3178 15.3691H56.048V13.5002ZM56.048 24.2877V17.9594H65.4454L67.1216 24.2877H56.048ZM23.9799 46.5841C21.4582 46.5841 19.4313 44.6511 19.4313 42.3052C19.4313 39.9593 21.4582 38.0262 23.9799 38.0262C26.5015 38.0262 28.5284 39.9593 28.5284 42.3052C28.5284 44.6511 26.5015 46.5841 23.9799 46.5841ZM62.9589 46.5841C60.4372 46.5841 58.4103 44.6511 58.4103 42.3052C58.4103 39.9593 60.4372 38.0262 62.9589 38.0262C65.4805 38.0262 67.5074 39.9593 67.5074 42.3052C67.5074 44.6511 65.4805 46.5841 62.9589 46.5841Z" fill="#D92A2A" stroke="#D92A2A" stroke-width="0.5"/>
<path d="M23.98 40.1453C22.718 40.1453 21.6914 41.1142 21.6914 42.3053C21.6914 43.4963 22.718 44.4652 23.98 44.4652C25.2419 44.4652 26.2685 43.4963 26.2685 42.3053C26.2685 41.1142 25.2419 40.1453 23.98 40.1453Z" fill="#D92A2A" stroke="#D92A2A" stroke-width="16"/>
<path d="M62.9585 40.1453C61.6965 40.1453 60.6699 41.1142 60.6699 42.3053C60.6699 43.4963 61.6965 44.4652 62.9585 44.4652C64.2204 44.4652 65.247 43.4963 65.247 42.3053C65.247 41.1142 64.2204 40.1453 62.9585 40.1453Z" fill="#D92A2A" stroke="#D92A2A" stroke-width="16"/>
<mask id="path-5-inside-1" fill="white">
<path d="M49.9662 35.686H33.4297C32.8182 35.686 32.3223 36.1539 32.3223 36.7312C32.3223 37.3085 32.818 37.7764 33.4297 37.7764H49.9662C50.5777 37.7764 51.0736 37.3085 51.0736 36.7312C51.0736 36.1539 50.5778 35.686 49.9662 35.686Z"/>
</mask>
<path d="M49.9662 35.686H33.4297C32.8182 35.686 32.3223 36.1539 32.3223 36.7312C32.3223 37.3085 32.818 37.7764 33.4297 37.7764H49.9662C50.5777 37.7764 51.0736 37.3085 51.0736 36.7312C51.0736 36.1539 50.5778 35.686 49.9662 35.686Z" fill="#D92A2A"/>
<path d="M49.9662 19.686H33.4297V51.686H49.9662V19.686ZM33.4297 19.686C24.8671 19.686 16.3223 26.4571 16.3223 36.7312H48.3223C48.3223 45.8508 40.7692 51.686 33.4297 51.686V19.686ZM16.3223 36.7312C16.3223 47.0041 24.8657 53.7764 33.4297 53.7764V21.7764C40.7704 21.7764 48.3223 27.6129 48.3223 36.7312H16.3223ZM33.4297 53.7764H49.9662V21.7764H33.4297V53.7764ZM49.9662 53.7764C58.5287 53.7764 67.0736 47.0053 67.0736 36.7312H35.0736C35.0736 27.6117 42.6267 21.7764 49.9662 21.7764V53.7764ZM67.0736 36.7312C67.0736 26.4584 58.5302 19.686 49.9662 19.686V51.686C42.6255 51.686 35.0736 45.8495 35.0736 36.7312H67.0736Z" fill="#D92A2A" mask="url(#path-5-inside-1)"/>
<mask id="path-7-inside-2" fill="white">
<path d="M21.6175 31.2267H7.44334C6.83183 31.2267 6.33594 31.6946 6.33594 32.2719C6.33594 32.8492 6.83169 33.3171 7.44334 33.3171H21.6175C22.229 33.3171 22.7249 32.8492 22.7249 32.2719C22.7249 31.6946 22.229 31.2267 21.6175 31.2267Z"/>
</mask>
<path d="M21.6175 31.2267H7.44334C6.83183 31.2267 6.33594 31.6946 6.33594 32.2719C6.33594 32.8492 6.83169 33.3171 7.44334 33.3171H21.6175C22.229 33.3171 22.7249 32.8492 22.7249 32.2719C22.7249 31.6946 22.229 31.2267 21.6175 31.2267Z" fill="#D92A2A"/>
<path d="M21.6175 15.2267H7.44334V47.2267H21.6175V15.2267ZM7.44334 15.2267C-1.11923 15.2267 -9.66406 21.9978 -9.66406 32.2719H22.3359C22.3359 41.3914 14.7829 47.2267 7.44334 47.2267V15.2267ZM-9.66406 32.2719C-9.66406 42.5447 -1.1207 49.3171 7.44334 49.3171V17.3171C14.7841 17.3171 22.3359 23.1536 22.3359 32.2719H-9.66406ZM7.44334 49.3171H21.6175V17.3171H7.44334V49.3171ZM21.6175 49.3171C30.1801 49.3171 38.7249 42.5459 38.7249 32.2719H6.72494C6.72494 23.1524 14.278 17.3171 21.6175 17.3171V49.3171ZM38.7249 32.2719C38.7249 21.9978 30.1801 15.2267 21.6175 15.2267V47.2267C14.278 47.2267 6.72494 41.3914 6.72494 32.2719H38.7249Z" fill="#D92A2A" mask="url(#path-7-inside-2)"/>
</g>
</g>
<defs>
<clipPath id="clip0">
<rect width="89" height="89" fill="white"/>
</clipPath>
<clipPath id="clip1">
<rect width="70.7232" height="66.75" fill="white" transform="translate(3.97363 -5.5625)"/>
</clipPath>
</defs>
</svg>
