<svg width="87" height="87" viewBox="0 0 87 87" fill="none" xmlns="http://www.w3.org/2000/svg">
<g clip-path="url(#clip0)">
<path d="M54.3348 67.9232L54.3348 67.9232C53.548 68.2228 53.1531 69.1035 53.4527 69.8903C53.6843 70.499 54.2635 70.8726 54.8775 70.8726C55.0579 70.8726 55.2416 70.8404 55.4198 70.7725C57.0574 70.149 58.1568 68.5539 58.1568 66.8012V64.457C58.1568 63.6147 57.4743 62.9324 56.6324 62.9324C55.7904 62.9324 55.108 63.6147 55.108 64.4568V66.801C55.108 67.2957 54.7967 67.7474 54.3348 67.9232Z" fill="#D92A2A" stroke="#D92A2A" stroke-width="0.5"/>
<path d="M32.8918 68.0006H14.4778C13.8167 68.0006 13.2783 67.4623 13.2783 66.801V20.1636C13.2783 19.3215 12.596 18.6392 11.7539 18.6392C10.9118 18.6392 10.2295 19.3215 10.2295 20.1636V66.801C10.2295 69.144 12.1351 71.0494 14.4778 71.0494H32.8918C33.7339 71.0494 34.4163 70.3671 34.4163 69.525C34.4163 68.683 33.7337 68.0006 32.8918 68.0006Z" fill="#D92A2A" stroke="#D92A2A" stroke-width="0.5"/>
<path d="M11.7537 16.3059C12.5958 16.3059 13.2781 15.6236 13.2781 14.7815V11.2658C13.2781 10.6046 13.8163 10.0664 14.4776 10.0664H23.3933V11.6046C23.3933 13.1284 24.6327 14.3678 26.1565 14.3678H42.2299C43.7537 14.3678 44.993 13.1284 44.993 11.6046V10.0664H53.9079C54.5703 10.0664 55.1091 10.605 55.1091 11.2658V18.2634C55.1091 19.1054 55.7914 19.7878 56.6335 19.7878C57.4756 19.7878 58.1579 19.1054 58.1579 18.2634V11.2658C58.1579 8.92291 56.2515 7.01756 53.9079 7.01756H44.9227C44.6453 5.7857 43.5456 4.86159 42.2299 4.86159H40.6522C39.9617 1.93482 37.3287 -0.25 34.1934 -0.25C31.0582 -0.25 28.4252 1.93482 27.7345 4.86142H26.1567C24.841 4.86142 23.7413 5.78568 23.4639 7.01739H14.4778C12.1349 7.01739 10.2295 8.92302 10.2295 11.2657V14.7813C10.2295 14.7813 10.2295 14.7813 10.2295 14.7813C10.2293 15.6236 10.9119 16.3059 11.7537 16.3059ZM34.1934 2.79883C35.6258 2.79883 36.8658 3.64337 37.4402 4.86142H30.9467C31.521 3.64337 32.7611 2.79883 34.1934 2.79883ZM26.4423 7.91025H29.082H39.3049H41.9444V8.51902L41.9441 8.52341C41.9438 8.52792 41.9435 8.53436 41.9435 8.54197C41.9435 8.55248 41.9441 8.56151 41.9444 8.56594V11.3191H26.4423V7.91025Z" fill="#D92A2A" stroke="#D92A2A" stroke-width="0.5"/>
<path d="M58.1572 33.2041V29.0293C58.1572 28.1872 57.4749 27.5049 56.6328 27.5049C55.7908 27.5049 55.1084 28.1872 55.1084 29.0293V33.2041C55.1084 34.0462 55.7908 34.7285 56.6328 34.7285C57.4749 34.7285 58.1572 34.0462 58.1572 33.2041Z" fill="#D92A2A" stroke="#D92A2A" stroke-width="0.5"/>
<path d="M56.6328 57.6295C51.404 57.6295 47.1504 61.8829 47.1504 67.1117C47.1504 72.3405 51.404 76.5941 56.6328 76.5941C61.8615 76.5941 66.1149 72.3405 66.1149 67.1117C66.1149 61.8829 61.8615 57.6295 56.6328 57.6295ZM56.6328 73.5452C53.0856 73.5452 50.1992 70.6589 50.1992 67.1117C50.1992 63.5645 53.0855 60.6783 56.6328 60.6783C60.1799 60.6783 63.0661 63.5647 63.0661 67.1117C63.0661 70.6591 60.1798 73.5452 56.6328 73.5452Z" fill="#D92A2A" stroke="#D92A2A" stroke-width="0.5"/>
<mask id="path-6-outside-1" maskUnits="userSpaceOnUse" x="35.7451" y="41.696" width="42" height="46" fill="black">
<rect fill="white" x="35.7451" y="41.696" width="42" height="46"/>
<path d="M75.4397 62.4357L71.8884 61.8923C71.6687 61.2498 71.409 60.6221 71.1113 60.0148L73.2379 57.1195C73.6104 56.6125 73.557 55.9092 73.1121 55.4641L72.6583 55.0101C72.1606 54.5124 71.3538 54.5121 70.8559 55.0098C70.4744 55.3912 70.3852 55.9547 70.5886 56.421L68.587 59.1463C68.292 59.548 68.258 60.085 68.5006 60.5207C69.0016 61.4206 69.4002 62.3832 69.6852 63.3817C69.8219 63.8607 70.2253 64.2161 70.7178 64.2916L73.9728 64.7898V69.4334L70.7178 69.9316C70.2253 70.0071 69.8219 70.3626 69.6852 70.8416C69.4002 71.84 69.0017 72.8026 68.5006 73.7027C68.258 74.1382 68.2918 74.6753 68.587 75.077L70.5361 77.7307L67.2527 81.0143L64.5989 79.0649C64.1977 78.7703 63.6604 78.7361 63.2244 78.9786C62.3248 79.4797 61.3624 79.8782 60.3638 80.1631C59.8846 80.2998 59.5291 80.7033 59.4537 81.1958L58.9551 84.4511H54.3115L53.8133 81.1959C53.7378 80.7035 53.3822 80.2999 52.903 80.1633C51.9047 79.8785 50.9423 79.4801 50.0422 78.9788C49.6067 78.7365 49.0694 78.77 48.6679 79.0651L46.0142 81.0144L42.7306 77.7309L44.68 75.0772C44.9749 74.6755 45.0089 74.1386 44.7663 73.7029C44.265 72.8023 43.8664 71.8397 43.5818 70.8421C43.4451 70.3629 43.0416 70.0072 42.5491 69.9318L39.2939 69.4336V64.79L42.5491 64.2918C43.0416 64.2163 43.4451 63.8608 43.5818 63.3817C43.8665 62.3839 44.265 61.4214 44.7663 60.5209C45.0089 60.0853 44.9751 59.5482 44.68 59.1463L42.7306 56.4929L46.0142 53.2093L48.6679 55.1585C49.0694 55.4534 49.6065 55.4873 50.0422 55.2448C50.9423 54.7438 51.9049 54.3452 52.9033 54.0603C53.3823 53.9235 53.7378 53.5201 53.8133 53.0276L54.3115 49.7726H58.9551L59.4533 53.0276C59.5288 53.5201 59.8842 53.9235 60.3632 54.0603C61.3617 54.3452 62.3243 54.7437 63.2242 55.2448C63.6601 55.4873 64.197 55.4536 64.5985 55.1585L67.2526 53.2091C67.7515 53.6924 68.5472 53.6874 69.0403 53.1948C69.538 52.697 69.538 51.8902 69.0403 51.3925L68.2811 50.6333C67.8361 50.1882 67.1328 50.1351 66.6255 50.5074L63.7301 52.6339C63.1228 52.3362 62.4951 52.0766 61.8526 51.8569L61.3092 48.3055C61.2139 47.6834 60.6788 47.224 60.0494 47.224H57.9077V43.9705C57.9077 43.2665 57.3373 42.696 56.6333 42.696C55.9293 42.696 55.3589 43.2665 55.3589 43.9705V47.224H53.2172C52.5878 47.224 52.0525 47.6834 51.9574 48.3055L51.414 51.8569C50.7715 52.0764 50.1436 52.3362 49.5363 52.6339L46.641 50.5074C46.1338 50.1351 45.4305 50.1882 44.9855 50.6333L40.1544 55.4643C39.7094 55.9093 39.6559 56.6128 40.0285 57.12L42.1553 60.0152C41.8574 60.6226 41.5977 61.2503 41.3782 61.8926L37.8267 62.436C37.2046 62.5314 36.7451 63.0665 36.7451 63.6958V70.5279C36.7451 71.1573 37.2046 71.6925 37.8267 71.7877L41.3782 72.3311C41.5976 72.9734 41.8574 73.6011 42.1553 74.2087L40.0285 77.104C39.656 77.6111 39.7094 78.3146 40.1544 78.7596L44.9855 83.5906C45.4307 84.0357 46.134 84.089 46.641 83.7165L49.5363 81.5898C50.1436 81.8877 50.7715 82.1473 51.414 82.3669L51.9574 85.9184C52.0527 86.5405 52.5878 86.9999 53.2172 86.9999H60.0492C60.6786 86.9999 61.2139 86.5405 61.309 85.9184L61.8524 82.3669C62.4951 82.1473 63.1228 81.8877 63.7299 81.5898L66.6254 83.7165C67.1324 84.0887 67.8357 84.0357 68.2809 83.5905L73.1118 78.7594C73.5568 78.3146 73.6104 77.6113 73.2377 77.104L71.1111 74.2087C71.4088 73.6014 71.6687 72.9736 71.8882 72.3311L75.4396 71.7877C76.0617 71.6924 76.5211 71.1573 76.5211 70.5279V63.6958C76.5215 63.0661 76.0618 62.531 75.4397 62.4357Z"/>
</mask>
<path d="M75.4397 62.4357L71.8884 61.8923C71.6687 61.2498 71.409 60.6221 71.1113 60.0148L73.2379 57.1195C73.6104 56.6125 73.557 55.9092 73.1121 55.4641L72.6583 55.0101C72.1606 54.5124 71.3538 54.5121 70.8559 55.0098C70.4744 55.3912 70.3852 55.9547 70.5886 56.421L68.587 59.1463C68.292 59.548 68.258 60.085 68.5006 60.5207C69.0016 61.4206 69.4002 62.3832 69.6852 63.3817C69.8219 63.8607 70.2253 64.2161 70.7178 64.2916L73.9728 64.7898V69.4334L70.7178 69.9316C70.2253 70.0071 69.8219 70.3626 69.6852 70.8416C69.4002 71.84 69.0017 72.8026 68.5006 73.7027C68.258 74.1382 68.2918 74.6753 68.587 75.077L70.5361 77.7307L67.2527 81.0143L64.5989 79.0649C64.1977 78.7703 63.6604 78.7361 63.2244 78.9786C62.3248 79.4797 61.3624 79.8782 60.3638 80.1631C59.8846 80.2998 59.5291 80.7033 59.4537 81.1958L58.9551 84.4511H54.3115L53.8133 81.1959C53.7378 80.7035 53.3822 80.2999 52.903 80.1633C51.9047 79.8785 50.9423 79.4801 50.0422 78.9788C49.6067 78.7365 49.0694 78.77 48.6679 79.0651L46.0142 81.0144L42.7306 77.7309L44.68 75.0772C44.9749 74.6755 45.0089 74.1386 44.7663 73.7029C44.265 72.8023 43.8664 71.8397 43.5818 70.8421C43.4451 70.3629 43.0416 70.0072 42.5491 69.9318L39.2939 69.4336V64.79L42.5491 64.2918C43.0416 64.2163 43.4451 63.8608 43.5818 63.3817C43.8665 62.3839 44.265 61.4214 44.7663 60.5209C45.0089 60.0853 44.9751 59.5482 44.68 59.1463L42.7306 56.4929L46.0142 53.2093L48.6679 55.1585C49.0694 55.4534 49.6065 55.4873 50.0422 55.2448C50.9423 54.7438 51.9049 54.3452 52.9033 54.0603C53.3823 53.9235 53.7378 53.5201 53.8133 53.0276L54.3115 49.7726H58.9551L59.4533 53.0276C59.5288 53.5201 59.8842 53.9235 60.3632 54.0603C61.3617 54.3452 62.3243 54.7437 63.2242 55.2448C63.6601 55.4873 64.197 55.4536 64.5985 55.1585L67.2526 53.2091C67.7515 53.6924 68.5472 53.6874 69.0403 53.1948C69.538 52.697 69.538 51.8902 69.0403 51.3925L68.2811 50.6333C67.8361 50.1882 67.1328 50.1351 66.6255 50.5074L63.7301 52.6339C63.1228 52.3362 62.4951 52.0766 61.8526 51.8569L61.3092 48.3055C61.2139 47.6834 60.6788 47.224 60.0494 47.224H57.9077V43.9705C57.9077 43.2665 57.3373 42.696 56.6333 42.696C55.9293 42.696 55.3589 43.2665 55.3589 43.9705V47.224H53.2172C52.5878 47.224 52.0525 47.6834 51.9574 48.3055L51.414 51.8569C50.7715 52.0764 50.1436 52.3362 49.5363 52.6339L46.641 50.5074C46.1338 50.1351 45.4305 50.1882 44.9855 50.6333L40.1544 55.4643C39.7094 55.9093 39.6559 56.6128 40.0285 57.12L42.1553 60.0152C41.8574 60.6226 41.5977 61.2503 41.3782 61.8926L37.8267 62.436C37.2046 62.5314 36.7451 63.0665 36.7451 63.6958V70.5279C36.7451 71.1573 37.2046 71.6925 37.8267 71.7877L41.3782 72.3311C41.5976 72.9734 41.8574 73.6011 42.1553 74.2087L40.0285 77.104C39.656 77.6111 39.7094 78.3146 40.1544 78.7596L44.9855 83.5906C45.4307 84.0357 46.134 84.089 46.641 83.7165L49.5363 81.5898C50.1436 81.8877 50.7715 82.1473 51.414 82.3669L51.9574 85.9184C52.0527 86.5405 52.5878 86.9999 53.2172 86.9999H60.0492C60.6786 86.9999 61.2139 86.5405 61.309 85.9184L61.8524 82.3669C62.4951 82.1473 63.1228 81.8877 63.7299 81.5898L66.6254 83.7165C67.1324 84.0887 67.8357 84.0357 68.2809 83.5905L73.1118 78.7594C73.5568 78.3146 73.6104 77.6113 73.2377 77.104L71.1111 74.2087C71.4088 73.6014 71.6687 72.9736 71.8882 72.3311L75.4396 71.7877C76.0617 71.6924 76.5211 71.1573 76.5211 70.5279V63.6958C76.5215 63.0661 76.0618 62.531 75.4397 62.4357Z" fill="#D92A2A"/>
<path d="M75.4397 62.4357L71.8884 61.8923C71.6687 61.2498 71.409 60.6221 71.1113 60.0148L73.2379 57.1195C73.6104 56.6125 73.557 55.9092 73.1121 55.4641L72.6583 55.0101C72.1606 54.5124 71.3538 54.5121 70.8559 55.0098C70.4744 55.3912 70.3852 55.9547 70.5886 56.421L68.587 59.1463C68.292 59.548 68.258 60.085 68.5006 60.5207C69.0016 61.4206 69.4002 62.3832 69.6852 63.3817C69.8219 63.8607 70.2253 64.2161 70.7178 64.2916L73.9728 64.7898V69.4334L70.7178 69.9316C70.2253 70.0071 69.8219 70.3626 69.6852 70.8416C69.4002 71.84 69.0017 72.8026 68.5006 73.7027C68.258 74.1382 68.2918 74.6753 68.587 75.077L70.5361 77.7307L67.2527 81.0143L64.5989 79.0649C64.1977 78.7703 63.6604 78.7361 63.2244 78.9786C62.3248 79.4797 61.3624 79.8782 60.3638 80.1631C59.8846 80.2998 59.5291 80.7033 59.4537 81.1958L58.9551 84.4511H54.3115L53.8133 81.1959C53.7378 80.7035 53.3822 80.2999 52.903 80.1633C51.9047 79.8785 50.9423 79.4801 50.0422 78.9788C49.6067 78.7365 49.0694 78.77 48.6679 79.0651L46.0142 81.0144L42.7306 77.7309L44.68 75.0772C44.9749 74.6755 45.0089 74.1386 44.7663 73.7029C44.265 72.8023 43.8664 71.8397 43.5818 70.8421C43.4451 70.3629 43.0416 70.0072 42.5491 69.9318L39.2939 69.4336V64.79L42.5491 64.2918C43.0416 64.2163 43.4451 63.8608 43.5818 63.3817C43.8665 62.3839 44.265 61.4214 44.7663 60.5209C45.0089 60.0853 44.9751 59.5482 44.68 59.1463L42.7306 56.4929L46.0142 53.2093L48.6679 55.1585C49.0694 55.4534 49.6065 55.4873 50.0422 55.2448C50.9423 54.7438 51.9049 54.3452 52.9033 54.0603C53.3823 53.9235 53.7378 53.5201 53.8133 53.0276L54.3115 49.7726H58.9551L59.4533 53.0276C59.5288 53.5201 59.8842 53.9235 60.3632 54.0603C61.3617 54.3452 62.3243 54.7437 63.2242 55.2448C63.6601 55.4873 64.197 55.4536 64.5985 55.1585L67.2526 53.2091C67.7515 53.6924 68.5472 53.6874 69.0403 53.1948C69.538 52.697 69.538 51.8902 69.0403 51.3925L68.2811 50.6333C67.8361 50.1882 67.1328 50.1351 66.6255 50.5074L63.7301 52.6339C63.1228 52.3362 62.4951 52.0766 61.8526 51.8569L61.3092 48.3055C61.2139 47.6834 60.6788 47.224 60.0494 47.224H57.9077V43.9705C57.9077 43.2665 57.3373 42.696 56.6333 42.696C55.9293 42.696 55.3589 43.2665 55.3589 43.9705V47.224H53.2172C52.5878 47.224 52.0525 47.6834 51.9574 48.3055L51.414 51.8569C50.7715 52.0764 50.1436 52.3362 49.5363 52.6339L46.641 50.5074C46.1338 50.1351 45.4305 50.1882 44.9855 50.6333L40.1544 55.4643C39.7094 55.9093 39.6559 56.6128 40.0285 57.12L42.1553 60.0152C41.8574 60.6226 41.5977 61.2503 41.3782 61.8926L37.8267 62.436C37.2046 62.5314 36.7451 63.0665 36.7451 63.6958V70.5279C36.7451 71.1573 37.2046 71.6925 37.8267 71.7877L41.3782 72.3311C41.5976 72.9734 41.8574 73.6011 42.1553 74.2087L40.0285 77.104C39.656 77.6111 39.7094 78.3146 40.1544 78.7596L44.9855 83.5906C45.4307 84.0357 46.134 84.089 46.641 83.7165L49.5363 81.5898C50.1436 81.8877 50.7715 82.1473 51.414 82.3669L51.9574 85.9184C52.0527 86.5405 52.5878 86.9999 53.2172 86.9999H60.0492C60.6786 86.9999 61.2139 86.5405 61.309 85.9184L61.8524 82.3669C62.4951 82.1473 63.1228 81.8877 63.7299 81.5898L66.6254 83.7165C67.1324 84.0887 67.8357 84.0357 68.2809 83.5905L73.1118 78.7594C73.5568 78.3146 73.6104 77.6113 73.2377 77.104L71.1111 74.2087C71.4088 73.6014 71.6687 72.9736 71.8882 72.3311L75.4396 71.7877C76.0617 71.6924 76.5211 71.1573 76.5211 70.5279V63.6958C76.5215 63.0661 76.0618 62.531 75.4397 62.4357Z" stroke="#D92A2A" mask="url(#path-6-outside-1)"/>
<mask id="path-7-outside-2" maskUnits="userSpaceOnUse" x="25.7305" y="17.6776" width="17" height="20" fill="black">
<rect fill="white" x="25.7305" y="17.6776" width="17" height="20"/>
<path d="M41.6134 25.3498C41.61 25.3183 41.6053 25.2874 41.6015 25.256C41.5898 25.1564 41.5769 25.0572 41.5612 24.9588C41.5562 24.9275 41.5499 24.8964 41.5444 24.8651C41.5276 24.7676 41.5096 24.6704 41.489 24.5741C41.4819 24.5414 41.4739 24.509 41.4664 24.4764C41.445 24.3827 41.4224 24.2896 41.3976 24.1974C41.3879 24.1618 41.3776 24.1265 41.3674 24.0912C41.3424 24.0036 41.3162 23.9165 41.288 23.8303C41.2751 23.7906 41.2615 23.7511 41.2477 23.7117C41.2202 23.632 41.1917 23.5528 41.1614 23.4743C41.1443 23.4295 41.1266 23.3848 41.1084 23.3403C41.0797 23.2696 41.05 23.1997 41.0192 23.1302C40.9968 23.0796 40.9742 23.0291 40.9507 22.979C40.9223 22.9189 40.8929 22.8592 40.863 22.7999C40.8343 22.7427 40.8056 22.6856 40.7755 22.6291C40.7497 22.5811 40.7227 22.5336 40.696 22.4862C40.6593 22.4212 40.6228 22.3561 40.5842 22.292C40.5652 22.2606 40.5449 22.2298 40.5256 22.1986C40.2921 21.8242 40.0257 21.4694 39.7264 21.1389C39.7217 21.1337 39.7171 21.1281 39.7123 21.1228C39.6473 21.0513 39.5798 20.9816 39.5117 20.9123C39.4908 20.891 39.4702 20.8694 39.4491 20.8484C39.3878 20.7875 39.3249 20.7281 39.2614 20.6693C39.2308 20.6409 39.2002 20.6127 39.1693 20.5848C39.1407 20.5593 39.1137 20.5325 39.0846 20.5072C39.0726 20.4961 39.0602 20.4851 39.0478 20.4745C39.032 20.4609 39.0158 20.4479 39.006 20.44C38.9485 20.3918 38.8908 20.3439 38.836 20.3007C38.808 20.2783 38.78 20.2564 38.7536 20.236C38.7213 20.2112 38.6889 20.1872 38.6566 20.1631C38.6559 20.1626 38.6551 20.1619 38.6544 20.1614C38.6333 20.1456 38.6123 20.1293 38.5912 20.114C38.5586 20.0898 38.5256 20.0662 38.4943 20.0441C38.4444 20.0088 38.3942 19.9746 38.3383 19.9371L38.2274 19.8637C38.1827 19.8351 38.1377 19.8071 38.0925 19.7792C38.0909 19.7784 38.0792 19.7712 38.0779 19.7702C38.0721 19.7666 38.066 19.7631 38.0602 19.7595C38.06 19.7593 38.0598 19.7593 38.0598 19.7592C38.0262 19.7386 37.9926 19.7182 37.9562 19.6968C37.9156 19.673 37.8746 19.6502 37.8415 19.6319C37.8199 19.6197 37.7966 19.6073 37.7745 19.595C37.7598 19.5869 37.7451 19.5787 37.7304 19.5706C37.7122 19.5607 37.6954 19.5508 37.6765 19.5408L37.5975 19.5005C37.5805 19.4917 37.5628 19.4844 37.5457 19.4759C37.4459 19.4254 37.3448 19.3774 37.2425 19.3315C37.2208 19.3216 37.1992 19.3114 37.1773 19.3019C36.6575 19.0742 36.1069 18.9048 35.5338 18.8005C35.5192 18.7977 35.5044 18.7952 35.4896 18.7926C35.3678 18.7712 35.2451 18.7529 35.1214 18.7374C35.0969 18.7344 35.0724 18.731 35.048 18.7281C34.9333 18.715 34.8179 18.7048 34.7018 18.697C34.6731 18.6949 34.6446 18.6921 34.6157 18.6904C34.4758 18.6825 34.3352 18.6776 34.1934 18.6776C30.0783 18.6776 26.7305 22.0254 26.7305 26.1404V26.7125V29.1239C26.7305 33.2391 30.0783 36.5869 34.1934 36.5869C38.3084 36.5869 41.6562 33.2391 41.6562 29.1239V27.3085V26.1402C41.6562 26.0074 41.6525 25.8752 41.6455 25.744C41.644 25.7146 41.6408 25.6854 41.6387 25.656C41.6316 25.5537 41.6241 25.4512 41.6134 25.3498ZM34.465 21.2346C34.5013 21.2366 34.5374 21.24 34.5736 21.2429C34.6261 21.2468 34.6784 21.2511 34.7306 21.2567C34.7751 21.2616 34.8194 21.2676 34.8636 21.2737C34.9066 21.2795 34.9494 21.2857 34.9922 21.2927C35.0395 21.3005 35.0865 21.3089 35.1333 21.3179C35.1734 21.3257 35.2133 21.3342 35.2531 21.343C35.2995 21.3532 35.346 21.3636 35.3919 21.3751C35.4373 21.3865 35.4821 21.3994 35.5272 21.4122C35.5659 21.423 35.6048 21.4334 35.6432 21.4451C35.7265 21.4711 35.8094 21.4988 35.8915 21.5294C35.9034 21.5338 35.9149 21.5389 35.9268 21.5433C36.0023 21.5721 36.0774 21.6023 36.1516 21.6349C36.1661 21.6412 36.1803 21.648 36.1948 21.6545C36.2678 21.6873 36.3404 21.7218 36.4124 21.7585C36.4478 21.7763 36.4833 21.7938 36.518 21.8125C36.5329 21.8207 36.5491 21.8297 36.5655 21.839C36.6147 21.8662 36.6633 21.8941 36.7113 21.923L36.7548 21.9493C36.7594 21.9522 36.7635 21.9547 36.7683 21.9576C36.8192 21.9892 36.8699 22.0213 36.9197 22.0548L36.922 22.0563C36.9387 22.0674 36.9557 22.0794 36.9723 22.091C37.0179 22.1223 37.0631 22.1542 37.1074 22.187C37.1251 22.2001 37.1429 22.2137 37.1608 22.2271C37.2038 22.2599 37.2463 22.2932 37.2882 22.3272C37.3059 22.3415 37.3236 22.3559 37.3412 22.3707C37.3749 22.3987 37.4077 22.4276 37.4403 22.4565C37.4704 22.483 37.5001 22.5095 37.5293 22.5367C37.5598 22.5649 37.5895 22.5935 37.6192 22.6223C37.6446 22.647 37.6699 22.6718 37.6947 22.6969C37.7265 22.7292 37.7575 22.762 37.7883 22.7952C37.8101 22.8184 37.8318 22.8419 37.853 22.8655C37.885 22.901 37.9161 22.9374 37.9468 22.9737C37.9662 22.9965 37.9854 23.0193 38.0043 23.0424C38.0349 23.0801 38.0648 23.1184 38.0943 23.1569C38.1125 23.1805 38.1307 23.2043 38.1484 23.2283C38.1764 23.2664 38.2036 23.3049 38.2306 23.3438C38.2486 23.3698 38.2668 23.3957 38.2843 23.422C38.3089 23.4589 38.3326 23.4964 38.3562 23.534C38.3749 23.5637 38.3936 23.5933 38.4116 23.6232C38.432 23.6572 38.4515 23.6918 38.4711 23.7265C38.4906 23.7612 38.5105 23.7957 38.5292 23.8308C38.5453 23.8609 38.5604 23.8917 38.5759 23.9221C38.5965 23.9624 38.617 24.0026 38.6362 24.0436C38.6481 24.0686 38.6592 24.094 38.6705 24.1194C38.6918 24.1664 38.713 24.2133 38.7329 24.2609C38.7405 24.2793 38.7473 24.2981 38.7548 24.3166C38.7767 24.3714 38.7985 24.4261 38.8184 24.4816C38.8219 24.4917 38.8252 24.5019 38.8287 24.5119C38.9429 24.8363 39.0224 25.1734 39.0665 25.5182C39.0704 25.5484 39.0748 25.5785 39.078 25.6089C38.4607 25.2883 37.9287 24.8091 37.5367 24.205C37.321 23.8728 36.9633 23.6597 36.5686 23.6283C36.1759 23.5969 35.787 23.7508 35.5217 24.0448C34.363 25.3289 32.7087 26.0651 30.9831 26.0651C30.4045 26.0651 29.8378 25.9853 29.2903 25.8269C29.2924 25.7939 29.2951 25.7613 29.2978 25.7285C29.301 25.6898 29.3038 25.651 29.308 25.6126C29.3126 25.5696 29.3187 25.527 29.3243 25.4842C29.3294 25.447 29.3338 25.4094 29.3396 25.3724C29.3466 25.3287 29.3549 25.2857 29.3629 25.2424C29.3695 25.2067 29.3755 25.1708 29.3828 25.1355C29.392 25.0915 29.4028 25.048 29.4132 25.0043C29.4212 24.9705 29.4285 24.9362 29.4373 24.9027C29.4494 24.8567 29.463 24.8115 29.4762 24.7661C29.4851 24.7355 29.4932 24.7046 29.5027 24.6743C29.5202 24.6183 29.5396 24.563 29.5592 24.508C29.566 24.4891 29.5717 24.4697 29.5787 24.4509C29.6057 24.3773 29.6344 24.3046 29.6648 24.2329C29.6749 24.2092 29.6861 24.1863 29.6965 24.1629C29.7177 24.1148 29.7388 24.0667 29.7614 24.0194C29.7753 23.9906 29.7904 23.9624 29.8049 23.9338C29.8256 23.8929 29.8458 23.8517 29.8676 23.8115C29.8837 23.7814 29.9012 23.7522 29.918 23.7226C29.9396 23.6847 29.9609 23.6465 29.9833 23.6093C30.0013 23.5793 30.0203 23.5503 30.039 23.5209C30.062 23.4847 30.0846 23.4485 30.1082 23.413C30.1279 23.3836 30.1486 23.3549 30.1688 23.326C30.193 23.2917 30.2168 23.2572 30.2417 23.2235C30.263 23.1948 30.2852 23.1668 30.3072 23.1384C30.3326 23.1056 30.358 23.0726 30.3843 23.0404C30.4071 23.0125 30.4303 22.9855 30.4536 22.9581C30.4805 22.9267 30.5072 22.8952 30.5349 22.8643C30.559 22.8375 30.5838 22.8111 30.6084 22.7846C30.6365 22.7547 30.6645 22.7248 30.6934 22.6956C30.7189 22.6698 30.7449 22.6443 30.771 22.619C30.8003 22.5906 30.8297 22.5622 30.8597 22.5345C30.8864 22.5097 30.9138 22.4856 30.941 22.4614C30.9715 22.4344 31.0023 22.4076 31.0334 22.3812C31.0613 22.3578 31.0896 22.3347 31.118 22.3119C31.1498 22.2862 31.1819 22.2609 31.2144 22.2361C31.2434 22.2139 31.2727 22.1921 31.3022 22.1705C31.3352 22.1464 31.3685 22.1228 31.402 22.0995C31.432 22.0786 31.4623 22.0582 31.4929 22.038C31.527 22.0154 31.5615 21.9933 31.5964 21.9715C31.6273 21.9522 31.6584 21.933 31.69 21.9143C31.7253 21.8932 31.761 21.8728 31.797 21.8526C31.829 21.8348 31.8609 21.8169 31.8932 21.7998C31.9297 21.7804 31.9666 21.7617 32.0037 21.7432C32.0363 21.7269 32.0689 21.7105 32.1019 21.6951C32.1396 21.6772 32.1777 21.6603 32.2159 21.6434C32.2492 21.6286 32.2825 21.6139 32.3163 21.5999C32.3551 21.5838 32.3945 21.5687 32.4337 21.5535C32.4677 21.5405 32.5015 21.5272 32.5359 21.515C32.576 21.5005 32.6167 21.4871 32.6573 21.4738C32.6915 21.4625 32.7257 21.4509 32.7601 21.4404C32.8016 21.4278 32.8437 21.4162 32.8857 21.4047C32.9202 21.3952 32.9545 21.3851 32.9894 21.3763C33.0324 21.3654 33.0759 21.3561 33.1192 21.3462C33.1537 21.3384 33.188 21.3303 33.2228 21.3233C33.2677 21.3143 33.3131 21.3068 33.3584 21.299C33.3924 21.2932 33.4261 21.2866 33.4604 21.2815C33.5083 21.2744 33.5569 21.2689 33.6053 21.263C33.6373 21.2591 33.6691 21.2545 33.7013 21.2513C33.7555 21.2458 33.8104 21.2424 33.8651 21.2387C33.8922 21.237 33.9188 21.2341 33.946 21.2327C34.0281 21.2287 34.1107 21.2264 34.1938 21.2264C34.2842 21.2268 34.3747 21.2298 34.465 21.2346ZM34.1929 34.0384C31.4834 34.0384 29.2788 31.8338 29.2788 29.1242V28.4446C29.8363 28.5562 30.4052 28.6141 30.9826 28.6141C32.9386 28.6141 34.8293 27.947 36.3475 26.7498C37.1222 27.5027 38.0675 28.0519 39.1067 28.3519V29.1241C39.1069 31.834 36.9025 34.0384 34.1929 34.0384Z"/>
</mask>
<path d="M41.6134 25.3498C41.61 25.3183 41.6053 25.2874 41.6015 25.256C41.5898 25.1564 41.5769 25.0572 41.5612 24.9588C41.5562 24.9275 41.5499 24.8964 41.5444 24.8651C41.5276 24.7676 41.5096 24.6704 41.489 24.5741C41.4819 24.5414 41.4739 24.509 41.4664 24.4764C41.445 24.3827 41.4224 24.2896 41.3976 24.1974C41.3879 24.1618 41.3776 24.1265 41.3674 24.0912C41.3424 24.0036 41.3162 23.9165 41.288 23.8303C41.2751 23.7906 41.2615 23.7511 41.2477 23.7117C41.2202 23.632 41.1917 23.5528 41.1614 23.4743C41.1443 23.4295 41.1266 23.3848 41.1084 23.3403C41.0797 23.2696 41.05 23.1997 41.0192 23.1302C40.9968 23.0796 40.9742 23.0291 40.9507 22.979C40.9223 22.9189 40.8929 22.8592 40.863 22.7999C40.8343 22.7427 40.8056 22.6856 40.7755 22.6291C40.7497 22.5811 40.7227 22.5336 40.696 22.4862C40.6593 22.4212 40.6228 22.3561 40.5842 22.292C40.5652 22.2606 40.5449 22.2298 40.5256 22.1986C40.2921 21.8242 40.0257 21.4694 39.7264 21.1389C39.7217 21.1337 39.7171 21.1281 39.7123 21.1228C39.6473 21.0513 39.5798 20.9816 39.5117 20.9123C39.4908 20.891 39.4702 20.8694 39.4491 20.8484C39.3878 20.7875 39.3249 20.7281 39.2614 20.6693C39.2308 20.6409 39.2002 20.6127 39.1693 20.5848C39.1407 20.5593 39.1137 20.5325 39.0846 20.5072C39.0726 20.4961 39.0602 20.4851 39.0478 20.4745C39.032 20.4609 39.0158 20.4479 39.006 20.44C38.9485 20.3918 38.8908 20.3439 38.836 20.3007C38.808 20.2783 38.78 20.2564 38.7536 20.236C38.7213 20.2112 38.6889 20.1872 38.6566 20.1631C38.6559 20.1626 38.6551 20.1619 38.6544 20.1614C38.6333 20.1456 38.6123 20.1293 38.5912 20.114C38.5586 20.0898 38.5256 20.0662 38.4943 20.0441C38.4444 20.0088 38.3942 19.9746 38.3383 19.9371L38.2274 19.8637C38.1827 19.8351 38.1377 19.8071 38.0925 19.7792C38.0909 19.7784 38.0792 19.7712 38.0779 19.7702C38.0721 19.7666 38.066 19.7631 38.0602 19.7595C38.06 19.7593 38.0598 19.7593 38.0598 19.7592C38.0262 19.7386 37.9926 19.7182 37.9562 19.6968C37.9156 19.673 37.8746 19.6502 37.8415 19.6319C37.8199 19.6197 37.7966 19.6073 37.7745 19.595C37.7598 19.5869 37.7451 19.5787 37.7304 19.5706C37.7122 19.5607 37.6954 19.5508 37.6765 19.5408L37.5975 19.5005C37.5805 19.4917 37.5628 19.4844 37.5457 19.4759C37.4459 19.4254 37.3448 19.3774 37.2425 19.3315C37.2208 19.3216 37.1992 19.3114 37.1773 19.3019C36.6575 19.0742 36.1069 18.9048 35.5338 18.8005C35.5192 18.7977 35.5044 18.7952 35.4896 18.7926C35.3678 18.7712 35.2451 18.7529 35.1214 18.7374C35.0969 18.7344 35.0724 18.731 35.048 18.7281C34.9333 18.715 34.8179 18.7048 34.7018 18.697C34.6731 18.6949 34.6446 18.6921 34.6157 18.6904C34.4758 18.6825 34.3352 18.6776 34.1934 18.6776C30.0783 18.6776 26.7305 22.0254 26.7305 26.1404V26.7125V29.1239C26.7305 33.2391 30.0783 36.5869 34.1934 36.5869C38.3084 36.5869 41.6562 33.2391 41.6562 29.1239V27.3085V26.1402C41.6562 26.0074 41.6525 25.8752 41.6455 25.744C41.644 25.7146 41.6408 25.6854 41.6387 25.656C41.6316 25.5537 41.6241 25.4512 41.6134 25.3498ZM34.465 21.2346C34.5013 21.2366 34.5374 21.24 34.5736 21.2429C34.6261 21.2468 34.6784 21.2511 34.7306 21.2567C34.7751 21.2616 34.8194 21.2676 34.8636 21.2737C34.9066 21.2795 34.9494 21.2857 34.9922 21.2927C35.0395 21.3005 35.0865 21.3089 35.1333 21.3179C35.1734 21.3257 35.2133 21.3342 35.2531 21.343C35.2995 21.3532 35.346 21.3636 35.3919 21.3751C35.4373 21.3865 35.4821 21.3994 35.5272 21.4122C35.5659 21.423 35.6048 21.4334 35.6432 21.4451C35.7265 21.4711 35.8094 21.4988 35.8915 21.5294C35.9034 21.5338 35.9149 21.5389 35.9268 21.5433C36.0023 21.5721 36.0774 21.6023 36.1516 21.6349C36.1661 21.6412 36.1803 21.648 36.1948 21.6545C36.2678 21.6873 36.3404 21.7218 36.4124 21.7585C36.4478 21.7763 36.4833 21.7938 36.518 21.8125C36.5329 21.8207 36.5491 21.8297 36.5655 21.839C36.6147 21.8662 36.6633 21.8941 36.7113 21.923L36.7548 21.9493C36.7594 21.9522 36.7635 21.9547 36.7683 21.9576C36.8192 21.9892 36.8699 22.0213 36.9197 22.0548L36.922 22.0563C36.9387 22.0674 36.9557 22.0794 36.9723 22.091C37.0179 22.1223 37.0631 22.1542 37.1074 22.187C37.1251 22.2001 37.1429 22.2137 37.1608 22.2271C37.2038 22.2599 37.2463 22.2932 37.2882 22.3272C37.3059 22.3415 37.3236 22.3559 37.3412 22.3707C37.3749 22.3987 37.4077 22.4276 37.4403 22.4565C37.4704 22.483 37.5001 22.5095 37.5293 22.5367C37.5598 22.5649 37.5895 22.5935 37.6192 22.6223C37.6446 22.647 37.6699 22.6718 37.6947 22.6969C37.7265 22.7292 37.7575 22.762 37.7883 22.7952C37.8101 22.8184 37.8318 22.8419 37.853 22.8655C37.885 22.901 37.9161 22.9374 37.9468 22.9737C37.9662 22.9965 37.9854 23.0193 38.0043 23.0424C38.0349 23.0801 38.0648 23.1184 38.0943 23.1569C38.1125 23.1805 38.1307 23.2043 38.1484 23.2283C38.1764 23.2664 38.2036 23.3049 38.2306 23.3438C38.2486 23.3698 38.2668 23.3957 38.2843 23.422C38.3089 23.4589 38.3326 23.4964 38.3562 23.534C38.3749 23.5637 38.3936 23.5933 38.4116 23.6232C38.432 23.6572 38.4515 23.6918 38.4711 23.7265C38.4906 23.7612 38.5105 23.7957 38.5292 23.8308C38.5453 23.8609 38.5604 23.8917 38.5759 23.9221C38.5965 23.9624 38.617 24.0026 38.6362 24.0436C38.6481 24.0686 38.6592 24.094 38.6705 24.1194C38.6918 24.1664 38.713 24.2133 38.7329 24.2609C38.7405 24.2793 38.7473 24.2981 38.7548 24.3166C38.7767 24.3714 38.7985 24.4261 38.8184 24.4816C38.8219 24.4917 38.8252 24.5019 38.8287 24.5119C38.9429 24.8363 39.0224 25.1734 39.0665 25.5182C39.0704 25.5484 39.0748 25.5785 39.078 25.6089C38.4607 25.2883 37.9287 24.8091 37.5367 24.205C37.321 23.8728 36.9633 23.6597 36.5686 23.6283C36.1759 23.5969 35.787 23.7508 35.5217 24.0448C34.363 25.3289 32.7087 26.0651 30.9831 26.0651C30.4045 26.0651 29.8378 25.9853 29.2903 25.8269C29.2924 25.7939 29.2951 25.7613 29.2978 25.7285C29.301 25.6898 29.3038 25.651 29.308 25.6126C29.3126 25.5696 29.3187 25.527 29.3243 25.4842C29.3294 25.447 29.3338 25.4094 29.3396 25.3724C29.3466 25.3287 29.3549 25.2857 29.3629 25.2424C29.3695 25.2067 29.3755 25.1708 29.3828 25.1355C29.392 25.0915 29.4028 25.048 29.4132 25.0043C29.4212 24.9705 29.4285 24.9362 29.4373 24.9027C29.4494 24.8567 29.463 24.8115 29.4762 24.7661C29.4851 24.7355 29.4932 24.7046 29.5027 24.6743C29.5202 24.6183 29.5396 24.563 29.5592 24.508C29.566 24.4891 29.5717 24.4697 29.5787 24.4509C29.6057 24.3773 29.6344 24.3046 29.6648 24.2329C29.6749 24.2092 29.6861 24.1863 29.6965 24.1629C29.7177 24.1148 29.7388 24.0667 29.7614 24.0194C29.7753 23.9906 29.7904 23.9624 29.8049 23.9338C29.8256 23.8929 29.8458 23.8517 29.8676 23.8115C29.8837 23.7814 29.9012 23.7522 29.918 23.7226C29.9396 23.6847 29.9609 23.6465 29.9833 23.6093C30.0013 23.5793 30.0203 23.5503 30.039 23.5209C30.062 23.4847 30.0846 23.4485 30.1082 23.413C30.1279 23.3836 30.1486 23.3549 30.1688 23.326C30.193 23.2917 30.2168 23.2572 30.2417 23.2235C30.263 23.1948 30.2852 23.1668 30.3072 23.1384C30.3326 23.1056 30.358 23.0726 30.3843 23.0404C30.4071 23.0125 30.4303 22.9855 30.4536 22.9581C30.4805 22.9267 30.5072 22.8952 30.5349 22.8643C30.559 22.8375 30.5838 22.8111 30.6084 22.7846C30.6365 22.7547 30.6645 22.7248 30.6934 22.6956C30.7189 22.6698 30.7449 22.6443 30.771 22.619C30.8003 22.5906 30.8297 22.5622 30.8597 22.5345C30.8864 22.5097 30.9138 22.4856 30.941 22.4614C30.9715 22.4344 31.0023 22.4076 31.0334 22.3812C31.0613 22.3578 31.0896 22.3347 31.118 22.3119C31.1498 22.2862 31.1819 22.2609 31.2144 22.2361C31.2434 22.2139 31.2727 22.1921 31.3022 22.1705C31.3352 22.1464 31.3685 22.1228 31.402 22.0995C31.432 22.0786 31.4623 22.0582 31.4929 22.038C31.527 22.0154 31.5615 21.9933 31.5964 21.9715C31.6273 21.9522 31.6584 21.933 31.69 21.9143C31.7253 21.8932 31.761 21.8728 31.797 21.8526C31.829 21.8348 31.8609 21.8169 31.8932 21.7998C31.9297 21.7804 31.9666 21.7617 32.0037 21.7432C32.0363 21.7269 32.0689 21.7105 32.1019 21.6951C32.1396 21.6772 32.1777 21.6603 32.2159 21.6434C32.2492 21.6286 32.2825 21.6139 32.3163 21.5999C32.3551 21.5838 32.3945 21.5687 32.4337 21.5535C32.4677 21.5405 32.5015 21.5272 32.5359 21.515C32.576 21.5005 32.6167 21.4871 32.6573 21.4738C32.6915 21.4625 32.7257 21.4509 32.7601 21.4404C32.8016 21.4278 32.8437 21.4162 32.8857 21.4047C32.9202 21.3952 32.9545 21.3851 32.9894 21.3763C33.0324 21.3654 33.0759 21.3561 33.1192 21.3462C33.1537 21.3384 33.188 21.3303 33.2228 21.3233C33.2677 21.3143 33.3131 21.3068 33.3584 21.299C33.3924 21.2932 33.4261 21.2866 33.4604 21.2815C33.5083 21.2744 33.5569 21.2689 33.6053 21.263C33.6373 21.2591 33.6691 21.2545 33.7013 21.2513C33.7555 21.2458 33.8104 21.2424 33.8651 21.2387C33.8922 21.237 33.9188 21.2341 33.946 21.2327C34.0281 21.2287 34.1107 21.2264 34.1938 21.2264C34.2842 21.2268 34.3747 21.2298 34.465 21.2346ZM34.1929 34.0384C31.4834 34.0384 29.2788 31.8338 29.2788 29.1242V28.4446C29.8363 28.5562 30.4052 28.6141 30.9826 28.6141C32.9386 28.6141 34.8293 27.947 36.3475 26.7498C37.1222 27.5027 38.0675 28.0519 39.1067 28.3519V29.1241C39.1069 31.834 36.9025 34.0384 34.1929 34.0384Z" fill="#D92A2A"/>
<path d="M41.6134 25.3498C41.61 25.3183 41.6053 25.2874 41.6015 25.256C41.5898 25.1564 41.5769 25.0572 41.5612 24.9588C41.5562 24.9275 41.5499 24.8964 41.5444 24.8651C41.5276 24.7676 41.5096 24.6704 41.489 24.5741C41.4819 24.5414 41.4739 24.509 41.4664 24.4764C41.445 24.3827 41.4224 24.2896 41.3976 24.1974C41.3879 24.1618 41.3776 24.1265 41.3674 24.0912C41.3424 24.0036 41.3162 23.9165 41.288 23.8303C41.2751 23.7906 41.2615 23.7511 41.2477 23.7117C41.2202 23.632 41.1917 23.5528 41.1614 23.4743C41.1443 23.4295 41.1266 23.3848 41.1084 23.3403C41.0797 23.2696 41.05 23.1997 41.0192 23.1302C40.9968 23.0796 40.9742 23.0291 40.9507 22.979C40.9223 22.9189 40.8929 22.8592 40.863 22.7999C40.8343 22.7427 40.8056 22.6856 40.7755 22.6291C40.7497 22.5811 40.7227 22.5336 40.696 22.4862C40.6593 22.4212 40.6228 22.3561 40.5842 22.292C40.5652 22.2606 40.5449 22.2298 40.5256 22.1986C40.2921 21.8242 40.0257 21.4694 39.7264 21.1389C39.7217 21.1337 39.7171 21.1281 39.7123 21.1228C39.6473 21.0513 39.5798 20.9816 39.5117 20.9123C39.4908 20.891 39.4702 20.8694 39.4491 20.8484C39.3878 20.7875 39.3249 20.7281 39.2614 20.6693C39.2308 20.6409 39.2002 20.6127 39.1693 20.5848C39.1407 20.5593 39.1137 20.5325 39.0846 20.5072C39.0726 20.4961 39.0602 20.4851 39.0478 20.4745C39.032 20.4609 39.0158 20.4479 39.006 20.44C38.9485 20.3918 38.8908 20.3439 38.836 20.3007C38.808 20.2783 38.78 20.2564 38.7536 20.236C38.7213 20.2112 38.6889 20.1872 38.6566 20.1631C38.6559 20.1626 38.6551 20.1619 38.6544 20.1614C38.6333 20.1456 38.6123 20.1293 38.5912 20.114C38.5586 20.0898 38.5256 20.0662 38.4943 20.0441C38.4444 20.0088 38.3942 19.9746 38.3383 19.9371L38.2274 19.8637C38.1827 19.8351 38.1377 19.8071 38.0925 19.7792C38.0909 19.7784 38.0792 19.7712 38.0779 19.7702C38.0721 19.7666 38.066 19.7631 38.0602 19.7595C38.06 19.7593 38.0598 19.7593 38.0598 19.7592C38.0262 19.7386 37.9926 19.7182 37.9562 19.6968C37.9156 19.673 37.8746 19.6502 37.8415 19.6319C37.8199 19.6197 37.7966 19.6073 37.7745 19.595C37.7598 19.5869 37.7451 19.5787 37.7304 19.5706C37.7122 19.5607 37.6954 19.5508 37.6765 19.5408L37.5975 19.5005C37.5805 19.4917 37.5628 19.4844 37.5457 19.4759C37.4459 19.4254 37.3448 19.3774 37.2425 19.3315C37.2208 19.3216 37.1992 19.3114 37.1773 19.3019C36.6575 19.0742 36.1069 18.9048 35.5338 18.8005C35.5192 18.7977 35.5044 18.7952 35.4896 18.7926C35.3678 18.7712 35.2451 18.7529 35.1214 18.7374C35.0969 18.7344 35.0724 18.731 35.048 18.7281C34.9333 18.715 34.8179 18.7048 34.7018 18.697C34.6731 18.6949 34.6446 18.6921 34.6157 18.6904C34.4758 18.6825 34.3352 18.6776 34.1934 18.6776C30.0783 18.6776 26.7305 22.0254 26.7305 26.1404V26.7125V29.1239C26.7305 33.2391 30.0783 36.5869 34.1934 36.5869C38.3084 36.5869 41.6562 33.2391 41.6562 29.1239V27.3085V26.1402C41.6562 26.0074 41.6525 25.8752 41.6455 25.744C41.644 25.7146 41.6408 25.6854 41.6387 25.656C41.6316 25.5537 41.6241 25.4512 41.6134 25.3498ZM34.465 21.2346C34.5013 21.2366 34.5374 21.24 34.5736 21.2429C34.6261 21.2468 34.6784 21.2511 34.7306 21.2567C34.7751 21.2616 34.8194 21.2676 34.8636 21.2737C34.9066 21.2795 34.9494 21.2857 34.9922 21.2927C35.0395 21.3005 35.0865 21.3089 35.1333 21.3179C35.1734 21.3257 35.2133 21.3342 35.2531 21.343C35.2995 21.3532 35.346 21.3636 35.3919 21.3751C35.4373 21.3865 35.4821 21.3994 35.5272 21.4122C35.5659 21.423 35.6048 21.4334 35.6432 21.4451C35.7265 21.4711 35.8094 21.4988 35.8915 21.5294C35.9034 21.5338 35.9149 21.5389 35.9268 21.5433C36.0023 21.5721 36.0774 21.6023 36.1516 21.6349C36.1661 21.6412 36.1803 21.648 36.1948 21.6545C36.2678 21.6873 36.3404 21.7218 36.4124 21.7585C36.4478 21.7763 36.4833 21.7938 36.518 21.8125C36.5329 21.8207 36.5491 21.8297 36.5655 21.839C36.6147 21.8662 36.6633 21.8941 36.7113 21.923L36.7548 21.9493C36.7594 21.9522 36.7635 21.9547 36.7683 21.9576C36.8192 21.9892 36.8699 22.0213 36.9197 22.0548L36.922 22.0563C36.9387 22.0674 36.9557 22.0794 36.9723 22.091C37.0179 22.1223 37.0631 22.1542 37.1074 22.187C37.1251 22.2001 37.1429 22.2137 37.1608 22.2271C37.2038 22.2599 37.2463 22.2932 37.2882 22.3272C37.3059 22.3415 37.3236 22.3559 37.3412 22.3707C37.3749 22.3987 37.4077 22.4276 37.4403 22.4565C37.4704 22.483 37.5001 22.5095 37.5293 22.5367C37.5598 22.5649 37.5895 22.5935 37.6192 22.6223C37.6446 22.647 37.6699 22.6718 37.6947 22.6969C37.7265 22.7292 37.7575 22.762 37.7883 22.7952C37.8101 22.8184 37.8318 22.8419 37.853 22.8655C37.885 22.901 37.9161 22.9374 37.9468 22.9737C37.9662 22.9965 37.9854 23.0193 38.0043 23.0424C38.0349 23.0801 38.0648 23.1184 38.0943 23.1569C38.1125 23.1805 38.1307 23.2043 38.1484 23.2283C38.1764 23.2664 38.2036 23.3049 38.2306 23.3438C38.2486 23.3698 38.2668 23.3957 38.2843 23.422C38.3089 23.4589 38.3326 23.4964 38.3562 23.534C38.3749 23.5637 38.3936 23.5933 38.4116 23.6232C38.432 23.6572 38.4515 23.6918 38.4711 23.7265C38.4906 23.7612 38.5105 23.7957 38.5292 23.8308C38.5453 23.8609 38.5604 23.8917 38.5759 23.9221C38.5965 23.9624 38.617 24.0026 38.6362 24.0436C38.6481 24.0686 38.6592 24.094 38.6705 24.1194C38.6918 24.1664 38.713 24.2133 38.7329 24.2609C38.7405 24.2793 38.7473 24.2981 38.7548 24.3166C38.7767 24.3714 38.7985 24.4261 38.8184 24.4816C38.8219 24.4917 38.8252 24.5019 38.8287 24.5119C38.9429 24.8363 39.0224 25.1734 39.0665 25.5182C39.0704 25.5484 39.0748 25.5785 39.078 25.6089C38.4607 25.2883 37.9287 24.8091 37.5367 24.205C37.321 23.8728 36.9633 23.6597 36.5686 23.6283C36.1759 23.5969 35.787 23.7508 35.5217 24.0448C34.363 25.3289 32.7087 26.0651 30.9831 26.0651C30.4045 26.0651 29.8378 25.9853 29.2903 25.8269C29.2924 25.7939 29.2951 25.7613 29.2978 25.7285C29.301 25.6898 29.3038 25.651 29.308 25.6126C29.3126 25.5696 29.3187 25.527 29.3243 25.4842C29.3294 25.447 29.3338 25.4094 29.3396 25.3724C29.3466 25.3287 29.3549 25.2857 29.3629 25.2424C29.3695 25.2067 29.3755 25.1708 29.3828 25.1355C29.392 25.0915 29.4028 25.048 29.4132 25.0043C29.4212 24.9705 29.4285 24.9362 29.4373 24.9027C29.4494 24.8567 29.463 24.8115 29.4762 24.7661C29.4851 24.7355 29.4932 24.7046 29.5027 24.6743C29.5202 24.6183 29.5396 24.563 29.5592 24.508C29.566 24.4891 29.5717 24.4697 29.5787 24.4509C29.6057 24.3773 29.6344 24.3046 29.6648 24.2329C29.6749 24.2092 29.6861 24.1863 29.6965 24.1629C29.7177 24.1148 29.7388 24.0667 29.7614 24.0194C29.7753 23.9906 29.7904 23.9624 29.8049 23.9338C29.8256 23.8929 29.8458 23.8517 29.8676 23.8115C29.8837 23.7814 29.9012 23.7522 29.918 23.7226C29.9396 23.6847 29.9609 23.6465 29.9833 23.6093C30.0013 23.5793 30.0203 23.5503 30.039 23.5209C30.062 23.4847 30.0846 23.4485 30.1082 23.413C30.1279 23.3836 30.1486 23.3549 30.1688 23.326C30.193 23.2917 30.2168 23.2572 30.2417 23.2235C30.263 23.1948 30.2852 23.1668 30.3072 23.1384C30.3326 23.1056 30.358 23.0726 30.3843 23.0404C30.4071 23.0125 30.4303 22.9855 30.4536 22.9581C30.4805 22.9267 30.5072 22.8952 30.5349 22.8643C30.559 22.8375 30.5838 22.8111 30.6084 22.7846C30.6365 22.7547 30.6645 22.7248 30.6934 22.6956C30.7189 22.6698 30.7449 22.6443 30.771 22.619C30.8003 22.5906 30.8297 22.5622 30.8597 22.5345C30.8864 22.5097 30.9138 22.4856 30.941 22.4614C30.9715 22.4344 31.0023 22.4076 31.0334 22.3812C31.0613 22.3578 31.0896 22.3347 31.118 22.3119C31.1498 22.2862 31.1819 22.2609 31.2144 22.2361C31.2434 22.2139 31.2727 22.1921 31.3022 22.1705C31.3352 22.1464 31.3685 22.1228 31.402 22.0995C31.432 22.0786 31.4623 22.0582 31.4929 22.038C31.527 22.0154 31.5615 21.9933 31.5964 21.9715C31.6273 21.9522 31.6584 21.933 31.69 21.9143C31.7253 21.8932 31.761 21.8728 31.797 21.8526C31.829 21.8348 31.8609 21.8169 31.8932 21.7998C31.9297 21.7804 31.9666 21.7617 32.0037 21.7432C32.0363 21.7269 32.0689 21.7105 32.1019 21.6951C32.1396 21.6772 32.1777 21.6603 32.2159 21.6434C32.2492 21.6286 32.2825 21.6139 32.3163 21.5999C32.3551 21.5838 32.3945 21.5687 32.4337 21.5535C32.4677 21.5405 32.5015 21.5272 32.5359 21.515C32.576 21.5005 32.6167 21.4871 32.6573 21.4738C32.6915 21.4625 32.7257 21.4509 32.7601 21.4404C32.8016 21.4278 32.8437 21.4162 32.8857 21.4047C32.9202 21.3952 32.9545 21.3851 32.9894 21.3763C33.0324 21.3654 33.0759 21.3561 33.1192 21.3462C33.1537 21.3384 33.188 21.3303 33.2228 21.3233C33.2677 21.3143 33.3131 21.3068 33.3584 21.299C33.3924 21.2932 33.4261 21.2866 33.4604 21.2815C33.5083 21.2744 33.5569 21.2689 33.6053 21.263C33.6373 21.2591 33.6691 21.2545 33.7013 21.2513C33.7555 21.2458 33.8104 21.2424 33.8651 21.2387C33.8922 21.237 33.9188 21.2341 33.946 21.2327C34.0281 21.2287 34.1107 21.2264 34.1938 21.2264C34.2842 21.2268 34.3747 21.2298 34.465 21.2346ZM34.1929 34.0384C31.4834 34.0384 29.2788 31.8338 29.2788 29.1242V28.4446C29.8363 28.5562 30.4052 28.6141 30.9826 28.6141C32.9386 28.6141 34.8293 27.947 36.3475 26.7498C37.1222 27.5027 38.0675 28.0519 39.1067 28.3519V29.1241C39.1069 31.834 36.9025 34.0384 34.1929 34.0384Z" stroke="#D92A2A" mask="url(#path-7-outside-2)"/>
<path d="M39.0242 38.1893V38.1893C39.0476 38.1956 39.0703 38.2023 39.0922 38.2092C39.0927 38.2093 39.0931 38.2095 39.0936 38.2096L39.0242 38.1893ZM39.0242 38.1893L39.0234 38.1891M39.0242 38.1893L39.0234 38.1891M39.0234 38.1891L38.7927 38.1283L38.7927 38.1283M39.0234 38.1891L38.7927 38.1283M38.7927 38.1283L38.79 38.1276M38.7927 38.1283L38.79 38.1276M38.79 38.1276C38.6973 38.1042 38.6019 38.083 38.5089 38.0638C38.4923 38.0597 38.4762 38.0562 38.4614 38.0531L38.4614 38.0531M38.79 38.1276L38.4614 38.0531M38.4614 38.0531L38.4598 38.0528M38.4614 38.0531L38.4598 38.0528M38.4598 38.0528C38.36 38.0326 38.2582 38.014 38.1561 37.9977C38.0599 37.9807 37.962 37.9658 37.8613 37.9531C37.8611 37.9531 37.8609 37.9531 37.8607 37.9531L37.8136 37.9469L37.8136 37.9469M38.4598 38.0528L37.8136 37.9469M37.8136 37.9469L37.8107 37.9466M37.8136 37.9469L37.8107 37.9466M37.8107 37.9466C37.7059 37.9342 37.6014 37.9236 37.4904 37.9149L37.4896 37.9148M37.8107 37.9466L37.4896 37.9148M37.4896 37.9148C37.4108 37.9088 37.3304 37.903 37.2419 37.8985L37.4896 37.9148ZM31.1386 37.8988L31.1396 37.8987C31.186 37.8966 31.2311 37.8946 31.2769 37.8939C31.3682 37.8903 31.461 37.8884 31.5538 37.8884H36.8335C36.9261 37.8884 37.0194 37.8901 37.1109 37.8938L31.1386 37.8988ZM31.1386 37.8988C31.0568 37.9029 30.9758 37.9089 30.8939 37.9152L30.8934 37.9152M31.1386 37.8988L30.8934 37.9152M30.8934 37.9152C30.7866 37.9236 30.6815 37.934 30.573 37.947L30.573 37.9469M30.8934 37.9152L30.573 37.9469M30.573 37.9469L30.5703 37.9473M30.573 37.9469L30.5703 37.9473M30.5703 37.9473L30.5261 37.9531C30.5259 37.9531 30.5257 37.9531 30.5255 37.9532C30.425 37.9659 30.3268 37.981 30.231 37.9977C30.1295 38.0141 30.0277 38.0325 29.9274 38.0528L29.9274 38.0528M30.5703 37.9473L29.9274 38.0528M29.9274 38.0528L29.9259 38.0531M29.9274 38.0528L29.9259 38.0531M29.9259 38.0531C29.9111 38.0562 29.895 38.0597 29.8784 38.0638C29.7848 38.0831 29.6882 38.1047 29.5854 38.1307L29.5854 38.1307M29.9259 38.0531L29.5854 38.1307M29.5854 38.1307L29.5827 38.1314M29.5854 38.1307L29.5827 38.1314M29.5827 38.1314L29.3654 38.1889M29.5827 38.1314L29.3654 38.1889M44.212 46.473L44.212 46.473C41.2505 48.4828 37.7858 49.5453 34.1935 49.5453C30.6012 49.5453 27.1364 48.4828 24.1751 46.4728C23.7049 46.1538 23.4513 45.5993 23.5171 45.035C23.8732 41.982 25.966 39.3735 28.8649 38.3524C28.9041 38.3354 28.9439 38.3202 28.9843 38.3067L44.212 46.473ZM44.212 46.473C44.6823 46.1537 44.936 45.5992 44.8701 45.0348C44.5139 41.9821 42.4218 39.374 39.5236 38.3527M44.212 46.473L39.5236 38.3527M29.9552 41.2013L29.9542 41.2017C28.4048 41.7195 27.2129 42.961 26.7373 44.4859C28.9937 45.8039 31.5511 46.4963 34.1937 46.4963C36.8364 46.4963 39.3936 45.8041 41.6505 44.4859C41.1749 42.9613 39.9828 41.7196 38.4338 41.2018C38.4337 41.2017 38.4336 41.2017 38.4335 41.2017L38.5128 40.9646L29.9552 41.2013ZM29.9552 41.2013C29.9867 41.1907 30.0176 41.1792 30.0483 41.1667C30.0787 41.1573 30.1094 41.148 30.1401 41.139L30.1412 41.1387C30.1419 41.1385 30.1431 41.1382 30.1445 41.1377C30.1509 41.1359 30.163 41.1323 30.1744 41.1286L30.1773 41.1277L30.1774 41.1277L30.3414 41.0843C30.3989 41.0699 30.4601 41.0566 30.522 41.0441L30.522 41.0441L30.5255 41.0433C30.5273 41.0429 30.5294 41.0425 30.5319 41.042C30.5405 41.0401 30.5529 41.0374 30.565 41.0346C30.6177 41.0244 30.6706 41.0149 30.7231 41.0065L30.7231 41.0065L30.7373 41.0042L30.744 41.0031L30.744 41.0033L30.7522 41.0018C30.803 40.9926 30.8557 40.9846 30.9254 40.9757L30.9254 40.9757L30.9282 40.9753L30.9404 40.9736C31.0042 40.9659 31.0679 40.9596 31.129 40.9549L31.1096 40.7056M29.9552 41.2013L37.4585 40.9751C37.3835 40.9659 37.3201 40.9596 37.2559 40.9546C37.2556 40.9545 37.2554 40.9545 37.2551 40.9545L37.2503 40.9541C37.1984 40.9504 37.1458 40.9465 37.0935 40.9437C37.0932 40.9437 37.0929 40.9437 37.0926 40.9437L37.0625 40.9423C37.0412 40.9422 37.0225 40.9416 37.0032 40.9407L37.0144 40.691M37.0144 40.691L37.0037 40.9408C36.9483 40.9384 36.8911 40.9373 36.8338 40.9373H31.5542C31.4962 40.9373 31.4396 40.9382 31.3851 40.9407L31.3849 40.9407C31.365 40.9416 31.3441 40.9422 31.3229 40.9423L31.2967 40.9435C31.247 40.9461 31.1986 40.9497 31.1469 40.9535C31.1407 40.954 31.1344 40.9545 31.128 40.9549L31.1096 40.7056M37.0144 40.691C37.0333 40.6918 37.0496 40.6924 37.0685 40.6924M37.0144 40.691C36.9551 40.6884 36.8943 40.6873 36.8338 40.6873H31.5542L37.0685 40.6924M31.1096 40.7056C31.044 40.7107 30.9761 40.7175 30.9083 40.7257L31.2838 40.6939C31.2311 40.6966 31.1798 40.7004 31.1285 40.7042C31.1222 40.7047 31.1159 40.7051 31.1096 40.7056ZM37.0685 40.6924L37.1058 40.6941C37.1609 40.697 37.216 40.701 37.2677 40.7047L37.0685 40.6924ZM39.5236 38.3527C39.4841 38.3356 39.4436 38.3201 39.4021 38.3063C39.3081 38.2748 39.2144 38.2454 39.1204 38.2178L39.5236 38.3527ZM29.3654 38.1889C29.3651 38.189 29.3648 38.189 29.3645 38.1891M29.3654 38.1889L29.3645 38.1891M29.3645 38.1891C29.34 38.1954 29.317 38.2024 29.2976 38.2085C29.2887 38.2112 29.2776 38.2145 29.2658 38.2182C29.1723 38.2458 29.0784 38.2751 28.9844 38.3066L29.3645 38.1891ZM38.2488 41.1393C38.2791 41.1482 38.309 41.1571 38.3385 41.1664L37.492 40.7274C37.4978 40.7282 37.5035 40.7291 37.5094 40.7297L37.4783 40.9778C37.4787 40.9778 37.479 40.9779 37.4794 40.9779C37.5325 40.9846 37.5847 40.9927 37.6363 41.0019L37.6363 41.0019L37.6389 41.0023L37.6392 41.0024C37.6414 41.0028 37.6551 41.0052 37.6678 41.007C37.7198 41.0153 37.7717 41.0245 37.8226 41.0345C37.8348 41.0374 37.8473 41.0401 37.8561 41.042C37.8585 41.0425 37.8607 41.0429 37.8625 41.0433L37.8624 41.0434L37.8659 41.0441C37.9281 41.0567 37.9892 41.07 38.036 41.0816L38.2102 41.1274L38.2107 41.1276C38.2111 41.1277 38.2115 41.1278 38.212 41.128C38.2201 41.1306 38.2307 41.1338 38.2379 41.136C38.2407 41.1369 38.243 41.1376 38.2444 41.138L38.2444 41.138L38.2488 41.1393Z" fill="#D92A2A" stroke="#D92A2A" stroke-width="0.5"/>
<path d="M48.8809 22.1216C48.0388 22.1216 47.3564 22.8039 47.3564 23.646C47.3564 24.4881 48.0388 25.1704 48.8809 25.1704H62.1312C62.7696 27.0707 64.5662 28.4445 66.68 28.4445C69.3261 28.4445 71.4785 26.2921 71.4785 23.646C71.4785 20.9999 69.3261 18.8475 66.68 18.8475C64.5662 18.8475 62.7695 20.2213 62.1312 22.1216H48.8809ZM66.68 21.8965C67.6444 21.8965 68.4297 22.6816 68.4297 23.6462C68.4297 24.6107 67.6446 25.3958 66.68 25.3958C65.7155 25.3958 64.9304 24.6107 64.9304 23.6462C64.9304 22.6816 65.7156 21.8965 66.68 21.8965Z" fill="#D92A2A" stroke="#D92A2A" stroke-width="0.5"/>
<path d="M47.3564 38.5869C47.3564 39.429 48.0388 40.1113 48.8809 40.1113H62.1312C62.7696 42.0116 64.5662 43.3854 66.68 43.3854C69.3261 43.3854 71.4785 41.233 71.4785 38.5869C71.4785 35.9408 69.3261 33.7885 66.68 33.7885C64.5662 33.7885 62.7695 35.1622 62.1312 37.0625H48.8809C48.039 37.0625 47.3564 37.7448 47.3564 38.5869ZM66.68 36.8373C67.6444 36.8373 68.4297 37.6224 68.4297 38.5869C68.4297 39.5515 67.6446 40.3366 66.68 40.3366C65.7155 40.3366 64.9304 39.5515 64.9304 38.5869C64.9304 37.6224 65.7156 36.8373 66.68 36.8373Z" fill="#D92A2A" stroke="#D92A2A" stroke-width="0.5"/>
</g>
<defs>
<clipPath id="clip0">
<rect width="87" height="87" fill="white"/>
</clipPath>
</defs>
</svg>
