<svg width="56" height="84" viewBox="0 0 56 84" fill="none" xmlns="http://www.w3.org/2000/svg">
<path fill-rule="evenodd" clip-rule="evenodd" d="M55.5688 16.4312C55.5682 16.4133 55.5675 16.3953 55.5662 16.3774C55.5611 16.3062 55.5541 16.2364 55.54 16.1672C55.54 16.1672 55.54 16.1672 55.54 16.1665C55.5259 16.0973 55.506 16.0287 55.4836 15.9621C55.4778 15.9454 55.472 15.9288 55.4656 15.9121C55.4419 15.8487 55.415 15.7865 55.3842 15.7263C55.3823 15.7231 55.381 15.7198 55.3791 15.7166C55.3458 15.6538 55.3073 15.5942 55.2657 15.5359C55.2554 15.5212 55.2445 15.5071 55.2336 15.4923C55.1894 15.4347 55.1433 15.3789 55.0914 15.327L40.245 0.480651C40.1931 0.428741 40.1373 0.382598 40.0797 0.338378C40.0649 0.327484 40.0502 0.315948 40.0354 0.305694C39.9771 0.264038 39.9182 0.225585 39.856 0.192901C39.8515 0.190338 39.847 0.189056 39.8432 0.186493C39.7842 0.155731 39.7227 0.129455 39.6605 0.105743C39.6432 0.0993346 39.6266 0.0935666 39.6086 0.0877989C39.542 0.0653686 39.4747 0.0455017 39.4048 0.0314025C39.4042 0.0314025 39.4035 0.0314025 39.4035 0.0314025C39.335 0.0179443 39.2651 0.0102539 39.1946 0.00512694C39.1767 0.00448608 39.1587 0.00320433 39.1408 0.00256347C39.1222 0.00192261 39.1036 0 39.085 0H1.91406C1.00787 0 0.273438 0.734434 0.273438 1.64062V71.8631C0.273438 72.7693 1.00787 73.5037 1.91406 73.5037H26.6144V82.3592C26.6144 82.9559 26.9387 83.5057 27.461 83.7948C27.9839 84.0838 28.6216 84.0665 29.1272 83.7493L35.3757 79.8291L41.6242 83.7493C41.8901 83.9159 42.1932 83.9998 42.4964 83.9998C42.7694 83.9998 43.043 83.9319 43.2904 83.7954C43.8127 83.5064 44.137 82.9565 44.137 82.3592V73.5037H53.9307C54.8369 73.5037 55.5714 72.7693 55.5714 71.8631V16.487C55.5714 16.4684 55.5694 16.4498 55.5688 16.4312ZM40.7257 5.60183L49.9702 14.8463H40.7257V5.60183ZM25.805 50.6741C25.6896 50.3607 25.5018 49.8486 25.4974 49.6391C25.6255 49.4801 26.0703 49.1988 26.3427 49.027C26.9271 48.6579 27.5898 48.2388 28.0704 47.5838C28.5556 46.9218 28.753 46.1572 28.9273 45.483C29.0035 45.1882 29.1266 44.7121 29.2317 44.532C29.2894 44.5198 29.4105 44.5025 29.638 44.5025C29.8207 44.5025 30.0251 44.5128 30.2417 44.5237C30.4904 44.5358 30.7467 44.5486 31.0146 44.5486C31.6055 44.5486 32.0823 44.482 32.5149 44.3378C33.2704 44.0866 33.8748 43.6002 34.408 43.1708C34.7028 42.9337 35.1963 42.5363 35.368 42.512C35.5558 42.5363 36.0486 42.9337 36.3434 43.1708C36.8766 43.6002 37.4816 44.0866 38.2372 44.3378C38.6698 44.482 39.1459 44.5486 39.7374 44.5486C40.0047 44.5486 40.2617 44.5358 40.5097 44.5237C40.7263 44.5128 40.9307 44.5025 41.114 44.5025C41.3415 44.5025 41.462 44.5192 41.5203 44.532C41.6254 44.7121 41.7485 45.1882 41.8241 45.483C41.9984 46.1572 42.1965 46.9218 42.6816 47.5838C43.1616 48.2388 43.8243 48.6573 44.4094 49.027C44.6811 49.1994 45.1259 49.4801 45.254 49.6391C45.2495 49.8486 45.0618 50.3607 44.9471 50.6741C44.7029 51.3386 44.4267 52.0923 44.4267 52.9274C44.4267 53.7624 44.7029 54.5161 44.9464 55.1813C45.0618 55.4947 45.2495 56.0067 45.254 56.2163C45.1259 56.3752 44.6811 56.6559 44.4094 56.8283C43.8243 57.1975 43.1616 57.6166 42.6816 58.2715C42.1965 58.9336 41.9984 59.6981 41.8241 60.3723C41.7485 60.6665 41.6248 61.1433 41.5203 61.3234C41.462 61.3355 41.3415 61.3528 41.114 61.3528C40.9307 61.3528 40.7263 61.3426 40.5097 61.3317C40.2617 61.3195 40.0047 61.3067 39.7374 61.3067C39.1459 61.3067 38.6698 61.3734 38.2372 61.5175C37.4816 61.7688 36.8766 62.2558 36.3434 62.6846C36.0531 62.9191 35.5686 63.3081 35.3757 63.3427C35.1828 63.3081 34.6989 62.9191 34.4086 62.6846C33.8748 62.2558 33.2704 61.7688 32.5149 61.5175C32.0823 61.3734 31.6055 61.3067 31.0146 61.3067C30.7473 61.3067 30.4904 61.3195 30.2417 61.3317C30.0257 61.3426 29.8213 61.3528 29.638 61.3528C29.4105 61.3528 29.29 61.3355 29.2317 61.3234C29.1266 61.1433 29.0035 60.6671 28.9273 60.3723C28.7536 59.6981 28.5556 58.9336 28.0704 58.2715C27.5904 57.6166 26.9278 57.1975 26.3427 56.8283C26.0709 56.6566 25.6262 56.3752 25.498 56.2163C25.5025 56.0074 25.6903 55.4947 25.805 55.1813C26.0491 54.5167 26.3254 53.763 26.3254 52.928C26.3254 52.0923 26.0485 51.3386 25.805 50.6741ZM40.8558 79.3933L36.2479 76.5023C35.7147 76.1684 35.0367 76.1684 34.5035 76.5023L29.8956 79.3933V64.629C30.07 64.6238 30.2411 64.6174 30.407 64.6091C30.6243 64.5976 30.8294 64.5873 31.0146 64.5873C31.3055 64.5873 31.4299 64.6142 31.4779 64.6302C31.6734 64.6956 32.049 64.9981 32.3508 65.241C33.1166 65.8575 34.0696 66.6246 35.3757 66.6246C36.6818 66.6246 37.6348 65.8575 38.4006 65.241C38.7024 64.9981 39.078 64.6956 39.2728 64.6309C39.3215 64.6149 39.4458 64.5879 39.7368 64.5879C39.922 64.5879 40.1271 64.5982 40.3443 64.6091C40.5103 64.6174 40.6814 64.6245 40.8551 64.629V79.3933H40.8558ZM44.137 70.2225V63.3069C44.6247 62.6442 44.8285 61.8598 45.0009 61.1933C45.0913 60.8434 45.2149 60.3646 45.3277 60.2115C45.4399 60.0577 45.8571 59.7943 46.1615 59.602C46.969 59.0919 47.9739 58.4568 48.3731 57.2558C48.7679 56.0708 48.3571 54.9512 48.0271 54.0514C47.8771 53.6432 47.7073 53.1799 47.7073 52.9274C47.7073 52.6749 47.8771 52.2121 48.0271 51.8039C48.3571 50.9041 48.7679 49.7839 48.3731 48.5989C47.9739 47.3986 46.969 46.7635 46.1615 46.2534C45.8571 46.0611 45.4399 45.7971 45.3277 45.6445C45.2149 45.4907 45.0913 45.012 45.0009 44.6621C44.7651 43.7488 44.4715 42.6119 43.4667 41.8749C42.6669 41.2892 41.7408 41.2213 41.1134 41.2213C40.8481 41.2213 40.5917 41.2341 40.3443 41.2469C40.1271 41.2578 39.922 41.268 39.7374 41.268C39.4458 41.268 39.3215 41.2411 39.2735 41.2251C39.0786 41.1604 38.7031 40.8579 38.4012 40.6144C37.6348 39.9985 36.6818 39.2314 35.3757 39.2314C34.0702 39.2314 33.1166 39.9985 32.3508 40.6144C32.049 40.8573 31.6734 41.1604 31.4786 41.2251C31.4305 41.2411 31.3055 41.268 31.0146 41.268C30.83 41.268 30.6243 41.2578 30.407 41.2463C30.1597 41.2341 29.904 41.2213 29.638 41.2213C29.0112 41.2213 28.0852 41.2892 27.286 41.8749C26.2805 42.6119 25.9863 43.7488 25.7505 44.6621C25.6601 45.012 25.5365 45.4907 25.4243 45.6439C25.3115 45.7971 24.8943 46.0611 24.5899 46.2534C23.7824 46.7635 22.7782 47.3986 22.3783 48.5989C21.9835 49.7845 22.3943 50.9041 22.7243 51.8039C22.8743 52.2121 23.0441 52.6749 23.0441 52.9274C23.0441 53.1799 22.8743 53.6432 22.7243 54.0514C22.3943 54.9512 21.9835 56.0708 22.3783 57.2564C22.7782 58.4568 23.783 59.0919 24.5899 59.602C24.8949 59.7943 25.3115 60.0583 25.4243 60.2115C25.5365 60.3646 25.6601 60.8434 25.7505 61.1933C25.9229 61.8598 26.1273 62.6448 26.615 63.3069V70.2225H3.55468V3.28124H37.4444V16.487C37.4444 17.3932 38.1789 18.1276 39.085 18.1276H52.2901V70.2225H44.137Z" fill="#D92A2A"/>
</svg>
