<svg width="80" height="80" viewBox="0 0 80 80" fill="none" xmlns="http://www.w3.org/2000/svg">
<path d="M30.6663 72.5H30.6669C36.8306 72.4932 41.8262 67.4976 41.833 61.3339V61.3333C41.833 55.1659 36.8338 50.1667 30.6663 50.1667C24.4989 50.1667 19.4997 55.1659 19.4997 61.3333C19.4997 67.5007 24.4989 72.5 30.6663 72.5ZM17.833 61.3333C17.833 54.2456 23.5784 48.5001 30.6661 48.5C37.7509 48.5077 43.4922 54.249 43.4997 61.3339C43.4994 68.4214 37.754 74.1666 30.6663 74.1666C23.5786 74.1666 17.833 68.4211 17.833 61.3333Z" fill="#D92A2A" stroke="#D92A2A"/>
<path d="M31.5006 54.8002V55.2147L31.9081 55.2915C33.8634 55.66 35.1882 56.8152 35.4522 58.1667H33.7031C33.6548 58.0747 33.5964 57.9895 33.5337 57.9127C33.364 57.7047 33.1319 57.518 32.8598 57.3621C32.3137 57.0492 31.5598 56.8334 30.6673 56.8334C29.7748 56.8334 29.021 57.0492 28.4749 57.3621C28.2027 57.518 27.9706 57.7047 27.8009 57.9127C27.6359 58.115 27.5006 58.375 27.5006 58.6667C27.5006 58.9584 27.6359 59.2184 27.8009 59.4207C27.9706 59.6287 28.2027 59.8154 28.4749 59.9713C29.021 60.2842 29.7748 60.5 30.6673 60.5C33.525 60.5 35.5006 62.156 35.5006 64C35.5006 65.5622 34.1006 66.9651 31.9087 67.3751L31.5006 67.4514V67.8666V68.8334H29.834V67.8666V67.452L29.4266 67.3752C27.4712 67.0067 26.1464 65.8515 25.8825 64.5H27.6316C27.6799 64.5921 27.7382 64.6772 27.8009 64.7541C27.9706 64.9621 28.2027 65.1488 28.4749 65.3047C29.021 65.6175 29.7748 65.8334 30.6673 65.8334C31.5598 65.8334 32.3137 65.6175 32.8598 65.3047C33.1319 65.1488 33.364 64.9621 33.5337 64.7541C33.6988 64.5517 33.834 64.2918 33.834 64C33.834 63.7083 33.6988 63.4483 33.5337 63.246C33.364 63.038 33.1319 62.8513 32.8598 62.6954C32.3137 62.3826 31.5598 62.1667 30.6673 62.1667C27.8097 62.1667 25.834 60.5108 25.834 58.6667C25.834 57.1046 27.234 55.7016 29.4259 55.2916L29.834 55.2153V54.8002V53.8334H31.5006V54.8002Z" fill="#D92A2A" stroke="#D92A2A"/>
<path d="M68 77.8333H68.5V77.3333V61.8333H70.1667V79.5H9.83333V45.3333V44.8333H9.33333H4C2.06716 44.8333 0.5 43.2662 0.5 41.3333V4C0.5 2.06716 2.06716 0.5 4 0.5H33.3333C35.2662 0.5 36.8333 2.06716 36.8333 4V5.33333V5.83333H37.3333H53.6783L70.1667 22.3217V42.1667H68.5V24V23.5H68H52.5V8V7.5H52H37.3333H36.8333V8V41.3333C36.8333 43.2662 35.2662 44.8333 33.3333 44.8333H12H11.5V45.3333V77.3333V77.8333H12H68ZM55.0202 9.53186L54.1667 8.67831V9.88542V21.3333V21.8333H54.6667H66.1146H67.3217L66.4681 20.9798L55.0202 9.53186ZM2.16667 4V41.3333C2.16667 42.3458 2.98753 43.1667 4 43.1667H33.3333C34.3458 43.1667 35.1667 42.3458 35.1667 41.3333V4C35.1667 2.98753 34.3458 2.16667 33.3333 2.16667H4C2.98753 2.16667 2.16667 2.98753 2.16667 4Z" fill="#D92A2A" stroke="#D92A2A"/>
<path d="M43.167 33.8334H44.8337V35.5H43.167V33.8334Z" fill="#D92A2A" stroke="#D92A2A"/>
<path d="M48.5 33.8334H63.5V35.5H48.5V33.8334Z" fill="#D92A2A" stroke="#D92A2A"/>
<path d="M43.167 28.5H44.8337V30.1667H43.167V28.5Z" fill="#D92A2A" stroke="#D92A2A"/>
<path d="M48.5 28.5H63.5V30.1667H48.5V28.5Z" fill="#D92A2A" stroke="#D92A2A"/>
<path d="M43.167 39.1666H44.8337V40.8333H43.167V39.1666Z" fill="#D92A2A" stroke="#D92A2A"/>
<path d="M48.5 39.1666H63.5V40.8333H48.5V39.1666Z" fill="#D92A2A" stroke="#D92A2A"/>
<path d="M43.167 44.5H44.8337V46.1667H43.167V44.5Z" fill="#D92A2A" stroke="#D92A2A"/>
<path d="M48.5 44.5H63.5V46.1667H48.5V44.5Z" fill="#D92A2A" stroke="#D92A2A"/>
<path d="M30.6667 11.1667H31.1667V10.6667V6.66667V6.16667H30.6667H6.66667H6.16667V6.66667V10.6667V11.1667H6.66667H30.6667ZM4.5 4.5H32.8333V12.8333H4.5V4.5Z" fill="#D92A2A" stroke="#D92A2A"/>
<path d="M7.50065 20V20.5H8.00065H10.6673H11.1673V20V17.3333V16.8333H10.6673H8.00065H7.50065V17.3333V20ZM8.00065 15.1666H10.6673C11.8638 15.1666 12.834 16.1368 12.834 17.3333V20C12.834 21.1965 11.8638 22.1666 10.6673 22.1666H8.00065C6.80414 22.1666 5.83398 21.1965 5.83398 20V17.3333C5.83398 16.1368 6.80414 15.1666 8.00065 15.1666Z" fill="#D92A2A" stroke="#D92A2A"/>
<path d="M16.8327 20V20.5H17.3327H19.9993H20.4993V20V17.3333V16.8333H19.9993H17.3327H16.8327V17.3333V20ZM17.3327 15.1666H19.9993C21.1959 15.1666 22.166 16.1368 22.166 17.3333V20C22.166 21.1965 21.1959 22.1666 19.9993 22.1666H17.3327C16.1362 22.1666 15.166 21.1965 15.166 20V17.3333C15.166 16.1368 16.1362 15.1666 17.3327 15.1666Z" fill="#D92A2A" stroke="#D92A2A"/>
<path d="M26.1667 20V20.5H26.6667H29.3333H29.8333V20V17.3333V16.8333H29.3333H26.6667H26.1667V17.3333V20ZM26.6667 15.1666H29.3333C30.5299 15.1666 31.5 16.1368 31.5 17.3333V20C31.5 21.1965 30.5299 22.1666 29.3333 22.1666H26.6667C25.4702 22.1666 24.5 21.1965 24.5 20V17.3333C24.5 16.1368 25.4702 15.1666 26.6667 15.1666Z" fill="#D92A2A" stroke="#D92A2A"/>
<path d="M7.50065 29.3333V29.8333H8.00065H10.6673H11.1673V29.3333V26.6667V26.1667H10.6673H8.00065H7.50065V26.6667V29.3333ZM8.00065 24.5H10.6673C11.8638 24.5 12.834 25.4702 12.834 26.6667V29.3333C12.834 30.5298 11.8638 31.5 10.6673 31.5H8.00065C6.80414 31.5 5.83398 30.5298 5.83398 29.3333V26.6667C5.83398 25.4702 6.80414 24.5 8.00065 24.5Z" fill="#D92A2A" stroke="#D92A2A"/>
<path d="M16.8327 29.3333V29.8333H17.3327H19.9993H20.4993V29.3333V26.6667V26.1667H19.9993H17.3327H16.8327V26.6667V29.3333ZM17.3327 24.5H19.9993C21.1959 24.5 22.166 25.4702 22.166 26.6667V29.3333C22.166 30.5298 21.1959 31.5 19.9993 31.5H17.3327C16.1362 31.5 15.166 30.5298 15.166 29.3333V26.6667C15.166 25.4702 16.1362 24.5 17.3327 24.5Z" fill="#D92A2A" stroke="#D92A2A"/>
<path d="M26.1667 29.3333V29.8333H26.6667H29.3333H29.8333V29.3333V26.6667V26.1667H29.3333H26.6667H26.1667V26.6667V29.3333ZM26.6667 24.5H29.3333C30.5299 24.5 31.5 25.4702 31.5 26.6667V29.3333C31.5 30.5298 30.5299 31.5 29.3333 31.5H26.6667C25.4702 31.5 24.5 30.5298 24.5 29.3333V26.6667C24.5 25.4702 25.4702 24.5 26.6667 24.5Z" fill="#D92A2A" stroke="#D92A2A"/>
<path d="M7.50065 38.6667V39.1667H8.00065H10.6673H11.1673V38.6667V36V35.5H10.6673H8.00065H7.50065V36V38.6667ZM8.00065 33.8334H10.6673C11.8638 33.8334 12.834 34.8035 12.834 36V38.6667C12.834 39.8632 11.8638 40.8334 10.6673 40.8334H8.00065C6.80414 40.8334 5.83398 39.8632 5.83398 38.6667V36C5.83398 34.8035 6.80414 33.8334 8.00065 33.8334Z" fill="#D92A2A" stroke="#D92A2A"/>
<path d="M16.8327 38.6667V39.1667H17.3327H19.9993H20.4993V38.6667V36V35.5H19.9993H17.3327H16.8327V36V38.6667ZM17.3327 33.8334H19.9993C21.1959 33.8334 22.166 34.8035 22.166 36V38.6667C22.166 39.8632 21.1959 40.8334 19.9993 40.8334H17.3327C16.1362 40.8334 15.166 39.8632 15.166 38.6667V36C15.166 34.8035 16.1362 33.8334 17.3327 33.8334Z" fill="#D92A2A" stroke="#D92A2A"/>
<path d="M26.1667 38.6667V39.1667H26.6667H29.3333H29.8333V38.6667V36V35.5H29.3333H26.6667H26.1667V36V38.6667ZM26.6667 33.8334H29.3333C30.5299 33.8334 31.5 34.8035 31.5 36V38.6667C31.5 39.8632 30.5299 40.8334 29.3333 40.8334H26.6667C25.4702 40.8334 24.5 39.8632 24.5 38.6667V36C24.5 34.8035 25.4702 33.8334 26.6667 33.8334Z" fill="#D92A2A" stroke="#D92A2A"/>
<path d="M46.7904 72.7761C46.5579 73.2826 46.6654 73.8809 47.0599 74.2748C47.4538 74.6693 48.0521 74.7767 48.5586 74.5443L55.5482 71.3256C55.6914 71.2598 55.8216 71.17 55.9336 71.0586L55.58 70.7051L55.5808 70.7044C55.5111 70.7735 55.4299 70.8297 55.3396 70.8711L55.339 70.8714L48.3501 74.0899L48.5586 74.5443L48.3494 74.0901L48.3497 74.09C48.0334 74.235 47.6596 74.1678 47.4137 73.9215L47.4132 73.9209C47.1669 73.675 47.0996 73.3013 47.2447 72.9849L47.2445 72.9852L46.7904 72.7761ZM46.7904 72.7761L50.0091 65.7865L46.7904 72.7761ZM78.4396 42.902C79.8027 44.2689 79.8014 46.4824 78.4356 47.8476L78.4355 47.8477L55.5811 70.704L47.2448 72.9846L50.4633 65.9956L50.4635 65.9951C50.5044 65.906 50.561 65.8243 50.6308 65.7534C50.6311 65.7531 50.6314 65.7529 50.6316 65.7526L73.4828 42.9021C74.8711 41.5807 77.0513 41.5807 78.4396 42.902ZM78.4396 42.902C78.441 42.9033 78.4424 42.9046 78.4438 42.906L78.789 42.5444L78.4356 42.8979C78.4369 42.8993 78.4383 42.9007 78.4396 42.902ZM54.424 69.4568L54.5052 69.4194L54.5684 69.3562L71.612 52.3139L71.9656 51.9603L71.612 51.6068L69.7266 49.7214L69.373 49.3678L69.0195 49.7214L51.9772 66.765L51.914 66.8282L51.8766 66.9093L50.2672 70.4028L49.7006 71.6327L50.9306 71.0661L54.424 69.4568ZM72.7943 50.4227L73.1477 50.776L73.5012 50.4227L74.4348 49.4898L74.7886 49.1362L74.4349 48.7826L72.5495 46.8971L72.196 46.5436L71.8424 46.8971L70.9088 47.8307L70.5552 48.1843L70.9089 48.5379L72.7943 50.4227ZM77.2617 46.6628L77.262 46.6626C77.9771 45.9466 77.9771 44.7866 77.262 44.0705L77.2621 44.0704L77.2536 44.0624C76.5331 43.3739 75.3986 43.3736 74.6784 44.0626L74.6783 44.0625L74.6708 44.0701L73.7268 45.0128L73.3727 45.3663L73.7265 45.7201L75.6119 47.6055L75.9655 47.9591L76.319 47.6055L77.2617 46.6628Z" fill="#D92A2A" stroke="#D92A2A"/>
</svg>
